<svg id="Layer_1" data-name="Layer 1" xmlns="http://www.w3.org/2000/svg" viewBox="0 0 512.9 485.05"><defs><style>.cls-1{fill:#fff;}</style></defs><path class="cls-1" d="M504.81,270.82l-78.14-86.23c-6.29-6.29-14.38-9.88-22.46-9.88H321.57a25.11,25.11,0,0,0-25.15,25.15V337.29H212.61L180.55,260c-.48-1.11-1-2.19-1.54-3.25l84.4-118.5a45.3,45.3,0,0,0,30.38-26.1l85.27-8.44a11.23,11.23,0,0,0,2.38-.77,53.78,53.78,0,0,0,40.73,18.73c11.68,0,23.36-3.59,32.34-10.78,3.59-2.69,4.49-9,1.8-12.57s-9-4.49-12.58-1.8a36.56,36.56,0,0,1-21.56,7.19,36.08,36.08,0,0,1-35-28V59.89a36.07,36.07,0,0,1,35-28,36.55,36.55,0,0,1,21.56,7.18c3.6,2.7,9.88,1.8,12.58-1.79s1.79-9.88-1.8-12.58c-9-7.18-20.66-10.78-32.34-10.78a53.79,53.79,0,0,0-40.63,18.61,7.85,7.85,0,0,0-6.08-.64L277.87,57.57a45.14,45.14,0,0,0-25.46-7.72,44.48,44.48,0,0,0-44.92,44.91c0,.23,0,.45,0,.68L102.09,241.8A51,51,0,0,0,88.93,260L56.86,337.29H0v86.23a21.86,21.86,0,0,0,21.56,21.56h6a62.89,62.89,0,0,0,124.49,0H342a62.89,62.89,0,0,0,124.48,0h24c11.68,0,21.56-9.88,22.46-21.56v-132C512.9,283.4,510.2,276.21,504.81,270.82ZM490.44,283.4H359.3V193.57h44.91a11.51,11.51,0,0,1,9,3.6ZM369.18,58.11a52.78,52.78,0,0,0,0,19.41v9.16l-71.86,7.19,0-.22a45.08,45.08,0,0,0-5.89-21.43l77.78-19.67v5.56ZM252.41,67.82a27,27,0,0,1,26.94,26.94,26.46,26.46,0,0,1-26.94,26.95c-.48,0-.95,0-1.42,0h0a26.43,26.43,0,0,1-25.5-26.92A26.47,26.47,0,0,1,252.41,67.82ZM132,229.5l80.84-112.28c5.39,9.88,15.27,17.07,26.05,20.66l-72.57,103A49.36,49.36,0,0,0,137,229.56h-.08c-.72,0-1.44-.05-2.16-.05Zm-26,37.73a29.36,29.36,0,0,1,7-11c.38-.21.75-.44,1.13-.69a26.63,26.63,0,0,1,6.46-4.76l.57-.29.31-.15a31.59,31.59,0,0,1,10.94-2.8h.09c.76-.06,1.52-.09,2.29-.09s1.27,0,1.91.07a34,34,0,0,1,21.11,10,29.53,29.53,0,0,1,5.72,9.69l29.64,70.06H76.35ZM89.82,481a44.91,44.91,0,1,1,44.92-44.91A44.47,44.47,0,0,1,89.82,481Zm314.39,0a44.91,44.91,0,1,1,44.91-44.91A44.47,44.47,0,0,1,404.21,481Zm86.23-53.89h-24a62.42,62.42,0,0,0-62.24-53.9h-.9c-31.44,0-57.49,23.36-62,53.9H152.07A62.35,62.35,0,0,0,95.72,373.5l-.64-.05c-.74-.06-1.47-.12-2.22-.15-1-.05-2-.08-3-.08s-2,0-3,.08c-.75,0-1.49.09-2.22.15l-.64.05a62.35,62.35,0,0,0-56.35,53.62h-6a3.87,3.87,0,0,1-3.6-3.6V355.26H314.39V200.76a7.09,7.09,0,0,1,7.18-7.19h19.76v92.52a15.75,15.75,0,0,0,15.27,15.27H494v26.95H449.12c-5.39,0-9,3.59-9,9s3.59,9,9,9H494v77.25A3.87,3.87,0,0,1,490.44,427.12Z" transform="translate(0 -13.92)"/><path class="cls-1" d="M89.82,418.13a18,18,0,1,0,18,18A18,18,0,0,0,89.82,418.13Z" transform="translate(0 -13.92)"/><path class="cls-1" d="M404.21,418.13a18,18,0,1,0,18,18A18,18,0,0,0,404.21,418.13Z" transform="translate(0 -13.92)"/><path class="cls-1" d="M134.74,274.41c-5.39,0-9,3.6-9,9s3.6,9,9,9,9-3.59,9-9S140.13,274.41,134.74,274.41Z" transform="translate(0 -13.92)"/></svg>