<?xml version="1.0"?>
<svg xmlns:rdf="http://www.w3.org/1999/02/22-rdf-syntax-ns#" xmlns="http://www.w3.org/2000/svg" xmlns:cc="http://web.resource.org/cc/" xmlns:xlink="http://www.w3.org/1999/xlink" xmlns:dc="http://purl.org/dc/elements/1.1/" xmlns:svg="http://www.w3.org/2000/svg" id="spray_painting_a_car_xA0_Image_1_" style="enable-background:new 0 0 620.931 402.527" xml:space="preserve" viewBox="0 0 620.931 402.527" version="1.1" y="0px" x="0px">
<g clip-rule="evenodd" fill-rule="evenodd">
	<path d="m7.476 23.159c-2.576-5.091-3.528-15.433 3.28-16.403 0.698-0.15 0.774 0.32 0.82 0.82-6.318 1.882-0.943 10.925-4.1 15.583z"/>
	<path d="m23.059 9.627c-0.246 2.036-2.692 1.36-5.331 1.64-2.37 0.252-4.959 2.196-6.561 1.23 0.176-4.767 8.794-4.713 11.892-2.87z"/>
	<path d="m216.2 37.511c1.636 0.406 1.235-1.226 2.871-0.82 1.634 0.063 2.983 1.239 4.511 1.64 5.199 1.366 11.016 1.345 15.992 2.87 2.515 0.771 4.269 2.868 6.971 2.46 5.681 3.186 11.447 5.306 16.402 9.021 4.857 3.642 8.247 8.249 12.302 12.712 1.835 3.236 3.176 7.808 4.92 12.712 1.243 3.494 3.545 8.676 4.511 13.532 0.872 4.385 0.42 6.861-1.64 9.432-7.155 1.417-17.704-0.931-25.834-1.64-8.635-0.753-17.477-0.614-25.834-2.051 3.057-3.439 11.142-1.165 18.043-0.82 6.544 0.327 13.664 1.786 20.093 2.05 4.074 0.167 7.315-0.446 11.482 0 0.801-6.506-1.209-13.881-4.511-20.093-0.584-1.099-1.578-2.133-2.05-3.28-0.651-1.58-0.558-3.446-1.23-4.921-2.436-5.341-10.316-12.057-15.583-15.583-2.779-1.86-7.652-4.45-11.482-5.741-1.041-0.351-2.565-0.057-3.69-0.41-1.06-0.333-1.939-1.387-2.871-1.64-5.104-1.389-10.521-1.905-15.583-2.46 0.122 1.212 2.567 3.193 3.691 3.281 2.283 0.178 5.035 0.566 7.791 1.23 3.638 0.876 6.704 1.652 9.841 2.46 8.994 2.316 17.725 10.706 22.554 17.633 4.5 6.454 9.38 15.635 8.611 26.654-11.955 1.969-26.41-2.09-38.956-2.05 0.846-2.895 5.392-4.108 4.511-7.381-1.61-0.786-1.161 1.005-1.64 1.64-1.107 1.464-3.116 2.457-4.101 4.511-2.509 0.498-5.857 0.157-8.202 0.82-0.073-2.387-2.324-2.596-4.92-2.46 0.79-3.038 3.425-4.229 4.92-6.562 0.935-6.318 6.89-12.329 3.691-20.093-0.584-1.417-1.464-5.153-2.871-6.971-1.547-2-5.34-2.32-4.921-5.331 0.538-1.645 3.17-0.085 4.101 0.41 4.114 2.19 7.05 7.604 9.842 11.482 1.155 5.481 1.885 11.022-0.41 15.993 4.183-0.589 2.964-7.957 2.46-11.072-0.222-1.369 0.215-3.012 0-4.101-0.472-2.392-2.517-4.52-3.69-6.971-0.718-1.5-0.596-2.755-1.23-3.69-2.453-3.618-7.054-4.31-10.662-5.741-1.691-3.502-5.963-4.425-10.251-5.331-0.058-2.771 0.647-4.38-0.41-6.151-1.162-1.946-3.641-1.662-5.331-3.281-0.383-3.557-2.068-6.839-4.101-9.432-0.998-1.271-4.103-4.259-6.151-5.331-0.422-0.221-1.62-0.052-2.46-0.41-3.069-1.306-6.506 0.495-10.252-0.41 1.29-1.878 6.107-2.539 9.021-2.05 8.06 1.353 14.611 8.963 16.402 16.812 1.87 1.555 4.73 2.112 5.34 4.923z"/>
	<path d="m35.36 28.9c3.542-0.153 6.492 0.479 9.841 1.23 2.061 0.462 4.645 0.722 6.151 1.23 2.11 0.711 4.082 2.515 6.151 3.69 2.17 1.233 4.743 1.741 6.561 2.871 1.98 1.231 4.052 3.642 5.741 5.331 1.793 1.793 3.907 3.583 4.101 5.741-3.392-0.845-4.898-3.576-7.791-4.921-3.431-0.354-5.657 2.45-7.792 2.05 0.167-3.046 4.5-2.94 6.561-2.87-0.064-2.19-2.694-3.481-4.511-4.511-7.266-4.116-15.333-8.108-27.474-7.792-0.393-2.477-2.145-3.596-3.69-4.92-4.888-0.902-9.338-1.619-13.942-0.41-1.938 0.509-3.777 2.611-5.741 1.23-0.183-1.788 1.664-2.147 3.28-2.871 4.965-2.221 15.649-1.88 20.503 1.23 0.38 1.536 1.673 2.156 2.051 3.692z"/>
	<path d="m7.066 24.389c0.445 0.102 0.278 0.815 0.82 0.82-0.176 1.135-1.29 0.021-0.82-0.82z"/>
	<path d="m31.67 39.972c0.365 0.318 0.926 0.441 1.64 0.41-0.049 1.181 0.224 2.684-0.41 3.28-2.435 0.5-2.5-2.82-1.23-3.69z"/>
	<path d="m50.123 41.612c-5.139 0.056-8.441 1.948-9.432 6.151-1.899-0.505-0.809-2.41-0.82-4.101 1.67-0.644 3.772-3.102 6.971-3.28 1.206-0.068 3.354-0.506 3.281 1.23z"/>
	<path d="m219.07 52.273c-1.047 3.866-6.154 2.674-9.021 1.23 0.749-1.996 0.221-1.919 0.41-3.281 3.4-1.406 6.71 0.609 8.61 2.051z"/>
	<path d="m149.36 88.359c0.97-3.814 4.432-5.137 5.331-9.021-1.767-2.299 0.111-4.37 0-6.561-0.259-5.079-4.202-10.472-8.202-13.532-2.964-2.268-7.089-2.875-9.841-4.921v-1.23c0.332-0.078 0.409-0.412 0.82-0.41 11.217 3.211 22.041 13.172 19.273 28.294-0.6 3.279-3.43 7.898-7.38 7.381z"/>
	<path d="m223.17 80.568c-0.938-1.796 0.622-3.071 1.23-4.511-1.671-0.339-1.412-0.062-3.28 0-0.484-4.164-0.31-8.985-2.871-11.071 0.437-2.57 0.902-2.965 0-5.331 1.191-1.133 1.306-3.341 2.871-4.101 3.905 1.301 8.746 4.064 9.841 8.611 0.616 2.555 0.585 7.485-0.41 9.841-0.517 1.225-2.042 1.783-2.87 2.871-0.89 1.168-1.08 4.714-4.51 3.691z"/>
	<path d="m59.554 77.288c-4.124-1.633-6.989-6.761-11.892-8.611-3.608-1.362-8.719-1.66-13.122-2.05-0.843-0.075-2.633-0.106-3.28 0-2.95 0.484-4.593 3.321-7.792 2.87 0.125-2.609 3.393-2.075 4.101-4.101 4.621-0.688 10.007-0.755 14.762 0 1.212 0.193 2.194 0.946 3.28 1.23 1.965 0.514 4.314 0.294 6.151 1.23 1.706 0.869 3.542 2.907 4.921 4.101 1.492 1.291 4.421 3.101 2.871 5.331z"/>
	<path d="m100.15 77.288c-3.185-0.255-2.827-3.449-4.921-4.921-0.817-0.574-2.787-0.515-4.921-1.23-0.955-0.32-1.83-1.144-2.46-1.23-3.8-0.518-11.326 0.493-14.763 0.41 1.913-2.66 6.313-2.7 9.842-2.46 4.357 0.296 8.781 2.262 12.302 2.46 1.686 2.055 5.801 3.701 4.921 6.971z"/>
	<path d="m64.475 92.05c-4.141-2.895-7.706-9.853-13.942-11.072-3.088-0.604-6.594 0.779-9.432 0.82 0.775-2.353 4.413-2.889 6.151-2.871 5.036 0.053 9.854 3.644 13.122 6.561 2.197 1.961 5.22 4.304 4.101 6.562z"/>
	<path d="m161.25 79.338c5.459 0.454 8.945 5.583 11.892 10.251 2.897 4.591 5.939 13.255 5.331 21.733-0.333 4.641-2.088 12.616-6.971 12.302 1.17-4.62 4.298-8.758 4.511-14.352 0.362-9.543-3.79-18.705-8.202-24.194-2.72-1.375-5.37-2.826-6.56-5.738z"/>
	<path d="m117.78 93.28c-6.47-4.872-12.52-10.165-23.78-10.252-0.698 0.151-0.774-0.32-0.82-0.82 7.604-1.465 12.527 1.676 17.633 4.51 2.97 1.651 7.26 2.922 6.97 6.562z"/>
	<path d="m212.1 87.539c0.675 2.961-2.067 7.949-5.331 6.971 1.83-2.269 2.37-5.833 5.33-6.971z"/>
	<path d="m230.96 94.92c0.126 2.177-1.771 2.329-3.69 2.46-0.18-2.227 1.44-2.663 3.69-2.46z"/>
	<path d="m123.11 123.62c-1.63-1.238-0.286-3.997-0.41-6.561-0.366-7.547-4.081-14.433-9.021-17.632-0.067-0.477 0.09-0.73 0.41-0.82 0.331-0.284 1.124-0.638 1.23 0 5.275 2.565 10.226 12.777 9.841 20.503-0.06 1.29 0.21 4.23-2.05 4.51z"/>
	<path d="m417.95 100.25c3.374 0.671 6.268 8.014 1.23 9.021 0.113-1.664 1.304-2.25 0.82-4.511-1.502 0.002-0.602 2.406-2.461 2.05 0.62-2.37-0.06-4.85 0.41-6.56z"/>
	<path d="m226.04 100.66h1.23c2.754 7.141-5.056 9.755-3.69 14.352-1.082 0.125-1.058-0.856-1.23-1.64-3.341 1.886-10.076 4.953-13.942 2.46 0.455-1.322 2.256-1.297 4.101-1.23 2.884-1.248 5.597-1.191 7.791-2.87 1.985-1.519 2.203-3.985 4.101-5.741-0.4-2.72 1.28-3.37 1.64-5.33z"/>
	<path d="m415.9 101.07c2.007 1.454-0.111 5.534-1.641 6.151-0.83-1.8 0.01-5.44 1.64-6.15z"/>
	<path d="m68.575 124.86c17.346-0.119 34.942-0.116 52.898 0.82-3.382 1.548-7.95 0.896-12.712 0.82-11.805-0.188-26.303-0.678-40.596-0.41-1.44 1.431-1.381 4.36-2.871 5.741 1.61 4.809 3.452 9.986 2.05 14.763-0.324 1.103-1.13 2.422-1.64 3.69-1.992 4.95-2.554 5.402-6.561 9.021-3.625 3.274-6.68 5.931-11.892 7.791-2.321 0.829-5.315 2.166-7.381 0.82-0.394-2.718 2.69-1.957 4.921-2.05 7.666-2.586 13.333-7.17 18.042-12.712 0.077-2.658 1.512-3.956 2.46-5.741 0.506-5.906 0.274-9.914-2.05-14.352 0.47-2.613 2.63-4.104 2.871-6.561 0.425-4.352-3.323-11.833-7.381-14.352-1.917-1.19-4.238-0.537-5.331-2.46v-1.23c10.056-1.17 12.054 9.26 15.174 16.4z"/>
	<path d="m210.05 121.16c0.773 4.438-8.067 6.026-8.201 1.23 1.432-1.227 2.183 0.853 4.101 0.41 2.04 0.13 1.56-2.26 4.1-1.64z"/>
	<path d="m399.5 124.44c1.071-0.114 2.053-0.139 1.641 1.23-1.08 0.12-1.77-0.15-1.64-1.23z"/>
	<path d="m178.47 132.65c-0.836 1.505-3.93 0.808-6.151 0.82-31.021 0.167-66.078 0.695-96.365 0-1.709-0.04-4.307 0.741-5.741-0.82 33.581 0.532 62.869-1.539 95.955 0 4.26 0.19 8.6-0.98 12.3 0z"/>
	<path d="m193.64 135.93c-1.674 2.091-6.243 1.072-9.841 1.23-12.112 0.533-24.996 2.012-36.906 1.64 1.321-2.003 4.015-1.179 5.741-1.23 6.832-0.202 12.101-0.413 17.632-0.82 7.08-0.52 15.08-1.89 23.38-0.82z"/>
	<path d="m194.46 135.93c1.685 1.208 4.257-0.999 5.331 0.82-0.611 2.622-3.273 0.681-5.331 1.641-0.8-0.77-0.12-1.51 0-2.46z"/>
	<path d="m145.67 137.98c0.663 2.166-2.571 2.037-2.46 0.41 0.48-0.47 1.45-0.47 2.46-0.41z"/>
	<path d="m141.98 138.39c-0.934 2.254-4.974 1.176-7.381 1.23-1.849 0.042-4.904 1.643-5.331-0.82 4.4 0.03 8.84 0.1 12.71-0.41z"/>
	<path d="m128.44 140.03c-2.641-0.097-5.059 1.203-7.792 0.41 0.39-1.7 6.71-2.52 7.79-0.41z"/>
	<path d="m103.02 140.85c-0.276 2.481-3.056 0.752-4.511 0.82-2.309 0.108-4.545 0.769-6.971 0.41 0.417-1.198 2.202-1.113 3.28-1.23 2.598-0.29 5.992-0.03 8.202 0z"/>
	<path d="m165.35 140.85c-0.16 2.313-3.972 1.035-6.151 1.23-1.992 0.178-3.863 0.99-5.741 1.23-10.513 1.343-20.529 1.541-31.575 2.46-17.705 1.475-35.496 4.372-52.898 4.921 1.649-1.924 4.708-1.438 6.971-1.641 13.409-1.2 26.548-2.245 41.417-3.69 8.99-0.874 19.041-1.54 30.345-2.87 5.755-0.678 11.965-1.057 17.223-2.051 0.35-0.08 0.39 0.16 0.41 0.41z"/>
	<path d="m87.438 141.67c-0.899 2.062-3.252 0.235-5.331 1.23-0.217-0.33-0.428-0.666-0.41-1.23 1.863-0.49 3.879-0.49 5.741 0z"/>
	<path d="m177.65 141.26h1.64c0.146 2.305-3.015 2.078-4.511 2.46-4.655 1.192-11.582 1.765-15.172 4.511-17.636 2.513-32.972 6.385-49.618 10.251-8.934 2.075-17.905 4.719-27.474 6.971-4.437 1.044-8.989 2.378-13.532 2.871 0.478-2.772 4.283-2.463 6.151-2.871 16.423-3.584 34.287-8.098 50.438-11.892 1.539 0.309 0.894-1.566 2.05-1.64 18.21-2.03 33.83-6.63 50.03-10.66z"/>
	<path d="m118.19 151.1c-1.075 1.38-3.13 1.642-4.92 2.05-2.451 0.559-4.585 0.795-7.792 1.23-8.344 1.132-16.894 4.051-23.374 4.511 0.042-3.014 5.732-2.417 8.201-2.871 8.379-1.54 18.523-4.61 27.883-4.92z"/>
	<path d="m374.48 151.92c0.173-0.913 2.176-0.321 2.461 0-0.057 1.31-1.83 0.904-2.461 1.64-0.696-0.266-0.256-0.942 0.41-0.82 0.07-0.48-0.09-0.73-0.41-0.82z"/>
	<path d="m235.47 153.97h1.23c6.898 7.547 8.541 28.931-3.69 31.575-1.436 3.65-3.799 8.463-8.611 7.381 0.766-3.608 6.246-2.502 5.331-7.791 2.086-1.264 4.091-1.739 5.741-3.281 6.503-6.074 4.61-19.573 0-26.244-0.68-0.81 0.04-0.52 0-1.64z"/>
	<path d="m97.28 183.49c0.588-3.159 3.379-2.118 4.921-4.51 1.4-2.172 1.599-6.85 0-9.842-0.977-1.828-3.2-2.079-3.69-4.101-0.067-0.477 0.09-0.729 0.41-0.82 8.21 0.75 8.88 20.57-1.64 19.27z"/>
	<path d="m196.92 163.81c6.619 3.372 2.395 13.679-3.281 15.172-0.578-4.269 4.197-4.944 4.511-8.202 0.26-2.66-3-4.31-1.23-6.97z"/>
	<path d="m56.684 169.55c0.662-0.116 0.706 0.388 1.23 0.41 3.974 6.479-0.112 15.68-3.28 20.093h-3.281c3.147-3.56 6.775-9.976 6.151-16.403-0.152-1.56-1.685-2.46-0.82-4.1z"/>
	<path d="m255.98 170.37h1.23c1.125 4.049-1.486 7.769-5.741 7.791 1.27-2.83 4.68-3.51 4.51-7.79z"/>
	<path d="m448.29 176.11c-0.608 1.841-4.062 3.84-5.741 2.05 0.09-2.34 4.07-2.62 5.74-2.05z"/>
	<path d="m114.91 237.62c8.859-2.35 17.604-4.812 21.733-11.893 0.297-1.254-0.708-1.206-0.41-2.46 2.162-1.938 3.357-4.845 5.741-6.561 3.554-6.781 5.2-19.687 2.051-28.295 1.343-0.942 1.937 1.7 3.28 2.05 1.467 8.194 1.574 15.46-0.82 22.143-0.996 2.78-2.695 5.102-4.101 7.792-1.353 2.59-3.816 3.53-4.511 5.74-0.729 2.321-3.159 5.863-5.331 7.382-2.546 1.779-5.387 1.211-7.792 4.101-3.57 0.05-8.24 3.93-9.84 0z"/>
	<path d="m242.85 188.42c1.739-0.536 2.213 2.285 0.82 2.46-1.31 0.11-1.49-1.8-0.82-2.46z"/>
	<path d="m189.54 190.88c0.663-0.116 0.706 0.388 1.23 0.41-0.209 1.158-0.992 1.742-1.23 2.871 0.4 6.687-3.153 9.422-5.331 13.532-5.38 2.022-10.135 9.266-17.223 5.74 1.432-2.227 4.218-0.697 6.151-1.229 1.336-0.368 4.584-2.725 6.561-4.101 1.529-1.065 3.635-2.6 4.511-3.691 3.22-4.01 1.91-9.64 5.33-13.53z"/>
	<path d="m233.01 194.98h0.82c1.889 0.593 1.298 3.19 1.23 4.511-0.315 6.148-4.123 10.259-7.791 13.941-3.693 3.708-7.149 5.437-12.302 8.201-5.945 3.19-13.087 5.438-21.733 3.281-1.798 0.662-2.835 2.085-4.101 3.28 2.919 0.322 3.299-1.895 5.741-2.051 1.077 3.974-2.777 5.757-6.971 5.741-1.052-0.588-1.833-1.448-2.871-2.051-5.006 0.764-11.736 5.682-15.582 0.41-1.257 1.441-6.039 2.149-6.151-0.819 1.87-0.641 4.451 0.616 5.331-1.641 1.977 0.348 2.659 1.989 4.101 2.87 3.495 0.995 5.258-1.316 7.381-2.05 2.93-1.013 6.229-0.579 8.611-2.461 1.402-0.921 1.704-2.942 3.69-3.28 0.872 1.207 1.527 0.085 2.46 1.23 8.033 0.337 13.851-1.479 19.273-4.511 1.032-0.577 1.852-1.483 2.871-2.051 2.456-1.367 5.871-2.629 7.791-4.511 0.573-0.561 1.221-1.853 2.05-2.87 2.688-3.295 5.599-7.35 5.741-13.942-0.12-0.67 0.39-0.71 0.41-1.23z"/>
	<path d="m250.64 196.21c0.539 0.145 0.645 0.722 1.23 0.82-0.063 2.611 0.018 9.334-2.05 12.712-0.609 0.996-2.227 2.083-3.28 3.28-2.837 3.227-3.339 3.324-6.971 5.741-1.273 0.848-2.174 2.229-3.28 2.87-2.122 1.23-4.88 1.682-7.381 2.461-2.232 0.695-4.978 2.624-6.971 0.82-0.288-2.202 2.246-1.582 4.101-1.641 8.544-2.493 17.887-8.16 22.144-15.172 1.75-2.88 0.57-8.1 2.46-11.89z"/>
	<path d="m449.94 198.26c1.296-0.065 2.475-0.015 2.87 0.82-0.2 2.23-4.45 1.06-2.87-0.82z"/>
	<path d="m167.4 200.72c0.976 4.992-3.303 10.026-6.561 12.712-3.127 2.578-6.002 3.75-7.792 1.641 0.15-2.037 3.417-0.957 4.511-2.051 2.805-2.116 5.337-4.504 6.971-7.791-0.462-2.376 0.845-2.982 1.23-4.511h1.64z"/>
	<path d="m454.86 206.05c-0.274 1.366-1.055 2.227-2.871 2.051-1.18-1.66 1.21-3.34 2.87-2.05z"/>
	<path d="m194.06 209.33h1.23c1.525 3.917-2.617 5.534-3.691 8.201-2.739 0.438-6.992 3.607-7.791-0.819 5.62 1.12 8.93-2.9 10.25-7.38z"/>
	<path d="m109.17 210.15c-0.782 6.343-5.858 9.674-11.482 12.302-4.454 2.082-11.956 5.161-17.223 2.871-1.75 3.308-3.282 6.832-4.921 10.251 1.343 5.589-2.149 11.171-6.151 15.173-5.791 5.79-13.322 9.678-22.553 10.661-7.089 0.755-11.204-0.384-16.403-2.87-2.095-1.002-5.608-1.961-5.741-4.511 4.279 0.86 7.386 4.911 13.122 5.741 8.476 1.226 18.205-1.455 24.194-5.741 2.282-1.633 4-3.552 6.151-5.741 2.774-2.822 6.018-7.093 4.511-12.712 1.386-4.55 4.882-7.561 4.51-12.712 4.421 0.345 8.569 2.098 13.942 0.41 1.164-0.365 3.08-1.565 4.921-2.46 2.752-1.339 4.885-2.117 6.971-4.101 1.581-1.504 2.918-3.903 3.69-6.562h2.46z"/>
	<path d="m456.5 212.61c0.126 2.426-2.785 3.62-4.921 2.461-1.204 0.162-0.354 2.38-2.46 1.641-0.538-2.042 1.263-1.745 1.23-3.281 2.75 0.44 3.83-0.81 6.15-0.82z"/>
	<path d="m156.33 222.86c1.414 3.624-7.15 8.425-9.021 3.69 3.493-0.334 6.828-0.827 7.791-3.69h1.23z"/>
	<path d="m244.49 226.96c0.609 0.484 1.832 0.355 1.64 1.641-0.539 0.526-1.512 0.526-2.05 0-0.05-0.73 0.5-0.86 0.41-1.64z"/>
	<path d="m182.57 235.98c-0.714 11.633-10.59 19.715-22.554 20.093-0.917 1.27-2.758 1.617-4.921 1.641-0.643-0.557-2.461-0.825-1.23-2.051-6.41-0.014-10.275-2.573-13.942-5.33 0.335-2.204-0.688-3.503 0-4.921 4.255 0.344 7.944 1.217 12.302 1.64 7.048 0.686 8.782-0.535 15.172-3.28 3.65-1.567 8.055-2.753 9.841-4.921 1.092-1.324 0.557-3.717 2.05-4.511 1.25 0.4 2.19 1.1 3.28 1.64z"/>
	<path d="m163.3 236.8c2.109 3.293-3.628 6.368-7.381 5.741-2.081-0.349-3.719-2.453-4.511-3.691 2.47-0.438 5.308 0.675 8.611-0.41 1.72 0.08 1.27-2.01 3.28-1.64z"/>
	<path d="m65.295 246.64c-3.242 4.823-7.424 6.34-15.583 7.381-5.166 0.659-11.948-0.271-17.633-2.051-4.13-1.293-6.151-3.055-9.431-4.511-0.233-1.544-1.391-2.162-2.46-2.87-0.067-0.477 0.09-0.729 0.41-0.82 0.365-0.252 0.733-0.495 0.82 0 3.52 1.206 6.182 4.509 9.842 6.151 4.698 2.108 13.297 2.881 20.913 1.641 1.995-0.325 4.118 0.138 5.741-0.41 2.813-0.95 3.891-5.02 7.381-4.51z"/>
	<path d="m132.14 247.87h0.82c2.993 2.201 5.309 5.079 9.021 6.562-0.106 1-2.409 0.896-2.87 0.82-2.99-0.49-6.93-3.75-6.97-7.38z"/>
	<path d="m88.258 250.74c1.332 2.902-4.841 8.345-6.151 3.69 3.678 0.4 2.718-3.84 6.151-3.69z"/>
	<path d="m345.78 254.44c0.951-0.131 1.574 0.065 2.05 0.41-0.246 0.847-0.634 1.553-2.05 1.229v-1.64z"/>
	<path d="m132.54 254.84c3.422-0.142 3.865 2.696 5.331 4.511-2.72-0.55-4.59-1.96-5.33-4.51z"/>
	<path d="m100.97 256.08c0.407 3.709-5.26 4.894-6.151 1.641 2.51-0.09 3.809-1.39 6.151-1.64z"/>
	<path d="m93.589 261h1.23c1.234 1.285 0.461 2.851-0.41 4.101-0.383 6.281-3.001 10.942-5.741 15.173-0.96 1.482-1.562 3.305-2.46 4.511-3.83 5.144-9.758 7.855-15.172 11.481-2.586-0.399-3.274 1.1-5.741 0.82-4.042 3.75-8.7 6.882-14.762 8.611 1.479 2.632 3.249 5.378 4.921 8.201 1.612 2.722 3.141 5.301 4.51 8.201-0.267 1.511-2.438 1.115-3.69 1.641-1.711-4.03-4.023-7.459-5.741-11.482h-2.871c0.927 4.678 4.996 6.213 5.741 11.072-5.157 0.099-7.58-2.536-11.892-3.28-1.347-1.66-2.226-3.789-4.921-4.101 0.327 3.609 6.893 6.979 11.072 9.021 2.072 1.013 5.96 0.777 8.201 2.051 2.011 4.119 2.774 8.695 4.101 13.122 0.466 1.555 1.469 2.903 2.051 4.511 0.597 1.65 0.674 3.613 1.23 5.331 0.343 1.059 1.223 1.782 1.64 2.87 2.095 5.461 3.137 11.253 5.331 16.402 0.704 1.653 1.826 2.964 2.46 4.511 0.711 1.735 0.887 4.074 1.64 5.741 0.84 1.86 1.757 3.674 3.28 4.921 0.144-2.521-1.91-4.597-2.87-6.972-0.189-0.467 0.2-1.178 0-1.64-1.184-2.736-3.971-7.352-4.921-10.662-0.181-0.63 0.191-1.424 0-2.05-2.193-7.183-4.817-14.544-7.381-21.323-0.335-6.438-3.698-10.146-4.511-15.173 0.596-0.634 2.1-0.361 3.281-0.41 6.499 15.918 9.272 35.562 17.633 49.618-0.441 2.218 1.112 2.441 0.82 4.511 3.905 4.445 7.325 11.521 7.792 18.042-2.641 0.454-2.735-1.639-4.101-2.46 0.121 2.011-2.157 3.765-3.691 5.331-1.773-0.277-3.241-0.859-4.101-2.051-0.526-0.538-0.526-1.512 0-2.05-13.327-19.479-20.347-45.263-32.805-65.61-2.783 1.793-0.013 4.617 1.23 6.971 2.2 4.166 3.617 8.97 6.561 12.302 1.268 4.791 2.623 9.327 4.101 13.532 3.651 10.39 10.84 17.875 15.583 27.064-1.556 1.861-2.053 4.782-4.921 5.331-3.492-1.156-4.146-5.148-6.971-6.972-2.797 2.074-2.222 9.415-6.971 8.202-0.188-2.923 2.49-2.978 2.871-5.331 0.012-1.38-1.898-0.836-2.46-1.641 0.992-1.059 1.469-2.632 2.46-3.69 1.472-0.241 0.011 2.449 1.64 2.051 3.063-2.152-2.386-4.851-4.101-6.151-0.303-1.2-0.992-2.016-1.64-2.87-1.273 2.007-4.625 1.937-6.151 3.69h-2.871c-2.153 1.537-2.42 4.96-4.92 6.15-3.712 0.517-4.404-2.361-7.381-0.41-0.412-0.817-1.813-0.646-1.64-2.05-2.127 0.62-6.782 4.596-8.201 0.82 0.05-2.273 3.455-1.192 4.51-2.461 0.525-1.618-1.194-0.992-1.23-2.05-0.142-2.192 2.214-1.888 2.46-3.69-4.647 0.843-7.171 7.3-9.842 11.481-0.825-0.456-2.389-1.253-1.23-2.46-2.587 1.514-5.112 3.089-9.841 2.46-1.371-1.54-2.604-2.528-2.46-4.511 0.106-1.467 1.137-1.099 2.05-2.46 0.569-0.851 0.067-1.778 0.41-2.461 0.482-0.959 2.519-2.366 2.87-2.46 3.619-0.97 8.553 2.206 3.691 5.74-1.551-0.772-0.334-4.312-3.281-3.69 1.093 1.095 2.417 2.079 0.41 3.28 1.602 0.448 1.991 2.11 3.69 2.461 4.048-1.283 5.482-5.18 7.792-8.201 4.253 0.699 4.158-2.949 8.201-2.461 0.185 3.876-1.164 6.218-2.05 9.021 4.378-0.303 3.216-8.22 8.201-6.561 0.767 2.763-3.371 3.949-4.101 6.561 2.417 2.55 3.077-3.012 5.741-2.87 1.313 1.821-1.234 2.697-1.23 4.511 3.184 0.45 3.401-2.066 4.92-3.28-0.528-2.342-3.162-2.579-3.69-4.921 2.007-2.339 6.708-0.943 6.561 2.46 3.372 0.229 4.793-1.494 6.561-2.87-0.214-2.389-2.001-4.461-3.28-6.151-2.587-3.417-5.098-6.9-7.792-10.251-1.848-0.859-3.295 0.296-4.511 0-5.241-1.277-3.902-9.183-7.791-12.302-3.207 1.167-3.882 4.865-6.151 6.971-6.501-2.633-0.386-13.304-8.611-11.892-2.787 0.478-6.963 7.854-9.842 2.05-0.429-14.686 0.761-27.179 0.41-38.956 2.867 1.097 6.546 1.382 8.611 3.28 5.053 0.036 7.951-0.472 11.892-2.05 4.302 1.19 8.654 4.434 14.352 2.87-1.286-2.715-6.61-0.902-9.432-2.87-2.55-4.283-10.679-7.531-11.481-12.712-0.129-0.83 0.808-0.947 0.82-1.23 0.008-0.192-0.765-0.964-0.82-0.82 0.469-1.229 1.646-1.369 2.46-2.46 4.62 1.805 4.674 8.175 10.662 8.611-0.783-1.41-3.081-4.843-4.101-7.381 4.132 1.295 10.668 2.208 13.122-1.23 3.367-0.194 5.921 0.379 8.202-0.41 1.943-0.672 2.482-2.781 4.51-2.87 2.317 3.637-2.193 6.2-3.69 8.611 3.263 0.997 6.984-4.749 9.842-2.871-2.621 3.29-8.06 3.113-13.122 4.921-1.048 0.374-1.845 1.345-2.871 1.641-2.119 0.61-4.65-0.085-6.151 1.23 3.112 0.782 6.515 1.419 9.841 0.819 0.678-0.122 1.766-0.773 2.46-0.819 0.612-0.041 1.368 0.502 2.05 0.409 0.801-0.108 1.33-0.744 2.05-0.819 0.748-0.079 1.744 0.599 2.46 0.41 3.62-0.955 8.429-5.179 11.072-7.792h3.28c5.752-2.253 11.493-4.903 15.583-9.431 2.062-2.283 4.546-5.591 6.151-8.611 2.301-4.32 2.637-10.56 5.333-15.98zm-49.617 46.74c0.592 1.458 1.865 2.236 2.871 3.281v-4.101c-1.272-0.04-1.96 0.5-2.871 0.82zm-4.511 73.81c0.115-0.935-0.099-1.541-0.82-1.64-0.646 0.61-0.457 1.84 0.82 1.64zm43.467 13.95c0.02-1.25-0.373-2.088-1.23-2.46-0.221 1.45 0.347 2.11 1.23 2.46z"/>
	<path d="m478.23 265.92c-2.585 3.155-6.056 5.427-9.432 7.791-1.211 1.112-1.51 3.138-4.101 2.871-1.101-3.48 3.387-4.402 3.69-7.791 3.72-0.21 6.64-4.79 9.84-2.87z"/>
	<path d="m84.158 266.33c1.119-0.299 0.826 0.814 1.64 0.82-0.348 1.147-0.652 3.038-1.64 4.101-3.254 3.501-12.813 4.906-15.583 0.82 7.149 0.04 12.696-1.52 15.583-5.74z"/>
	<path d="m74.316 268.79c-1.445 0.824-4.604 0.382-4.921-1.23 1.244-0.63 4.773-0.55 4.921 1.23z"/>
	<path d="m30.85 285.19c-6.31 0.166-11.426-1.174-15.583-4.101 0.047-4.055 0.909-7.293 4.511-7.792 2.405 5.25 8.16 7.15 11.072 11.89z"/>
	<path d="m2.145 275.76c2.505 2.049 2.063 5.983 3.281 9.021 1.438 3.587 4.871 6.584 6.971 9.842-2.622 1.233-6.499-0.071-8.202-1.23-4.659-3.172-4.354-11.258-3.28-17.633h1.23z"/>
	<path d="m102.61 276.99h0.82c3.79 3.939 7.189 11.147 15.993 9.431 1.513-0.295 2.313-1.402 3.69-1.229 0.449 3.071-8.575 4.547-13.122 2.87-1.449-0.534-5.139-4.093-5.741-5.741-0.142-0.388 0.367-0.907 0.41-0.82-0.96-1.94-2.34-2.82-2.05-4.51z"/>
	<path d="m40.281 279.45c-0.229 1.002-0.962 1.498-1.641 2.05-1.119 0.299-0.825-0.814-1.64-0.819-0.769-2.69 2.841-3.22 3.281-1.23z"/>
	<path d="m53.403 280.27c0.979 5.809-7.548 7.41-10.662 4.101 3.817-0.694 8.087-0.936 9.021-4.511 0.737-0.05 0.866 0.5 1.641 0.41z"/>
	<path d="m479.87 281.5c0.596 0.225 2.119-0.479 2.05 0.41 0.31 1.56-2.66 0.89-2.05-0.41z"/>
	<path d="m15.267 282.32c3.52 2.539 6.088 4.65 11.072 4.511 1.653-0.046 3.704-1.4 5.331-1.229 2.907 0.305 4.593 3.161 6.151 4.92-2.669 0.202-3.972 1.77-5.741 2.871-8.395-0.84-16.68-3.24-16.813-11.07z"/>
	<path d="m1.735 294.21c0.662-0.116 0.706 0.387 1.23 0.41 0.359 1.144 0.981 2.025 1.23 3.28 2.021 3.584 6.859 4.35 9.432 7.381-2.274-0.498-2.491 1.062-3.69 1.641-5.331 0.683-5.691-3.604-9.432-4.511 1.108-2.03-0.505-6.79 1.23-8.2z"/>
	<path d="m119.01 295.03c-0.079 2.655-1.74 3.729-4.511 3.691 0.35-2.39 2.23-3.24 4.51-3.69z"/>
	<path d="m112.86 295.85c0.499 2.96-1.03 3.891-2.46 4.921-1.201 1.123-1.615 3.033-4.101 2.87 0.947-3.427 4.543-4.204 5.331-7.791h1.23z"/>
	<path d="m130.5 299.13c-0.466 2.541-1.875 4.141-4.101 4.921 0.127 1.631-0.947 2.061-0.82 3.69-4.566 4.714-10.091 9.8-20.093 10.252-4.214 0.19-9.195 0.487-13.122 0.41-5.176-0.102-10.924-1.741-14.762-4.101-0.594-0.365-0.917-1.22-1.64-1.641-2.051-1.192-5.035-2.117-4.101-5.33 2.341-0.735 4.118 2.367 5.331 4.101 3.847 2.371 7.118 4.854 14.353 5.33 3.862 0.254 8.832-0.623 13.122-0.819 2.992-0.138 5.381 0.15 7.381-0.41 5.607-1.572 8.925-6.381 11.482-8.611 0.239-4.408 3.779-5.517 5.741-8.201 0.66-0.11 0.7 0.39 1.23 0.41z"/>
	<path d="m446.24 300.77c1.118-0.299 0.825 0.814 1.64 0.82-0.441 1.335-1.423 2.131-1.64 3.69h-1.641c-0.81-1.43 1.12-3.1 1.64-4.51z"/>
	<path d="m95.64 302c1.017 4.925-6.753 3.704-9.432 1.64 1.583-1.835 6.598-0.236 8.201-2.05 0.33 0.22 0.666 0.43 1.231 0.41z"/>
	<path d="m144.44 302.41c-1.527 1.946-4.063 4.88-6.971 4.101 1.67-1.8 4.74-4.2 6.97-4.1z"/>
	<path d="m303.54 303.23c-0.612 0.651-2.337 0.601-2.05-0.819 0.61-0.65 2.34-0.6 2.05 0.82z"/>
	<path d="m429.02 306.1h1.229c1.871 6.248 6.479 12.45 6.562 20.093-2.131-0.921-1.495-3.301-2.051-4.921-1.586-4.624-4.859-8.742-5.74-13.941-0.73-0.3-0.06-0.74 0-1.23z"/>
	<path d="m437.63 307.33c1.223 1.271-1.332 1.078-1.23 2.46 0.169 1.607 1.95-0.405 2.87 0.82-1.221 4.608 3.401 6.265 2.871 11.481-3.599-0.775-2.342-6.407-4.511-8.611h-2.461c0.436-2.076-1.212-2.068-1.64-3.28 0.34-1.98 2.26-2.38 4.1-2.87z"/>
	<path d="m402.37 308.15c0.144 2.604-4.817 0.104-5.331 2.051-0.835-1.558-2.722 0.34-4.101-0.82v-1.23c2.56-0.49 6.96 0.02 9.43 0z"/>
	<path d="m305.18 308.15c1.072-0.115 1.764 0.15 1.64 1.23-1.07 0.12-2.05 0.14-1.64-1.23z"/>
	<path d="m112.86 313.07c-0.308 1.742-3.019 1.082-4.921 1.23 0.48-1.34 4.12-2.81 4.92-1.23z"/>
	<path d="m392.94 314.3c-2.089-0.45-3.646 1.117-4.511-0.41 0.24-2.09 4.54-1.38 4.51 0.41z"/>
	<path d="m413.85 313.48c-3.175 3.234-11.424 1.449-15.582 1.641-0.217-0.33-0.428-0.666-0.41-1.23 4.53-0.93 10.78-0.15 15.99-0.41z"/>
	<path d="m433.53 322.1c-1.559-0.082-2.918-0.363-4.101-0.82-0.22-1.996 1.635-1.919 2.05-3.28 1.5 0.55 1.3 2.8 2.05 4.1z"/>
	<path d="m408.52 321.68c-2.046 2.833-7.332 0.573-11.481 1.23-1.316 0.359-0.851-1.063-1.641-1.23-1.468 0.113-3.187 1.435-4.511 0.41 2.272-2.9 7.001-0.644 11.072-0.41 2.4 0.14 4.44-0.3 6.56 0z"/>
	<path d="m150.59 333.99c-5.304-1.684-8.626-7.48-9.431-12.302 3.983 1.252 4.461 5.695 7.791 8.201 0.31 0.23 1.33 3.26 1.64 4.1z"/>
	<path d="m116.55 324.56c-0.394 1.445-2.277 2.985-4.101 4.51-2.265 1.896-5.845 5.203-9.431 5.741-2.075 0.312-3.741-0.592-5.741-0.82-3.009-0.344-8.62 0.926-8.611-3.28 1.293-1.088 2.278 0.758 3.281 1.23 4.994-0.257 8.291 1.272 11.892 0.41 5.12-1.23 7.5-6.82 12.71-7.79z"/>
	<path d="m436.81 328.66c2.305 0.123 3.061 3.631 2.46 5.33-2.16-0.27-3.68-3.02-2.46-5.33z"/>
	<path d="m400.32 330.71c2.649 0.222 6.217-0.476 8.201 0.41-1.422 2.359-5.598 2.079-8.201 1.23v-1.64z"/>
	<path d="m144.85 332.76c0.188 1.281-0.876 1.311-2.05 1.229v-1.229c0.54-0.53 1.51-0.53 2.05 0z"/>
	<path d="m437.63 333.99c0.198 1.565-0.117 2.618-0.82 3.281-1.021 0.062-1.27-0.645-2.051-0.82-0.33-2.57 0.9-3.19 2.87-2.46z"/>
	<path d="m410.57 335.22c-0.31 1.972-4.475 3.678-6.151 1.641 0.48-2.11 3.76-1.44 6.15-1.64z"/>
	<path d="m481.1 336.45c1.574 0.749 2.523 2.123 3.28 3.69h-2.051c-0.24-1.4-1.13-2.16-1.23-3.69z"/>
	<path d="m531.13 343.42c-6.5 10.048-21.446 13.487-36.086 11.892-1.984-0.216-4.214-0.639-5.74-2.05 1.175-1.479 3.093-0.377 4.511-0.41 9.612-0.224 21.583-0.532 29.524-4.921 2.525-1.396 4.333-3.455 6.561-4.921 0.67-0.12 0.71 0.39 1.24 0.41z"/>
	<path d="m513.08 349.16h1.23v1.23h-1.23v-1.23z"/>
	<path d="m134.19 350.39h0.82c1.868 1.549 2.817 4.017 3.28 6.971-2.38-1.19-4.68-4.14-4.1-6.97z"/>
	<path d="m140.34 352.03c2.332 1.223 3.498 3.609 4.101 6.562-2.42-0.93-4.16-4.51-4.1-6.56z"/>
	<path d="m120.65 366.79c0.663-0.116 0.706 0.388 1.23 0.41 2.835 4.652 6.355 12.636 9.431 18.452 1.865 3.526 5.93 6.811 2.871 11.072-1.853-0.063-2.172-1.499-2.871-2.871-2.118-4.159-2.335-11.537-6.151-14.762-0.602-4.593-2.787-7.602-4.92-10.662-0.17-0.85 0.28-1.08 0.41-1.64z"/>
	<path d="m109.58 367.61c0.662-0.116 0.706 0.387 1.23 0.409 1.231 1.921 2.547 4.076 3.69 6.151 1.562 2.834 2.626 4.932 4.101 8.201 1.711 3.793 6.358 7.965 4.101 12.712-2.807-0.11-2.914-3.275-3.28-4.511-1.008-3.394-3.545-6.774-5.331-10.661-0.829-1.805-1.168-3.977-2.05-5.741-0.88-1.761-2.141-3.321-2.87-4.921-0.05-0.73 0.5-0.86 0.41-1.64z"/>
	<path d="m116.55 390.99c-0.446 1.467-1.227 2.601-1.64 4.101-2.751 0.477-1.576-1.765-2.05-2.87-3.143-7.321-7.068-15.177-10.251-22.554-0.067-0.477 0.09-0.729 0.41-0.82 0.365-0.318 0.926-0.44 1.64-0.41 4.06 7.42 7.32 15.63 11.89 22.55z"/>
	<path d="m98.92 370.89h1.23c2.678 6.036 7.838 13.394 9.841 20.913 0.455 1.708 2.285 5.124-1.23 5.331-1.849-0.194-0.932-1.933-0.82-3.281-3.38-7.27-6.43-14.89-9.02-22.96z"/>
	<path d="m117.78 371.3c0.33 0.217 0.666 0.428 1.23 0.41 1.146 2.635 2.026 5.235 3.281 7.791 1.858 3.786 5.751 7.121 4.92 11.892-3.105-0.312-3.404-3.431-3.69-6.561-1.099-2.592-4.01-3.372-3.69-7.382-0.77-1.78-3.15-3.83-2.05-6.15z"/>
	<path d="m91.129 372.94h1.23c2.682 6.067 5.508 11.988 8.202 18.043 1.496-0.983-0.36-3.432-1.23-4.511-0.89-3.442-2.405-6.863-3.69-9.842-0.468-1.085-1.892-2.022-1.23-3.28 3.286 0.679 2.585 5.344 5.331 6.562 0.816 2.412 2.202 5.672 3.69 8.611 1.46 2.881 3.797 4.589 0.82 7.791-1.817-0.78-1.342-3.853-2.46-5.331-0.305 1.812 0.327 3.448-0.41 5.331-1.262 0.306-0.788-1.126-2.05-0.82-1.643-6.968-5.008-12.214-6.971-18.863-0.277-0.952-1.362-1.098-1.64-2.05-0.174-0.85 0.281-1.08 0.41-1.64z"/>
	<path d="m600.02 359.41c2.16-0.067 4.389 1.582 6.971 2.051 3.237 0.587 7.821-1.124 6.972 3.69-5.475-1.634-12.707-1.509-15.993-5.331-0.678 0.558-2.392-0.334-4.101 0 1.119 0.042 1.148 1.857 2.051 2.461 1.105 0.738 3.238 0.528 4.921 1.229 2.764 1.153 5.269 3.15 7.381 3.691 1.904 0.487 4.23-0.564 5.741 1.229v3.281c-7.946-0.529-12.902-4.048-20.094-5.331-0.095 2.282 1.773 2.601 2.051 4.511-1.569 1.438-1.928 4.086-4.101 4.921 1.966 1.433 4.386 2.888 6.971 4.101 0.853 0.399 2.123 0.452 2.871 0.82 1.114 0.548 2.194 2.001 3.28 2.46 2.379 1.006 6.036 0.149 8.611 2.46-0.058 1.173-1.711 0.75-2.871 0.82 2.622 3.12 9.054 2.429 10.252 6.972-6.096 1.777-13.822 0.38-18.453-2.461-1.102 1.632-1.435 4.032-2.46 5.741-8.9 1.165-15.493 0.176-24.193-1.23-4.146 3.955-12.748 3.003-17.633 0.41-0.593-0.638-0.863-1.598-1.23-2.46-2.287 0.235-3.366-0.735-4.511-1.641-3.695 2.694-4.452 9.765-9.432 10.661-2.312 0.417-3.886-1.514-6.971-0.409-0.832-1.355-2.086-2.289-2.051-4.511 2.044-0.419 3.478 0.613 5.741 0 2.556-0.693 6.317-4.782 6.971-6.972 0.948-3.176-0.46-6.134-2.05-9.021-6.646 6.204-13.94 11.758-23.784 14.763-1.062 0.577-1.893 1.388-2.87 2.05-1.45-0.736-3.521-0.853-4.101-2.46 1.07-6.545 8.851-7.204 14.762-9.842 6.446-2.875 11.732-6.737 16.813-11.071 1.308-0.352 1.268 0.646 2.05 0.82 4.05-2.238 4.729-7.847 6.971-11.893 1.746-0.242 2.713 0.295 4.102 0.41-1.592-4.234-5.484-6.785-8.202-10.251-0.395-0.504-0.333-1.482-0.819-2.051-1.091-1.274-2.941-1.99-4.101-3.28-0.94-1.047-1.231-2.68-2.051-3.69-0.606-0.748-1.788-1.326-2.46-2.051-3.139-3.38-6.323-7.818-9.432-11.892-1.273-1.669-2.031-3.912-3.28-5.331-0.976-1.107-2.68-1.514-3.691-2.46-0.561-0.525-0.804-1.538-1.229-2.051-1.679-2.018-3.794-3.382-5.331-5.33-2.041-0.538-1.745 1.262-3.28 1.229-0.033 1.536 2.903 0.104 2.87 1.641-1.158 1.907-4.646 2.682-6.561 2.87-9.429 0.93-21.115-4.404-27.475-8.201-1.201 0.576-1.261 2.293-1.23 4.101 1.026 0.888 3.29 0.537 4.101 1.641 0.286 1.926-1.766 1.514-2.05 2.87 1.76 2.887 7.058 2.236 9.841 4.101-0.919 2.312-3.15 1.688-5.74 1.641 2.22 2.837 9.668 0.446 12.712 2.46-1.237 2.316-5.413 1.695-7.791 2.871 1.722 3.745 10.935-0.001 11.481 4.92-1.238 1.036-2.443-0.444-3.69 0.41-0.508 1.842 1.605 2.441 0.82 4.101-4.088-2.61-9.058-4.338-13.532-6.561-0.106 3.387 3.446 3.115 3.69 6.15-2.251 0.933-3.249-1.679-4.921-2.87-2.292-1.634-4.822-4.542-7.381-6.15-1.539 1.346-0.806 3.25-1.23 4.92-1.4 5.508-4.978 10.298-5.741 16.403 4.458 4.65 11.146 8.965 18.453 9.431-1.476 3.021-7.207 1.091-9.842 0.41 1.835 2.226 8.292 4.583 13.122 2.871-1.696 4.392-8.095 1.552-11.071 4.511 2.721 1.649 4.782 0.548 7.791-0.41 1.102-0.352 2.408-0.432 3.28-0.82 3.264-1.453 6.141-5.142 9.842-4.101-0.381 2.862-4.096 4.809-6.971 6.561-4.183 2.55-9.475 3.381-14.353 5.331-5.011 0.773-7.228-1.247-11.481-1.23-0.108 1.616 1.426 2.365 2.46 3.281 2.532 2.239 7.704 3.97 12.712 3.69 1.938-0.108 3.51-1.108 5.331-1.23 2.312-0.155 4.225 0.209 6.971-0.82 1.133-0.424 2.02-1.521 3.281-2.05 1.076-0.452 2.662-0.349 3.69-0.82 3.36-1.542 5.622-5.521 9.021-4.511 0.235 2.616-2.323 3.713-3.691 4.921-1.49 1.315-2.979 2.798-4.51 4.101 4.719-0.067 7.94-5.18 11.481-7.791 1.642-2.186 2.325-5.33 5.741-5.741 0.656 3.849-3.951 5.855-4.921 9.432 5.537-1.844 9.181-5.581 12.712-9.432 0.364 0.318 0.926 0.44 1.64 0.41 2.954-2.093 5.82-4.51 8.611-7.381 1.48-1.523 3.528-3.704 6.151-3.281 0.331 2.921-3.145 5.787-5.331 7.792-7.035 6.449-16.788 11.519-25.014 16.812-4.311-0.138-7.501 2.91-11.481 3.69-0.773 0.151-1.697-0.189-2.461 0-3.753 0.928-7.514 2.893-11.481 2.87-1.288-0.007-2.819-0.554-4.101-0.41-2.797 0.313-5.568 1.953-8.611 2.051-2.346 0.075-4.471-0.516-6.972-0.82-0.634 0.596-0.36 2.1-0.409 3.28-5.639 4.878-16.125 2.744-25.015 2.871-1.452 0.222-1.008-1.452-2.46-1.23-1.734-0.095-2.635 0.646-3.69 1.23-1.051-0.317-2.325-0.409-2.871-1.23-4.537 1.225-9.257 0.862-13.941 1.23-4.37 0.342-8.861 1.357-13.122 1.229-5.465-0.163-10.666-1.391-15.993-1.229-4.312 0.13-8.481 0.296-12.302 0.409-1.196 0.104-1.414-0.771-2.05-1.229-2.974 0.83-5.49 1.488-8.201 1.64 0.145-0.538 0.722-0.645 0.819-1.229-2.464 0.927-7.961 0.916-11.481 1.229-3.151 0.281-5.846-0.221-9.021-0.41-1.834-0.108-4.166-0.25-5.74 0-2.79 0.443-8.022 1.241-11.482 0-0.516 0.102-0.413 0.815 0 0.82-1.457-0.367-6.822 1.317-9.021-0.41 2.145-3.323 7.718-3.217 11.072-5.33-7.104-1.055-11.98 3.296-18.863 4.101-4.071 0.476-8.406-0.403-13.532-0.41-4.51-0.007-9.109 0.741-13.942 0.82-17.904 0.289-37.584-0.583-56.179-1.641-7.923-0.451-16.097-0.834-25.424-0.41-14.078 0.64-28.631-0.896-39.776 0.82-1.379-0.808-2.055-2.319-2.87-3.69-1.466-1.167-1.371 1.968-2.46 2.46-2.263-0.607-1.652-4.089-3.281-5.331-0.532 1.684 0.472 4.776-1.23 6.151-1.579-0.198-1.583-1.972-2.871-2.461-1.057 0.584-0.614 2.667-2.05 2.871h-2.05c-1.391-1.069-1.701-3.22-2.871-4.511-1.038 1.422-0.569 4.352-2.87 4.511-0.488-1.29-1.384-2.17-1.64-3.69-2.335 0.398-2.323 3.145-3.691 4.511-2.465-0.82-2.532-3.569-3.69-5.331-2.405-3.657-6.242-6.768-6.561-12.302-2.045-3.288-5.04-7.806-5.331-11.482 2.174 2.161 2.849 5.23 4.51 7.792 1.476 2.274 3.251 4.44 5.331 6.561-0.767-4.757-2.999-8.9-4.921-12.712-1.958-3.884-4.906-7.454-4.92-11.892 2.14 1.245 3.025 3.947 4.101 6.15 3.054 6.262 6.163 13.705 9.841 20.094 0.75-0.618 0.965-1.77 1.64-2.461-2.898-5.778-4.984-13.537-8.201-19.683-0.957-1.827-2.992-3.56-2.46-5.741 2.014 0.588 3.181 3.164 4.101 4.921 2.842 5.43 5.435 12.022 8.611 17.633 0.374-3.75-1.648-7.14-2.87-10.662-1.206-3.472-3.128-6.837-3.691-10.661 3.28 1.231 2.768 6.253 5.331 8.201 2.534 8.811 7.458 15.232 11.892 22.144-0.337-4.957-2.355-8.328-4.101-12.712-1.156-2.905-3.17-5.52-4.101-8.201-0.167-0.483 0.189-1.167 0-1.641-0.634-1.587-2.606-3.285-1.64-5.331 2.647 1.447 3.14 4.593 4.511 6.972 2.895 5.022 6.626 9.85 8.611 15.582 1.225-1.875-1.03-5.076-2.05-7.381-1.621-3.66-3.895-8.142-5.741-11.482 0.288-1.791-0.697-2.31-0.41-4.101-2.858-2.55-4.923-6.291-6.561-10.661 0.227-1.642 1.44-2.751 0.41-4.511-0.159-1.525 1.975-0.759 2.05-2.051-1.537-0.66-3.61-2.938-3.281-4.101 0.096-1.963 1.454 0.315 2.46 0 0.528-2.192-1.258-1.778-0.41-3.28 3.003 1.098 3.842 4.359 5.331 6.971 1.39 0.934 2.237 2.411 3.69 3.281 1.337-0.741 0.108-1.505 0.41-3.281 1.05-0.59 2.892-0.388 3.69-1.229-0.953-1.508-1.304-3.617-2.871-4.511-2.326 0.713-0.042 3.479-1.23 5.331-1.433-1.438-2.496-3.246-2.871-5.741 1.253-0.296 1.495 0.419 2.46 0.41 0.057-0.764 0.27-1.371 0.82-1.641-0.598-2.819-2.093-4.741-5.331-4.921-0.327-5.824-4.436-7.865-6.561-11.892-5.062 4.643-10.556 8.854-20.503 8.611 0.291-3.874 4.522-2.426 6.971-2.87 5.792-1.053 10.252-4.457 13.122-8.201 0.306-1.673-2.655-0.078-2.05-2.051 2.69-1.499 6.756-3.819 4.921-7.381 0.798-0.842 1.279-2.001 2.871-2.051-1.089-2.412 0.361-4.845 0-7.791-1.694-1.752-5.232-1.813-7.792-3.28-0.988-0.566-2.271-1.659-3.28-2.461-1.039-0.825-2.885-1.548-2.46-3.28 4.152 2.683 7.798 5.871 13.532 6.972 1.375-3.347 0.715-7.839 0-11.072-0.15-0.677-0.766-1.465-0.82-2.05-0.063-0.68 0.573-1.873 0.41-2.461-1.696-6.099-9.401-8.812-10.251-15.172 0.365-0.182 0.733-0.36 0.82-0.82 1.563-1.245 4.866 2.759 5.331-0.82-0.621-1.703-3.222-1.426-4.921-2.05 3.799-0.846 7.05 1.083 11.072 0.819 4.309-0.282 8.197-2.378 12.302-1.64 1.73-0.184 2.068-1.76 4.511-1.23 1.009-1.865 3.311-1.596 4.921-2.46 1.248-0.67 2.482-2.329 4.101-3.281 1.015-0.597 2.042-0.641 2.871-1.229 3.885-2.765 5.847-5.801 6.561-11.893 2.091 0.451 1.255-2.025 2.05-2.87 0.988-0.345 1.534 0.185 2.05-1.23 5.373 0.381 9.319-3.283 14.352-4.511 1.086-0.827 1.247-2.58 3.281-2.46 4.834 9.038-3.037 14.333-8.611 18.453 2.022 1.904 6.731-1.511 8.201-3.28 2.27-2.733 5.008-8.463 4.92-10.662-0.087-2.18-2.091-3.121-2.05-5.331 1.304 0.062 1.804 0.93 3.281 0.82 1.646 4.626 0.445 10.304-1.64 13.532 2.976-0.578 4.16-2.947 6.561-4.101 2.524 0.825 9.528-0.494 12.302 1.229 2.63 1.635 2.184-2.768 4.921-4.101 1.379-0.012 0.835 1.899 1.64 2.461 2.067 1.077 4.238 2.05 6.151 3.28 0.288 1.42-1.438 1.471-2.05 0.82 2.429 1.254-1.741 3.253 2.46 3.69 0.162-1.137-0.458-2.144 1.23-3.28 1.02-0.063 1.27 0.645 2.05 0.82 0.509 2.656-3.057 2.154-1.64 4.511 2.448 0.124 1.823-2.825 4.101-2.871 1.842 0.618 2.34 2.581 4.921 2.461 2.14-4.25-6.223-4.569-7.381-8.201 1.816-0.177 2.597 0.684 2.871 2.05 2.57-0.246 2.965 1.683 5.331 1.641 3.152-6.191 0.029-15.57-0.82-21.733 3.459 0.33 4.39 7.306 4.511 11.481 0.135 4.659-1.484 9.892-0.82 13.532 6.265 3.646 11.688 7.998 16.812 13.122 1.598 1.598 3.75 3.344 4.101 5.741-3.199 1.399-5.902-2.551-8.611-4.511-2.677-1.938-4.879-3.208-6.971-4.511 0.304 2.707 5.19 4.375 6.561 7.381 3.572 2.032 7.364 3.845 9.431 7.381-3.707-0.394-3.845-4.355-6.971-5.331 0.602 2.007 1.411 4.669 3.281 6.562 1.494 1.512 5.342 1.877 4.921 4.921-1.755 0.114-2.028-1.253-4.101-0.82 0.282 2.725 3.951 2.063 3.69 5.331-1.796 0.155-2.108-1.172-3.69-1.23-0.925 0.887 0.339 1.398 0 2.87-3.232 0.362-3.564-2.177-6.971-1.64-0.863 0.504-0.265 2.469-1.23 2.87-1.685 0.999-1.744-0.976-3.69-0.82-1.933 0.801-5.039 0.429-6.561 1.641 2.766 4.752 3.229 11.808 8.611 13.942 1.083-1.11-1.416-2.118-0.82-4.101 2.77 0.783 3.191 3.916 5.741 4.921 0.464-3.235-5.238-5.922-4.511-9.432 5.988 3.58 8.481 10.654 13.532 15.172-1.462-5.525-6.395-9.712-6.971-14.762 4.525 2.172 6.021 7.374 9.021 11.071 2.14-3.494 2.001-7.476 3.28-11.071 1.221-3.432 3.323-6.764 5.331-10.252 2.653-4.61 5.883-9.763 9.021-14.353-1.203-3.914 0.422-6.449 1.64-10.251 1.72-5.369 3.184-10.346 5.741-14.763 0.358-0.618 1.229-0.669 1.64-1.23 1.571-2.143 2.367-5.399 3.691-7.791 1.036-1.872 2.167-3.092 3.28-5.331 2.191-4.406 5.734-8.651 8.201-13.531-1.629-5.294-5.449-8.605-8.201-13.532-0.598-1.071-1.084-2.312-1.64-3.281-1.209-2.107-3.142-3.606-4.101-5.741-0.808-1.798-0.54-3.886-2.05-5.331-3.893 0.245-6.744-0.501-9.842 0-0.683-0.815 0.037-0.521 0-1.64-0.413-0.908-1.411 1.01-2.87 0.41 0.196-1.29-0.584-1.603-0.82-2.46-1.132-0.176-0.385 1.529-1.23 1.64-1.64-0.684-3.259-1.389-4.101-2.871-1.721-0.192-3.436-0.392-3.69-2.05-1.536-0.032-1.239 1.768-3.28 1.23-1.175-0.739-0.598-3.229-1.23-4.511-2.148 0.543-3.103-0.192-4.92 0.41-0.628-1.833-2.689-2.232-2.46-4.921-6.431 1.436-11.374-1.967-14.353-5.331-0.339-1.159 0.578-1.062 0.41-2.051-1.996-2.903-1.226-6.339-2.87-9.841 0.658-0.572 0.437-2.024 1.23-2.46-3.402-3.12-3.983-7.39-4.511-12.712-9.426 0.783-22.997 2.574-34.445 2.46-3.936-0.039-7.907-0.639-10.662-4.101 3.881-5.521 16.572-4.779 25.834-6.151 6.686-0.991 14.062-0.015 19.273-1.23 1.803-0.42 3.136-1.756 4.921-2.05 3.196-0.528 7.853-0.318 9.431 1.23 7.051-0.938 14.508-1.037 20.914-1.641 1.222-0.008 0.526-1.934 1.23-2.46 4.145 0.482 9.552-1.954 11.072 1.641 1.675-0.649 5.13-0.82 5.741 0.82 1.44 0.073 1.349-1.385 2.46-1.64 1.316-0.359 0.85 1.063 1.64 1.23 8.646 1.218 14.695 3.281 21.323 6.971 1.295-1.594-1.035-2.304-1.229-3.69-1.744-7.448-2.695-15.282-4.511-22.963-0.197-0.833-0.979-1.601-1.23-2.46-0.749-2.553-0.499-5.522-1.23-7.792-0.646-2.007-1.586-5.417-2.46-8.611-0.557-2.033-1.627-3.86-2.051-5.741-0.195-0.87 0.236-1.646 0-2.46-1.742-6.016-5.116-11.094-8.611-15.583-0.835-6.135-5.557-8.385-7.791-13.122-5.259-2.942-9.091-7.312-13.942-10.661-1.401-0.308-0.521 1.666-2.05 1.23-1.288-2.54-3.408-4.246-5.741-5.741-1.327-0.507-0.313 1.327-1.64 0.82-4.15-1.864-7.663-4.365-11.482-6.561-1.69-0.323-0.771 1.963-2.46 1.641-2.721-1.266-5.494-5.668-8.201-3.281-1.692-1.042-2.99-2.478-4.101-4.101-3.247-0.17-5.342-1.492-8.201-2.05-1.317-0.361-0.562 1.352-1.64 1.23-4.023-1.308-7.208-3.453-11.892-4.101 1.402 1.468 3.625 2.116 5.331 3.281-1.247 1.828-3.715 0.06-5.331-0.41-3.401-0.989-6.889-3.557-9.841-4.921-1.621 0.131 0.304 1.269-0.82 1.64-6.98 0.009-10.028-3.914-15.992-4.92 0.19 2.133 3.47 1.177 3.69 3.28-5.128 0.207-7.387-2.454-10.662-4.101-6.267 1.493-10.141-1.009-15.172-2.05-1.254 1.458 2.266 0.77 2.05 2.46-4.748 0.342-9.161-3.118-15.172-2.871 0.171 2.289 3.295 1.625 4.511 2.871-0.943 1.667-4.686 0.137-6.971-0.82-2.248-0.941-4.346-3.293-6.971-2.87 0.579 2.018 3.373 1.822 4.511 3.28-0.357 1.548-2.804 0.589-3.69 0.41-3.419-0.692-7.217-3.323-10.662-4.101 0.777 1.82 3.425 1.769 4.511 3.28-3.12 0.927-6.609-1.314-9.432-2.05 3.267 4.25 9.111 5.925 12.302 10.251 7.785-0.929 11.962 5.479 15.172 11.072 1.187 2.067 2.561 4.247 2.871 6.151-5.059-2.408-5.832-8.708-9.841-12.302-1.725-1.545-3.873-2.024-5.741-3.69h-4.101c-2.095-0.365-2.159-2.762-4.511-2.871-2.251-4.856-8.513-5.703-12.302-9.021-3.369 0.225-5.227-1.061-7.381-2.05-6.958-0.084-13.415 0.135-18.863 0-7.533-0.187-11.979 4.369-17.633 6.561-1.365-0.958-2.232-2.415-3.28-3.69-8.312-3.723-18.426-0.529-27.064 2.05-3.863 1.154-7.331 2.976-9.021 5.331-5.2 0.7-7.122 6.79-11.892 6.561-0.153-2.175 2.317-2.678 3.69-3.69 1.645-1.212 2.905-2.978 4.511-4.101 1.646-1.15 4.096-1.217 4.921-3.28 10.995-4.216 29.672-11.33 40.186-2.05 6.201-5.087 18.978-6.295 29.115-4.921-1.424-1.57-4.956-1.961-7.792-2.46-2.803-0.494-6.153-1.065-9.021-1.23-2.679-0.154-5.68 0.801-7.792-0.41 0.299-2.572 4.149-1.713 6.151-1.64 2.165 0.079 4.62 0.283 6.561 0.41 2.68 0.176 5.294 0.485 6.561 1.23 2.689-1.459 7.904-0.912 10.252 0.41 1.47 0.104 1.502-1.231 2.87-1.23 7.516 0.802 15.258-0.134 22.554-0.41 5.23-0.198 13.833 1.015 18.863 0.41 0.599-0.072 1.425-0.812 2.05-0.82 2.838-0.033 5.95 0.542 9.021 0.82 6.972 0.632 14.74 2.215 22.553 3.281 10.91 1.487 21.987 3.442 31.575 6.151 5.912 1.67 11.481 5.13 17.633 4.92 6.595 3.11 12.754 6.655 19.273 9.842 0.24 0.853 0.861 1.325 1.23 2.05 4.316 1.698 7.091 4.937 11.482 6.561 4.994 5.258 11.045 9.458 15.992 14.762 2.62 4.75 6.704 9.39 9.842 14.352 0.443 0.702 0.356 1.719 0.82 2.46 0.422 0.675 1.314 0.986 1.64 1.64 1.082 2.172 1.913 5.132 2.871 7.792 5.228 14.523 9.627 32.777 11.892 48.387 0.53 3.658 2.519 7.086-0.41 9.432 10.238 5.565 18.104 15.407 18.863 29.115 1.86 1.146 5.067 0.947 5.33 3.69 0.968-0.126 0.764-1.424 2.051-1.23 2.032 1.111 3.356 2.931 5.741 3.69-0.149 2.245 2.146 4.366 2.87 6.971 1.994-0.251 2.106-0.251 4.101 0-1.229-2.689-2.219-5.194-3.28-9.021-0.854-3.076-2.406-5.962-2.461-9.021-0.166-9.4-0.582-21.923 3.69-29.935 0.4-7.528 3.643-12.214 7.382-16.403 0.021-1.251-1.478-0.983-1.23-2.46 0.793-1.395 1.355-3.019 2.46-4.101 3.876 0.569 5.154-2.561 6.972-4.511 3.306-3.548 7.449-6.266 11.071-9.021-1.896-5.089-3.577-12.142-2.05-19.683 3.89-1.577 5.128-5.807 9.021-7.381-0.02-2.401 0.717-3.355-0.41-4.921 2.309-4.04 3.289-8.703 7.381-11.071 1.217-0.705 3.062-0.68 4.511-1.23 3.324-1.263 6.702-2.578 9.021-4.921 2.294 0.842 4.412-0.93 6.561-1.23 9.524-1.331 19.683 2.059 27.064 4.921 7.662 5.46 12.57 13.674 22.144 17.223 0.318 0.912 0.236 2.224 1.23 2.46 2.113-0.894 2.104-3.911 4.92-4.101 1.77 1.307 1.365 4.083 2.051 6.151 0.515 1.55 1.836 2.522 1.641 4.101-1.679 2.51-7.136 1.708-10.252 1.64 0.881 2.076 3.573 2.062 5.331 2.871 1.822 0.838 3.43 2.613 5.74 2.46 2.309 2.476 6.804 2.765 9.021 5.331-2.698 4.244-9.348 3.633-15.172 3.281-2.468 0.676-1.095 5.193-4.101 5.331 0.816 4.241 3.955 6.16 5.331 9.842 1.446 0.603 3.033 1.067 5.33 0.82 12.019 4.794 16.031 17.595 29.935 20.503 1.828 2.625 5.512 3.455 7.792 6.151 1.437 1.698 2.708 4.429 4.101 6.561 1.994 3.053 3.94 4.872 4.511 8.611 0.297 1.949-0.311 4.097 0 6.151 0.121 0.802 0.89 1.505 1.229 2.46 0.494 1.388 0.242 2.735 0.82 3.69 1.859 3.072 6.013 3.362 8.611 5.741 2.126 4.937 2.899 8.804 4.511 13.122 2.001 5.363 5.974 9.81 9.842 14.353 4.796 5.632 9.083 9.21 10.661 16.812 1.252 6.028-0.288 9.54-3.28 14.353-1.721 2.768-4.503 5.597-4.511 8.201-0.008 2.937 5.378 8.69 7.381 12.712 2.88 5.779 3.337 11.098 4.921 17.223 0.319 1.233 1.378 2.998 1.641 4.101 0.457 1.918 0.205 3.626 0.82 5.331 1.521 4.218 4.652 7.468 6.561 11.071 2.081 3.928 3.444 7.732 5.741 11.892 7.347-0.661 14.429-1.422 21.733 0.41-0.342 2.528 1.175 3.199 1.229 5.331-5.618 2.173-14.019 1.563-21.732 1.641-0.469 1.782-0.935 4.601-0.41 6.15 3.071 2.611 8.152 0.622 12.302 1.23 2.78 0.407 7.473 0.772 9.841 2.05 0.841 2.851 0.222 7.16 0.41 10.662-2.43 1.147-4.971 3.293-9.841 2.87-0.604-0.052-1.331-0.754-2.051-0.82-0.045-0.004-3.455 1.225-2.05-0.41-4.598 1.325-11.075-0.387-14.763 0-1.768 1.513-1.932 4.63-2.87 6.972 2.045 1.648 5.292 0.609 7.791 0.82 4.634 0.39 10.891-0.634 15.582-0.82 2.042-0.081 4.263 0.095 5.741 1.23-0.861 1.475-4.57 1.928-7.791 2.46-3.02 0.499-6.832 0.224-9.021 1.641 5.089 4.604 10.386 9.021 9.021 17.223-0.378 2.267-2.136 4.014-3.28 6.15 0.01 0.02-0.56 2.64-1.62 3.28zm-145.16-312.88c-4.15-1.933-11.347-3.729-15.993-4.101-8.991-0.719-14.405 2.811-20.503 5.331-4.674 1.932-8.171 1.568-9.432 6.151 1.73-0.184 2.211-1.616 4.511-1.23 0.222 1.452-1.452 1.008-1.229 2.46 2.415 0.083 4.719-2.103 6.561-1.23 1.286 1.585-2.053 1.286-2.051 2.87 2.223 0.161 4.531-1.742 6.562-0.41 0.2 1.977-2.37 1.184-2.46 2.87 2.099 0.077 5.437-1.455 6.15 0.82-0.887 0.617-2.551 0.457-2.87 1.64 1.515 0.262 4.085-0.531 4.921 0.41-0.37 1.543-2.132 1.696-4.101 1.64 1.576 2.524 5.855 2.345 9.021 3.28 0.495 1.186-2.458 1.87-0.409 2.051 0.828-0.439 1.972-1.023 3.28-1.23 4.321-0.684 10.797 0.94 13.122-0.41-1.532-1.475-5.166-0.848-5.741-3.28 1.222-0.589 2.499 1.439 2.461-0.41-2.272 0.01-3.613-1.013-5.331-2.46-1.247 0.01-3.34 1.282-3.28-0.82 2.408-2.232 4.744 0.023 6.15 0.41 0.861 0.237 1.965-0.195 2.87 0 2.527 0.546 4.194 3.099 6.151 3.691 2.606 0.789 5.687 0.113 8.201 0.41 2.975 0.351 5.393 1.772 8.201 1.23 2.223 1.521 3.94 2.072 6.972 2.05 0.105-1.808 0.655-3.172 0.409-5.331-10.17-2.442-13.98-12.601-22.14-16.402zm-30.76 32.805c1.114 3.258 0.04 8.027 0.41 11.072 4.407-1.606 7.211-4.817 11.481-6.561 1.439-0.241 1.349 1.938 2.46 0.82 4.49-2.797 8.863-5.692 14.353-7.381 2.238-0.688 5.034-0.599 7.381-1.23 2.585-0.695 5.239-1.733 7.792-2.46 2.422-0.69 6.092-1.14 6.971-3.691-3.411-0.586-6.709-0.414-10.252-0.41-2.503 0.003-5.18-0.91-7.791-0.82-2.873 0.099-5.98 1.041-9.021 1.23-3.29 0.205-6.537-0.254-9.432 0-1.646 0.145-2.953 0.876-4.511 0.82-5.823-0.21-10.268-3.327-14.762-4.921-0.318 0.092-0.809 0.011-0.82 0.41 4.77 1.89 11.41 8.069 5.74 13.122zm55.36-9.432c2.279-0.35 4.973 0.557 6.15 0-0.441-1.335-1.422-2.131-1.64-3.69-2.23 0.506-3.39 2.076-4.51 3.69zm-59.46 13.122c1.254 0.297 1.206-0.708 2.46-0.41 0.484-3.724-1.851-5.16-1.64-8.611-2.277-1.687-3.688-4.241-7.792-4.101 2.73 3.965 6.77 6.627 6.97 13.122zm-21.73-3.28c1.159 0.339 1.062-0.578 2.05-0.41-0.333-2.93 0.33-5.506-1.229-7.792h-1.23c-0.32 3.187 0.62 5.113 0.41 8.202zm83.65 2.87c-2.559-0.427-4.902-1.902-7.381-2.46-1.009-0.227-2.238 0.205-3.28 0-3.28-0.643-6.546-5.371-9.432-2.05 1.7 0.111 1.598-0.539 2.87 0 7.784 4.391 19.726 8.15 29.524 4.921-3.86-0.738-8.09 0.292-12.3-0.411zm-64.79 9.842c2.083-3.459-0.933-7.14 0.41-10.662-1.154-0.622-1.683 0.137-3.28-0.41-0.057 0.764-0.27 1.371-0.82 1.64-0.136 3.149 3.761 4.433 2.461 7.381-4.691-1.187-3.512-8.244-6.562-11.072-0.55 5.944 2.03 12.136 7.79 13.123zm31.57-7.792c-1.423 0.192-0.235-2.225-1.23-2.46-6.549 5.479-16.303 7.753-24.193 11.892-0.555-0.129-0.783-0.584-1.641-0.41-1.08 1.096-3.576 2.292-4.921 0.82-1.326-0.507-0.312 1.327-1.64 0.82-2.098-2.316-6.879-3.066-10.662-2.46 0.304 1.807-1.327 1.68-1.64 2.871-5.015 2.503-8.9 6.136-13.532 9.021 1.082 1.869 3.155 3.485 5.331 2.05 2.345 0.799 2.272 4.015 4.92 4.511 0.177-1.68-0.38-2.627-0.819-3.69-0.347-0.884-2.614 0.153-2.871-0.82v-1.64c3.994-0.167 5.356 2.298 6.151 5.331 7.495-0.64 18.127-1.662 20.503 4.101 5.386 1.859 8.577 5.912 14.353 7.381 0.701-1.076 1.19-2.363 3.28-2.05-0.001 0.411 0.332 0.488 0.41 0.82 0.336 2.113-1.708 1.846-1.641 3.69 0.837 0.121 0.805 1.109 1.641 1.23 2.229-0.512 2.357-5.288 5.331-3.69 0.639 2.374-2.767 3.998-2.871 6.971 4.365 0.811 1.843-5.266 5.331-5.331 2.011 1.539-0.344 4.875-1.23 6.151-0.212 8.126-6.164 10.511-13.941 11.071-1.023 0.292-1.686-1.805-2.461-0.41 0.726 0.009-0.653 1.935 0.41 2.46 1.294 0.201 1.448-0.739 2.87-0.41 0.562 0.524 0.562 1.936 0 2.46 3.671 1.627 4.89-1.695 7.792 0 0.136 1.927-3.568 2.155-2.461 3.691 0.528-0.331 2.302-1.474 2.461-0.82 0.133 1.798 1.228 3.586 2.87 4.921 0.711-2.296 0.914-5.101 0.82-8.201 1.774-1.079 0.982-3.051 1.64-4.511 0.749-1.663 2.362-3.195 3.281-4.921 1.146-2.156 2.378-4.856 3.28-6.151 2.457-3.526 3.742-6.263 6.15-9.021 0.741-0.849 1.293-1.99 2.051-2.871 1.092-1.268 2.763-1.692 3.69-2.46 0.602-0.498 0.448-1.397 0.82-1.64 0.562-0.367 1.2 0.012 1.641-0.41 0.747-0.718 1.115-2.245 2.46-4.101 2.78-3.837 7.594-7.226 5.331-13.122-3.492 4.983-7.195 9.754-12.712 12.712-0.131-0.963-1.27-0.918-1.641-1.641-1.425 0.079-1.557 1.451-2.87 1.641-1.828-3.108 2.262-6.527 3.69-9.021 0.333-1.369-0.269-2.785 1.641-3.281 1.402-0.036 0.237 2.497 1.64 2.46 0.144-3 2.185-4.103 2.461-6.971 3.005-0.209 1.092 4.064 2.05 4.921 0.755-1.296 1.389-2.711 3.28-2.871 0.703-3.124 3.013-4.643 4.921-6.561-3.381 1.123-8.085 0.65-11.481-0.41-2.325 2.501-6.054 2.767-10.662 2.46-0.009-0.966 0.706-1.207 0.41-2.46-1.087-0.006-2.414 0.228-2.46-0.82 0.527-1.659 2.068-2.306 2.46-4.101-4.1-0.414-4.65 2.725-7.79 3.283zm27.89 20.912c1.565 0.335 1.587-0.873 2.05-1.64-0.523-0.023-0.568-0.526-1.23-0.41-0.18 0.78-0.89 1.03-0.82 2.05zm45.51 20.92c-3.105 0.121-4.675-1.519-6.151-2.46-0.421-0.269-0.539-1.059-0.819-1.23-0.66-0.403-2.107-0.426-2.871-0.82-2.318-1.196-4.349-3.394-7.381-3.69-0.604-1.583-1.408-2.965-3.28-3.281 0.131-0.951-0.066-1.574-0.41-2.05-4.354-4.803-11.146-7.171-18.043-9.431h-0.82c-1.421 3.499-4.844 4.997-8.611 6.151-1.511 3.273-5.47 4.098-7.381 6.971 2.55-0.104 7.305-3.444 9.021-0.41-2.967 2.662-10.796 2.566-11.072 6.561 4.853-1.65 13.476-4.723 18.043-1.64 2.992-0.66 6.648-1.207 10.252-0.82 2.884 0.309 4.758 1.772 7.381 2.87 3.775 1.581 8.831 2.068 9.432 5.741-1.875 1.086-2.712-0.664-4.101-1.23-4.507-0.252-9.604-3.312-15.173-3.69-1.164-0.079-2.398 0.406-3.69 0.41-3.984 0.012-8.409-0.92-11.892-0.41-1.75 0.256-5.163 1.494-7.381 2.05-3.621 0.908-4.844 10.326-6.151 13.532-1.981 4.86-0.111 7.606 0.41 13.532 3.611 4.454 7.618 8.511 11.892 12.302 3.188-0.174 4.92 3.273 6.972 2.871-0.957-0.121-0.957-1.11 0-1.23 3.875 1.048 6.018 6.007 9.841 5.741-0.686-0.436-2.776-1.561-1.64-2.46 3.008-0.459 7.023 3.549 9.842 3.28 0.966-0.875-2.361-1.167-0.82-2.871 4.85 1.027 8.621 4.681 13.941 2.871-0.279 2.113 1.134 3.515-0.819 4.101-1.295 0.201-1.448-0.739-2.871-0.41-1.621 0.703-2.39 2.258-3.69 3.281-5.129 0.504-11.733 1.81-17.633 0.82-2.698-0.453-4.729-2.777-7.381-2.051 0.549 1.617 2.018 2.611 3.28 4.101 1.188 1.402 2.076 3.448 3.28 4.511 2.472 2.182 4.896 2.041 7.382 1.641 2.405-0.388 5.677 0.114 8.201-1.23 1.29-0.47 0.996 0.644 1.64 0.82 2.053-0.762 3.79-3.754 6.151-2.871 0.661 2.711-2.208 1.893-2.46 3.691 3.815-0.543 4.008-2.932 7.381-3.281v2.05c-1.119 0.299-0.825-0.815-1.641-0.82 0.105 2.703-2.906 2.288-3.69 4.101 0.008 1.77 2.043 1.511 2.051 3.281-2.278 10.606 6.261 12.5 11.071 17.222 1.933-0.254 2.514-1.859 4.511-2.05 1.668-3.253 4.794-5.048 6.971-7.791-1.132 0.21-3.432 1.825-4.101 0 0.35-2.578 4.71-3.242 6.151-1.23 6.588-5.941 16.842-3.66 20.913 3.69-2.629 2.02-6.337 2.958-8.611 5.331-2.123-0.399-6.873 0.648-9.842 0-4.704 4.948-12.317 10.632-20.913 9.842 1.775 2.257 5.223 3.104 8.201 3.28 1.846 0.109 4.662-0.108 6.972-0.41 4.746-0.621 9.738-3.389 13.941-3.69 0.566-0.041 0.758 0.645 1.641 0.41 1.481-0.394 2.333-1.637 4.101-2.051-0.154 0.036 1.137 0.451 1.641 0.41 3.142-0.254 6.867-1.835 8.201 0.82 0.163 1.939-0.869 2.695 0.41 3.69-2.424 1.527-6.57 3.101-9.432 2.87-4.761 2.62-9.647 5.115-15.992 6.151 0.128 2.589-1.845 3.076-2.461 4.921 6.887 1.889 10.868-4.914 17.223-6.151 0.975-1.188 4.122-3.73 5.331-2.05-1.14 0.773-2.074 1.753-2.051 3.69-0.554 0.129-0.783 0.584-1.64 0.41-2.642 5.293-8.907 12.402-15.173 12.302-4.334-0.069-7.54-3.582-12.302-2.46-0.486-1.125-1.643-0.517-2.46-0.82-3.967-1.475-7.335-4.99-11.072-4.921 4.035 3.482 9.305 5.731 13.942 8.611 1.246 0.257 3.532-0.525 4.101 0.41-0.889 3.461-5.146 2.927-8.201 3.28 2.204 1.486 4.631 2.75 8.611 2.461 6.087 3.89 17.892 0.899 22.554-2.871 0.594-1.183 1.12-2.434 2.05-3.28-0.237-1.331 0.279-1.908 0.41-2.87 4.354-5.766 6.203-14.089 9.842-19.684 1.842-2.832 4.963-6.514 5.331-9.842 1.357-12.266-10.053-17.402-15.583-25.014-1.539-2.119-2.271-4.774-3.69-6.971-1.07-1.658-2.938-3.071-4.101-4.511-3.006-3.726-4.511-7.55-7.381-11.072-4.714-0.546-9.69-4.448-15.582-5.331-1.814-0.272-3.776 0.132-5.741 0-3.341-0.225-6.593-1.853-9.432-2.05-1.863-0.129-3.856 1.677-5.331 0 1.271-3.923 7.568-2.82 9.842-5.741-5.525-1.688-10.773 1.503-15.582 0.41 0.092-3.779 4.307-2.333 7.791-2.871 3.24-0.5 4.486-0.343 7.791 0 1.736 0.181 4.025-0.729 4.921 0.82 0.121 1.078-1.591 0.323-1.23 1.64 3.696-0.937 7.31 1.321 11.072 1.64-1.987-7.395-7.908-14.178-13.122-18.042 0.239-2.207-2.143-4.341 0.41-5.331 4.375 2.733 8.059 6.156 12.302 9.021-0.029-2.432-1.846-3.075-3.281-4.101 0.031-0.714-0.091-1.275-0.409-1.64-1.538-1.06-2.729-2.467-4.102-3.691-0.664-1.51-4.076-2.04-3.28-3.69 4.122 1.645 7.273 4.214 9.842 6.971 1.242 1.333 1.991 3.539 3.69 3.69-1.78-4.51-5.28-7.3-8.2-10.66zm-136.54-19.28c1.765 3.839 6.604 4.604 8.201 8.611-0.27-5.09-4.45-8.36-8.2-8.61zm-3.29 7.38c1.869-0.174 3.316 1.614 4.102 1.23-0.968-1.356-1.876-2.772-3.691-3.28-0.34 0.48-0.54 1.1-0.41 2.05zm20.1-1.64c-1.544 1.478-4.348 1.308-6.151 2.46-1.028 0.658-4.4 3.856-4.921 4.511-2.685 3.382-5.038 13.888-5.74 18.863-1.353 9.58 0.557 19.346 3.69 25.424 2.614-1.838 3.16-5.263 4.921-7.792 1.706-2.451 4.188-4.091 6.15-6.151 1.564-8.002 1.3-15.849 5.741-20.503 3.659-3.834 8.814-4.969 12.712-8.611-2.67-5.36-9.17-8.72-16.4-8.2zm-20.51 7.38c1.967 0.629 3.013 2.181 4.92 2.87 0.737-2.342-1.681-4.804-4.101-5.331 0.44 1.54-1.01 1.17-0.82 2.46zm-2.46 4.52c-0.176 0.906 2.464 1.026 1.23 1.64-2.346 0.197-5.872-1.723-5.741 1.64 0.79 0.85 3.421-0.14 3.28 1.641-0.527 1.746-2.037-0.04-3.69 0.41-1.07 1.527-1.917 3.277-2.05 5.741 1.161 1.162 5.298-0.651 5.331 1.64-1.937 0.935-5.886-0.145-6.972 1.64v2.46c1.351 0.773 4.426-1.093 4.511 1.64-1.077 0.973-4.381-0.28-4.511 1.64v1.23c0.767 0.477 3.872-0.776 3.69 1.64-1.351 0.95-5.619 0.786-4.101 3.281 0.442 1.061 3.402-0.395 2.871 1.64-0.743 1.444-3.716 0.658-2.871 3.69 2.245 1.806 4.356-1.804 6.151-0.41-0.934 2.621-5.201 1.907-6.151 4.511 2.127 2.487 5.74-1.215 7.791 0-0.297 3.12-5.185 1.65-6.15 4.101-0.181 4.962 6.297 0.847 8.611 0.82-0.985 2.706-3.6 3.782-6.972 4.101-0.261 1.902 0.744 2.537 1.641 3.281 3.124 0.383 4.906-2.739 7.381-1.641-0.859 2.831-5.147 2.233-6.561 4.511-0.065 1.159 1.231 0.955 1.23 2.05 4.224 0.815 5.934-4.825 9.021-2.46-1.792 2.173-4.429 3.5-7.382 4.511-0.196 1.29 0.584 1.603 0.82 2.46 3.987 0.579 5.84-4.919 8.611-2.871-1.492 2.745-4.759 3.716-6.971 5.741 3.889 3.827 7.786-3.37 9.841-0.41-1.242 0.246-1.999 1.288-2.87 2.05-0.824 0.722-2.338 1.516-2.46 2.871 2.549 3.138 3.994-1.951 6.971-2.05-0.001 0.411 0.332 0.488 0.41 0.82-0.465 2.542-3.31 2.705-3.69 5.331 3.096 2.612 3.955-2.808 6.561-3.281 1.061 2.795-2.402 4.363-2.87 6.971 0.319 0.09 0.477 0.344 0.41 0.82 4.52 2.14 3.29-4.498 6.971-4.511 0.492 3.568-3.134 4.972-2.46 7.381 4.396 2.005 2.965-5.186 6.561-5.331 1.692 3.076-2.658 5.389-1.64 7.792 3.607-0.356 1.768-6.161 4.92-6.972 1.878 2.812-0.679 5.79-1.64 8.201 0.767 0.327 1.502 0.686 2.46 0.82 1.947-1.471 0.504-6.331 3.281-6.971 2.482 1.995-0.917 5.997 0 7.791 3.626 0.619 1.086-4.928 3.69-5.331 1.616-0.113 0.118 2.889 1.229 3.28 1.562-3.953-1.296-6.855-2.05-9.841-5.17-2.348-10.219-4.817-14.763-7.791-2.429-5.362-8.55-7.032-9.841-13.532-2.337-2.306-5.135-8.103-6.151-11.072-1.124-3.282-0.893-8.149-1.641-11.892-0.905-4.529-0.434-9.247 0.41-13.122 0.9-4.136 1.914-7.618 2.461-11.072-1.14-2.25-4.64-4.87-6.15-1.23zm-81.6 2.04c-1.223-1.993-4.463-0.939-6.561-0.41 0.512 2.538-0.679 3.399 0 6.561-0.509 0.857-1.192 1.541-2.05 2.05-5.816-0.672-11.29 0.935-16.402 1.23-3.265 0.189-7.311 0.108-9.842-1.64-0.556-2.938 0.07-4.255-0.41-6.151h-3.69c-3.615 2.602-1.469 11.146-1.64 15.172 0.482 1.295 2.284 1.27 2.871 2.46 0.134 1.085-1.479 3.889 0.41 4.101 1.286-0.284 0.535-1.094 0.41-2.05 2.29 0.239 1.941-2.16 3.691-2.46 2.947-0.142 5.92 0.401 8.611-0.41 1.706-0.514 3.07-2.687 5.331-4.101 3.797-2.374 9.451-2.773 12.302-5.331 5.09-1.243 9.688-2.254 15.172-0.82 0.256 0.974 0.552 1.909 1.641 2.05-0.396-2.098-0.332-2.848 0.41-4.511-3.457-0.45-5.551 0.463-7.791 1.23-2.06-1.07-2.77-3.51-2.46-6.97zm5.33 4.93c0.827-1.932-0.972-3.309 0.41-5.331h-3.28c-0.82 2.25 0.02 5.47 2.87 5.33zm46.34 38.13c0.38-5.744-1.34-10.883-1.641-16.812-6.81-14.147-18.372-22.102-36.085-24.604-0.022 0.524-0.526 0.568-0.41 1.23 0.092 0.775-0.462 0.904-0.41 1.64 2.242-0.771 4.397-0.348 5.741 0 6.461 1.673 15.276 6.87 18.862 10.251 3.923 3.698 8.034 11.401 9.432 16.812 2.528 9.791-0.661 19.88-3.69 27.064-5.461 12.952-13.784 25.904-20.093 36.905-0.351 0.61-2.523 2.122-0.82 3.28 10.549-10.091 16.841-24.438 23.783-38.135 1.67 4.534-2.446 7.856-4.101 11.892-1.312 3.201-1.422 7.074-2.87 10.251-0.559 1.225-1.793 2.404-2.46 3.69-5.173 9.972-11.026 19.701-17.633 27.475-0.6 2.408-1.281 4.733-3.281 5.741 0.259 2.172-1.443 2.384-1.23 4.511-2.555 3.27-4.748 7.656-7.791 11.892-7.521 10.467-19.096 24.343-19.273 39.776-0.026 2.282 0.126 5.919 0.82 8.201 1.433 4.708 9.336 12.849 13.942 15.172 4.424 2.23 15.591 3.616 18.453 0.41-4.481 0.475-6.622-1.027-10.251-0.41-6.067-2.48-11.061-3.82-14.762-8.611-0.542-0.701-0.639-2.086-1.23-2.87-0.753-0.999-1.697-1.36-2.05-2.051-0.671-1.311-1.408-4.054-1.641-5.74-0.879-6.369 2.009-11.606 2.46-17.223 2.655-3.219 3.529-7.422 5.331-11.072 1.803-3.652 4.945-6.513 5.741-10.661 6.604-5.835 10.104-14.773 16.812-20.504 1.491-4.522 5.557-6.472 6.562-11.481 3.041-2.145 4.038-5.583 5.74-9.021 1.053-2.124 1.779-4.438 2.871-6.561 2.147-4.179 5.449-8.127 6.971-11.893 0.582-1.439 0.293-3.042 0.82-4.511 1.988-5.538 5.718-8.866 7.381-14.762 1.144-4.053 1.795-8.598 1.641-13.532-2.498 1.057-1.016 6.093-3.69 6.971-1.57-4.25 1.76-8.21 2.06-12.71zm-84.06-39.77c0.073 1.841 0.774 3.053 2.05 3.691 1.612-3.25 9.058 0.585 9.432-4.511-4.03 0.14-7.99 1.35-11.48 0.82zm-16.82 0c-5.934 0.914-14.335 1.492-20.093 1.64-2.062 0.054-4.561 0.756-6.971 0.82-2.668 0.071-7.301-1.437-6.561 2.871 2.599-0.399 5.731-1.068 9.021-1.23 6.425-0.316 14.142 0.248 20.093-0.82 1.407-0.252 5.604-1.746 5.331-3.281h-0.82zm54.95 6.97c-5.272-0.625-8.188 1.107-12.712 1.23-1.75 3.581-0.448 10.213-5.741 10.251-0.576-1.435 1.15-2.625 0-3.281-0.927 1.807-3.102 2.366-3.69 4.511 1.696 2.213 5.229 4.566 8.201 2.05 2.482-2.438 0.958-8.883 4.511-10.251 1.926 2.016 1.602 5.114 1.23 8.611 2.931-1.034 3.858-4.07 6.561-5.331 0.049 2.373 1.822 0.582 2.46 2.051-0.386 3.006-2.583 2.913-2.46 5.331 0.183 3.616 6.568 5.383 7.381 9.021 1.401 0.308 0.521-1.666 2.05-1.23 1.126 1.039 2.863 0.834 4.511 0.41 0.813 0.776 0.199 1.938 0 2.871 2.27-1.206 2.631-5.355 2.87-7.791 0.623-6.331-5.225-7.752-6.971-11.072-1.605 0.238-2.381-0.353-3.281-0.82 0.02-3.85-3.64-4.02-4.92-6.56zm18.86 13.94c2.707 2.624 5.884 4.778 10.662 5.331 2.128-4.337-3.443-5.282-2.461-8.611-5.303-4.402-12.034-7.375-20.503-8.611 3.28 4.78 10.51 5.61 12.3 11.89zm-57.81-2.05c-0.29 3.417 0.762 5.229 1.23 7.381 0.239 1.1-0.722 3.443 1.23 3.281 0.419-1.293-0.199-3.388 0.41-5.331 1.832-2.269 5.646-2.555 5.741-6.561-1.76-0.02-6.47 0.3-8.61 1.23zm147.62 11.07c1.073-1.123 4.418-2.129 3.69-3.69-3.79-0.024-6.816 3.693-10.662 4.921 0.896 2.658 3.336 3.772 4.101 6.561 4.796 1.912 9.397 4.542 15.173 2.46 0.722 0.371 0.677 1.509 1.64 1.64 0.719-0.648 2.185-0.549 3.281-0.82-0.298 1.494-1.935 1.891-0.82 3.69 2.77 0.583 3.093-1.281 4.511-2.05 4.583-3.684 12.755-4.325 18.042-6.151-0.041-4.205-3.246-11.145 0.41-13.942 0.815 0.005 0.521 1.119 1.641 0.82-0.363-2.057 1.146-3.784 0-5.331-2.506-0.319-2.781 1.592-4.511 2.05-0.328 6.012 0.144 9.085 0.82 14.352-0.881 0.623-1.226 1.782-2.87 1.64 0.297-2.243 2.091-4.154 0.409-6.151-0.781 7.336-7.066 5.535-12.302 6.561-2.205 0.433-3.723 2.35-5.74 0.82-0.199-2.66 3.978-0.943 4.101-3.28-5.108-0.863-8.409 5.217-11.893 2.05 1.052-1.818 4.354-1.387 5.331-3.28-2.785-0.92-4.554 2.489-7.791 2.46-0.098-0.585-0.675-0.692-0.82-1.23 0.402-1.648 3.201-0.9 3.69-2.46-1.85-0.785-4.578 2.992-7.381 1.23 0.029-3.114 4.992-1.295 4.921-4.511-3.04-0.2-4.45 5.07-6.97 1.64zm-114.82-8.2c0.855 0.653 3.832-1.755 2.871-2.871-0.69 1.23-1.88 1.95-2.87 2.87zm-25.83 4.51c0.674 4.645 6.937 1.264 7.381-2.05-2.16-4.86-7.86-1.27-7.38 2.05zm145.16-1.23c0.565-0.018 0.9 0.193 1.23 0.41 0.129-0.555 0.584-0.783 0.41-1.641h-1.23c0.02 0.56-0.19 0.9-0.41 1.23zm27.06 1.64c0.353-1.279 1.201-1.764 0-2.871 0 0.73-1.1 2.39 0 2.87zm-155.41-1.23c-3.811 0.725-10.215 4.159-10.251 6.561-0.021 1.392 1.518 1.641 2.46 2.871 0.326 0.425-0.271 1.588 0.82 1.23 1.3-4.44 5.753-5.728 9.841-7.381-0.94-1.11-2.37-1.73-2.87-3.28zm44.29 26.65c1.874-0.977-2.007-3.515-1.23-4.921-0.801-0.402-2.063-2.435-0.41-2.87 2.462 1.639 3.553 4.648 5.741 6.561 0.805-8.13-3.545-14.439-4.921-21.733-3.207-1.03-6.646-1.83-9.432-3.281 0.323 3.006 1.515 6.231 0.41 9.432-2.697 0.31-2.76 3.254-4.511 4.511 0.323 3.876-2.79 4.317-4.101 6.561 4.873 0.595 6.41 4.525 9.432 6.971 0.363-2.296-3.832-3.409-1.641-4.92 2.583 1.794 4.166 6.765 6.972 6.971-0.684-2.194-3.392-4.528-2.87-6.561 2.412 0.321 2.247 3.22 4.51 3.69 0.418-2.194-1.513-2.041-1.229-4.101 0.98 1.35 3.26 1.38 3.28 3.69zm-31.17-24.6c-1.306-0.772-1.716 0.104-3.28-0.41-0.51 1.87 3.57 2.41 3.28 0.41zm157.06 2.46v-1.64h-1.23c-0.12 1.07-0.14 2.05 1.23 1.64zm-174.28 5.74c0.008 1.769 2.043 1.511 2.05 3.28 0.505 1.271-1.573 3.119 0.41 3.281 0.07-1.278 1.519-1.918 2.05-3.281 0.216-0.554-0.296-1.542 0-2.05 1.228-2.112 3.425-2.518 4.511-4.511 0.396-0.291-0.983-2.273-1.64-2.87-1.29 3.22-6.6 2.43-7.38 6.15zm12.3-3.28c2.947 0.744 3.458 3.922 5.331 5.741-0.929 3.857-4.433 7.318-4.511 10.662 2.447-4.037 8.014-3.034 13.122-2.05-1.802-5.033-3.97-9.698-6.561-13.942-2.664 1.913-3.32-2.894-7.381-2.05v1.64zm-3.69 4.51c0.154-1.1 2.801-1.815 1.641-2.87-0.54 0.72-2.97 1.65-1.64 2.87zm250.96-1.64c0.411-0.001 0.488 0.332 0.82 0.41-0.039-0.645 0.055-1.422-0.82-1.23v0.82zm-190.68 1.23c-0.05-1.043-0.597-1.59-1.64-1.64-0.19 1.28 0.36 1.83 1.64 1.64zm-59.46 7.79c1.137-1.324 2.302-2.619 2.871-4.511 0.303-0.654 2.007 0.093 1.64-1.23-0.53-1.11-0.747-2.534-2.05-2.87-1.74 1.78-7.26 6.6-2.46 8.61zm250.96-7.38c0.411-0.001 0.488 0.332 0.82 0.41-0.039-0.645 0.055-1.422-0.82-1.23v0.82zm-233.33 4.1c0.461 0.257 3.498 0.462 3.28-1.23-2.345-0.076 0.234-2.638-1.64-2.871-0.43 1.49-1.92 1.9-1.64 4.1zm125.07 2.46c-1.269 3.176 0.49 9.812 0.82 15.583 0.082 1.45-0.188 2.958 0 4.101 0.246 1.506 1.243 2.79 1.229 4.101-0.012 1.193-0.937 2.613-0.819 3.69 0.472 4.365 5.134 8.373 6.971 12.712 1.384 3.269 1.424 6.022 3.69 8.201-0.131 0.963-0.647 1.539-0.41 2.871 3.527 6.041 3.821 15.315 9.842 18.862 2.611-1.011 4.783-0.255 7.381-0.819 0.572-2.486-2.092-1.735-1.64-4.102-1.926 0.149-3.386-0.168-3.691-1.64 0.158-2.713 1.964-3.778 2.051-6.562 6.324-2.36 2.967-5.452 1.23-11.481-0.552-1.915-0.363-4.212-0.82-5.741-0.512-1.714-2.066-3.406-2.461-4.921-0.399-1.535-0.027-3.049-0.409-4.511-1.526-5.832-5.474-10.332-4.511-15.172-1.259-2.958-2.18-6.124-2.051-9.432-1.655-1.79-2.075-5.972-1.23-9.021-5.92-1.39-10.89 1.66-15.17 3.28zm-20.09 5.74c3.52-0.58 5.686-2.515 7.791-4.511-1.654-0.121 0.272-1.818-1.641-2.05-1.94 2.3-5.34 3.13-6.15 6.56zm83.24-2.05c-0.018 0.564 0.193 0.901 0.41 1.23 1.247-0.393 4.159 0.878 4.101-0.82-1.12-0.46-3.57-1.05-4.51-0.41zm-70.12 2.87c-0.56-1.417 1.842-1.933 0.409-2.871-0.44 0.76-1.96 2.54-0.41 2.87zm-66.43 11.89c0.84 2.098 0.758 4.953 2.87 5.741 0.227-4.092-2.151-9.029-4.921-11.482 0.15 2.73 1.39 4.09 2.05 5.74zm-9.84-2.04c0.949-0.418 1.909-0.825 2.051-2.051-0.358-0.599-0.326-1.588-1.641-1.23-0.37 0.9-0.91 2.72-0.41 3.28zm68.48 1.22c-1.495-2.365-2.202-3.809-4.511-2.871 2.565 3.176 4.301 7.182 5.741 11.481 3.31-2.97 0.41-6.01-1.23-8.61zm7.79 6.16c0.086-0.46 0.455-0.638 0.819-0.82-0.015-1.352-1.166-1.567-2.46-1.64-0.84 1.5 0.5 1.87 1.64 2.46zm-100.46-0.82c-0.061 1.018-0.076 1.99 0.82 2.051 0.399-1.104 0.904-2.103 1.229-3.281h-1.229c0.49 1.13 0.44 2.17-0.82 1.23zm159.51 1.64c1.036-1.826-1.276-2.1-2.461-2.871-0.81 1.21 1.36 2.27 2.46 2.87zm17.63 1.64c0.969-1.018 0.163-2.573-1.641-2.05-0.1 1.33 0.49 1.97 1.64 2.05zm-185.35 0c0.129-0.554 0.583-0.783 0.41-1.64h-1.23c-0.11 0.93 0.1 1.54 0.82 1.64zm110.31 2.05c-0.377-0.716-1.282-0.905-2.46-0.82-0.89 1.74 2.57 2.47 2.46 0.82zm116.46 2.87c-0.27-0.55-0.877-0.764-1.641-0.82-1.68 1.37 1.83 3.24 1.64 0.82zm-119.33 3.28c1.05-0.317 2.324-0.409 2.87-1.23-1.272 0.042-1.17-1.29-2.87-0.82v2.05zm41.01 4.51c1.868-0.762 2.18-2.236 1.641-4.51-1.224-0.964-2.835-1.54-4.511-2.051-1.8 2.17 0.85 5.61 2.87 6.56zm-37.73-1.23c0.657-1.143-1.771-1.134-1.641-0.41 0.56 0.13 0.78 0.58 1.64 0.41zm-95.13 16.4c-2.754 2.478-3.248 5.823-5.331 9.021-0.446 0.686-1.57 0.986-2.05 1.64-1.153 1.57-1.947 3.596-3.28 5.331-2.144 2.79-4.707 5.522-6.562 7.792-1.352 1.653-2.449 3.965-3.28 5.33-0.313 0.514-0.508 1.581-0.82 2.051-1.881 2.825-5.632 5.101-6.561 7.791-0.248 0.718-0.347 2.559-0.41 3.69-0.172 3.121 0.073 7.845 0.41 10.662 0.571 4.771 3.141 8.665 4.101 12.712 6.804 6.69 10.992 14.799 22.553 13.532 1.253-0.138 2.681-1.021 4.101-1.23 4.582-0.674 6.481-1.422 10.662-2.461 1.312-2.401 3.261-4.137 5.331-5.74 4.705-3.646 9.158-7.121 13.532-11.072 6.66-6.017 14.017-11.926 22.553-15.582 5.317-3.834 12.06-7.087 19.273-9.432 2.339-0.76 5.249-1.578 7.791-2.05 3.582-0.666 5.354-1.755 8.201-2.461 3.99-0.988 8.425-0.458 12.712-1.23 0.002-3.556-3.234-3.872-4.921-5.74-4.928 0.007-7.067-2.773-11.892-2.871-8.034-5.36-6.419-20.371-11.892-28.294-3.456 2.916-6.019 4.07-10.252 6.151-2.228 1.095-4.466 2.184-6.561 2.46-3.425 0.452-9.232-0.174-11.482-0.82-1.147-0.33-2.021-1.54-3.28-2.05-2.213-0.896-5.139-0.804-7.381-1.641-6.326-2.36-11.649-8.827-18.863-6.151 5.076 21.209 9.635 46.378 17.223 66.431-3.322 2.418-6.299 5.183-9.021 8.201-0.62-1.156-0.99-2.563-0.819-4.511-3.178-3.877-1.672-9.37-4.101-12.712-0.515-1.248-0.313-1.595 0.409-2.46-1.019-0.758-2.313-1.24-2.87-2.461 1.514-5.962-7.981-6.45-6.561-12.302 0.687 0.67 1.988 2.057 3.28 2.871 1.016 0.64 3.187 2.787 4.101 0.819 0.827-1.66-3.18-2.004-4.101-3.28 0.322-0.908 2.538 0.078 2.05-1.641-0.062-1.44-2.508-0.498-2.46-2.05 0.715-0.117 2.201 1.31 2.051-0.41-1.455-1.279-3.516-1.952-4.921-3.28-0.176-1.887-1.012-4.2 0.819-4.921 1.485 0.565 2.647 3.179 4.511 2.05-0.296-3.121-3.798-3.035-5.33-4.92 1.514-0.564-0.433-2.045 1.229-2.461 0.833 1.255 0.967 3.791 3.691 2.461 0.494-2.956-2.441-2.48-2.461-4.921 0.775-0.183 2.472 0.558 2.051-0.82-0.274-2.05-2.318-2.329-1.641-5.331-0.71-1.067-3.385-0.169-3.28-2.05 0.534-0.739 2.604 0.9 2.46-1.23 0.095-2.418-3.445-1.202-3.28-3.69 1.994-0.354 2.106 1.174 4.101 0.82-0.039-4.373-5.939-4.944-4.921-9.021 2.589-0.128 4.195 0.946 5.741-0.41-2.079-1.339-4.714-2.121-7.381-2.871-1.66 5.57-5.8 8.68-6.97 14.75zm100.05-10.66c-2.191-0.951-3.346-2.941-6.562-2.87 0.45 2.43 4.75 3.17 6.56 2.87zm34.04 2.87c2.154 0.08 0.811-2.406-0.41-2.461-0.3 1.25 0.71 1.21 0.41 2.46zm80.78 2.46c1.539 0.976 4.032-0.604 5.741-0.82 0.022-0.705-0.315-1.051-0.82-1.229-1.06 1.51-4.72 0.8-4.92 2.05zm-111.54 3.69c0.19-1.283-0.356-1.83-1.64-1.64-0.28 1.38 0.69 1.5 1.64 1.64zm29.12 4.51c0.461 0.087 0.639 0.455 0.82 0.82 1.337 0.106 1.974-0.486 2.051-1.641-1.23-0.57-2.51-0.48-2.87 0.82zm6.56 0c0.046 0.501 0.122 0.971 0.82 0.82 4.042 0.296 11.36 3.84 13.941 0.41-5.09 0.01-11.09-1.17-14.76-1.23zm-11.89 2.87c1.34 0.604 4.274-0.235 4.101-2.461-2.26-1.52-3.22 1.3-4.1 2.46zm40.18 15.58c-0.629-0.888-2.79-3.164-0.82-4.101 2.24 0.493 2.32 3.147 4.921 3.28-1.983-3.66-4.455-7.28-6.15-10.661-0.612-1.221-0.885-2.843-2.051-3.69-8.052 5.343-15.973 14.371-25.834 19.272-4.208-2.392-11.057 1.1-16.402 0.41-0.299 2.129-2.26 4.432-1.23 6.562 1.835 0.492 3.381-1.877 4.101 0-0.197 1.988-2.605 1.768-3.28 3.28 2.013 0.407 3.022-0.619 3.28 1.229-1.285-0.453-1.155-0.264-1.64 0.82 0.935-0.114 1.541 0.099 1.64 0.82-4.583 3.208-8.776 6.806-12.302 11.072-0.278 4.51-5.355 6.12 0 7.791 1.147-1.724 3.771-1.971 4.921-3.691-1.679-1.947-1.937-7.023 1.641-6.971 1.015 1.036 1.9 2.2 2.05 4.101 1.951 1.013 3.72-0.283 5.741-0.41 1.16 1.984 3.493 2.703 5.331 4.101 1.084 0.825 1.83 2.876 2.46 3.281 1.036 0.666 5.101 1.64 5.331 1.64 3.878 0.009 8.181-3.146 10.661-6.15-2.525-0.481-4.877-1.138-6.561-2.461-2.302 0.984-3.35 5.392-6.562 4.101 0.827-2.316 3.443-2.844 3.691-5.74 1.847-1.297 4.01-2.277 4.101-5.331-3.815 0.559-4.738 4.01-8.201 4.921 0.987 1.67-2.717 3.274-3.691 2.87 0.277-2.047 1.815-2.832 3.281-3.69 1.261-2.023 5.429-4.684 7.791-6.971 1.159-0.34 1.062 0.577 2.05 0.409-0.843-3.601-8.956-10.992-2.46-12.712 1.268 1.74 3.562 2.452 5.331 3.691 0.305-1.672-1.322-1.412-0.82-3.281 1.5-0.27 1.573 0.888 2.87 0.82 0.236-0.721-0.495-2.409 0.41-2.46 1.956-0.316 1.82 1.46 3.69 1.229-0.101-1.95-2.976-2.849-2.05-4.511 2.649 1.179 4.633 3.022 6.971 4.511-0.124-1.938-3.26-3.013-2.46-4.511 2.632 0.239 3.249 2.492 5.74 2.871-0.937-2.892-4.253-3.401-4.921-6.562 5.493 1.069 6.574 6.549 11.893 7.791-1.546-4.88-9.092-5.942-9.432-10.661 2.97 0.32 4.46 4.29 6.97 3.69zm79.55 68.07c0.199-2.671 1.629-4.111 2.87-5.74 1.41-5.226 2.442-14.006 0.41-18.863-1.594-3.812-3.63-9.929-4.921-11.892-0.632-0.961-1.76-1.592-2.46-2.461-1.847-2.29-4.067-5.126-4.921-8.201-1.192-4.296-0.7-8.934-1.641-13.532-0.287-1.406-1.363-3.401-2.05-4.92-2.37-5.238-4.785-9.52-6.972-14.353h-1.229c-1.657 2.171-2.929 4.726-3.281 8.201 2.033 0.255 2.173-1.382 4.511-0.82 1.832 1.938 1.48 6.626-1.229 7.381-1.723-0.328-2.582-1.519-2.871-3.28-2.32 0.414-3.38 2.087-4.511 3.69 5.742 5.194 7.469 14.402 9.842 22.964-3.146 4.592-6.288-1.562-6.15-5.331-2.837-2.768-7.071-4.138-6.972-9.841-1.774 0.462-2.431 1.99-4.101 2.87-4.882 2.57-12.062 2.526-17.633 4.511 0.292 6.269 4.433 8.689 6.562 13.122-1.869 0.394-3.534-0.772-2.461-2.051-5.462-0.397-6.654-6.851-6.971-11.071-5.111 0.285-11.244 1.601-14.763 2.46-5.352 1.307-11.564 1.423-14.352 5.331 3.116 1.442 5.931 4.748 9.431 4.511 1.801 1.014 3.315 4.229 5.331 3.69 0.313-1.788-2.06-2.246-0.82-3.69 3.7-0.692 4.549 1.466 6.562 2.46-0.364-2.32-3.073-4.188-2.051-6.561 2.293-1.434 1.967 1.727 4.101 1.641 0.037-2.748-1.126-3.665-0.41-6.151 1.345-0.023 1.568-1.166 3.281-0.82 2.567 11.879 10.915 18.599 21.733 21.733 1.457 0.422 3.486-0.737 4.101 1.641-1.361 4.147-6.171 0.286-9.432 0.41-1.271 0.048-2.141 0.868-3.28 0.819-2.11-0.09-3.888-1.179-5.741-1.229-1.176 1.284-4.196 0.724-5.331 2.05 16.901 11.94 27.441 30.241 44.697 41.826 8.08-3.13 6.61-15.8 13.11-20.51zm-348.96-78.73c1.761 0.837 3.075 2.119 5.331 2.461-0.83-1.44-3.9-4.25-5.33-2.46zm-48.39 6.56c1.994 1.348 5.891 2.774 9.021 1.641 0.39-2.851-3.161-1.761-4.921-2.461-1.272-1.188-1.951-2.97-3.69-3.69 0.24 1.87-0.72 2.56-0.41 4.51zm43.88-2.05c0.175-0.782 1.171-0.742 0.82-2.051-0.554-0.129-0.783-0.584-1.64-0.41 0.01 1.09-0.23 2.42 0.82 2.46zm-1.23 4.1c0.344-0.476 0.541-1.099 0.41-2.05-1.51-0.39-1.63 2.02-0.41 2.05zm25.83 1.23c2.423 0.311 3.179 2.288 5.741 2.461-0.031-0.715 0.091-1.275 0.41-1.641-2.51-0.02-5.02-5.48-6.15-0.82zm-28.7 3.28h2.46c-0.004-1.09 0.155-2.343-0.41-2.871h-1.23c-0.68 0.55-0.14 2.33-0.82 2.87zm27.47-1.64c1.026 0.051 1.284 0.782 1.64-0.41-0.542-0.005-0.375-0.719-0.82-0.82-0.03 0.65-1.04 0.33-0.82 1.23zm261.21 3.28c-1.61-0.44-1.629-2.472-3.69-2.46 0.46 1.34 2.59 3.14 3.69 2.46zm-256.69-0.41h0.82c0.638-1.009-1.393-1.206-1.23-0.41 0.25 0.03 0.48 0.07 0.41 0.41zm-31.99 1.65v-1.641h-1.641c-0.19 1.28 0.36 1.82 1.64 1.64zm326 3.28c3.129 0.289 2.302 4.533 4.921 5.331-0.873-3.911-2.674-6.895-5.331-9.021-0.13 1.49 0.06 2.66 0.41 3.69zm-275.97 4.92c-0.958-1.365-2.444-2.203-3.69-3.28 0.43 1.63 2.44 3.82 3.69 3.28zm-29.53 0.82c0.126-0.968 1.424-0.763 1.23-2.051-1.16-0.31-2.42 1.34-1.23 2.05zm184.94 0.41c-0.443 0.712-2.001 0.504-3.69 0.819-4.118 0.771-9.089 2.418-11.892 3.691-3.025 1.373-6.068 2.519-9.021 3.69-0.29 0.114-0.513 1.087-0.82 1.229-0.772 0.359-2.058 0.444-2.87 0.82-5.2 2.408-9.197 4.672-13.532 6.972-0.832 0.261-0.271 1.917-1.23 2.05-16.688 11.471-31.191 25.124-56.589 27.885-6.038-1.6-11.305-3.181-15.172-6.151-4.032-5.37-8.771-10.776-10.252-18.453-0.538-2.787 0.378-5.8-1.23-8.611-1.434 4.872-0.927 9.716 0 12.712 1.129 3.651 1.63 4.313 3.28 6.972 1.118 1.801 1.875 4.093 2.46 4.921 1.204 1.703 3.296 2.343 5.331 3.69 5.014 3.32 8.343 6.33 16.812 5.74 2.258-0.156 4.202-0.278 6.151-0.409 2.148-0.146 4.156-1.5 6.15-2.051 3.766-1.039 7.575-1.574 11.072-2.87 3.871-1.435 6.619-3.485 9.431-4.511 0.329-1.636 1.166-2.113 2.051-2.871 1.877-1.606 4.537-2.961 6.971-4.51 7.359-4.687 14.589-8.887 21.733-13.532 9.239-6.009 18.624-10.276 29.935-13.532 0.947-0.272 1.617-0.663 2.461-0.82 2.465-0.459 7.458 0.95 8.201-2.461-1.09-0.95-3.94-0.15-5.73-0.41zm-252.6 1.64c0.531-1.521-2.428-1.629-2.871-0.82 0.69 0.54 1.38 1.08 2.87 0.82zm3.69 2.87c0.727-0.094 2.053 0.413 1.64-0.82h-1.64v0.82zm239.07 4.92c-3.63 1.165-5.72 2.302-8.611 3.691-3.978 1.91-6.659 3.689-9.841 5.33-1.717 0.886-3.332 1.545-4.921 2.461-3.222 1.856-6.618 3.24-9.021 5.74 14.784-0.401 36.888-1.426 54.128-1.64-1.958-1.866-5.459-4.402-4.92-7.791 0.339-2.133 2.393-1.967 3.28-4.101-0.902-0.602-3.057 0.049-3.28-1.23 0.218-1.832 1.233-2.867 0.819-5.331-6.91-1.09-13.07 1.4-17.64 2.87zm-238.66-1.23c0.319 0.09 0.477 0.343 0.41 0.819 0.951 0.131 1.575-0.065 2.05-0.409 0.46-2.37-2.13-1.6-2.46-0.41zm29.12 1.23h1.23v-1.229h-1.23v1.23zm-50.85 1.64c-1.915 0.331-2.621-0.263-3.691 0.41 0.49 0.37 3.88 1.15 3.69-0.41zm7.79 0.41c-0.966 0.009-1.208-0.706-2.46-0.41-0.04 1.51 2.05 1.41 2.46 0.41zm40.19 0.41h1.23c0.053-0.736-0.407-0.96-1.23-0.82v0.82zm272.28 0v1.23c2.184 0.55 3.749 1.717 6.561 1.64-0.96-1.99-4.54-3.28-6.56-2.87zm18.86 14.35c1.722-0.309 2.921 1.478 4.101 2.461 6.837 5.697 12.635 12.114 18.043 18.863 2.199 2.744 4.703 5.399 6.561 8.201 0.415 0.624 0.472 1.484 0.82 2.05 2.89 4.688 7.079 8.759 9.432 13.532 0.838 0.393 1.623 0.838 2.461 1.23 2.862 4.546 6.839 8.239 10.251 12.302 6.962 8.287 14.758 16.404 23.374 22.554 4.496 3.209 9.453 5.572 13.941 9.021 2.551 0.466 5.387 0.811 7.792 1.64 2.058 0.71 4.155 3.227 5.74 1.641-4.751-0.986-7.218-3.212-10.661-5.331-1.945-1.197-4.276-2.028-6.151-3.28-1.047-0.699-0.748-1.568-0.82-1.641-0.204-0.205-0.983 0.164-1.229 0-2.925-1.949-5.727-3.735-8.201-5.74-8.132-6.587-17.345-13.406-22.554-22.144-7.128-6.946-12.453-15.482-18.043-23.784-6.731-9.997-14.84-19.426-22.964-27.474-4.504-4.463-9.117-8.966-14.762-11.893-0.299-2.001-2.418-3.987-4.101-3.28-2.52 5.52 5.5 6.88 6.97 11.07zm-273.51-5.33c1.081 0.123 1.346-0.568 1.23-1.641-1.7-0.11-1.65 0.49-1.23 1.64zm82.01 36.08c0.309-1.538-1.566-0.894-1.64-2.05 0.396-5.184-5.014-6.738-4.511-10.662 3.005 2.82 5.193 6.801 7.381 9.842 1.144 1.591 2.058 4.433 4.51 3.28-0.234-4.959-4.514-5.874-5.741-9.841-0.428-0.705-2.4-0.509-1.23-1.641 2.418 0.999 3.226 3.608 6.151 4.101 1.357 2.88 3.334 5.14 5.331 7.381 5.773-0.41 11.601-1.431 14.353-4.101-4.212 0.588-6.845-1.405-9.432-2.46-1.025-0.418-2.146-0.362-3.28-0.82-2.601-1.05-7.129-3.181-9.021-4.511-4.281-3.009-6.828-7.957-9.842-11.481-1.354-4.25-3.715-7.494-2.87-13.942-1.287 0.272-1.186 1.843-1.641 2.87-2.472 5.588-4.513 11.7-2.87 18.043 1.457 5.625 5.564 11.374 9.431 13.942-2.271-3.882-6.409-8.077-6.561-12.712 4.9 3.85 6.38 11.12 11.48 14.76zm136.14-33.62c0.481 0.518 1.704 0.329 1.641-0.82-0.93-0.12-1.54 0.1-1.64 0.82zm-294.83 18.45c4.561-3.376 8.384-11.372 6.561-18.453 0.06 8.38-3.61 12.34-6.56 18.45zm299.75-16.81c-0.319 1.271 2.906 2.461 2.87 0.82-0.91-0.37-1.89-1.75-2.87-0.82zm5.34 4.1c-0.062-0.546 1.667-1.237 0.41-1.641 0.06 0.55-1.67 1.24-0.41 1.64zm46.33 4.92c-0.669-1.929-2.235-2.96-3.69-4.101-1.88 1.88 1.93 3.33 3.69 4.1zm-341.99 0.41c0.075-0.895-0.335-1.305-1.23-1.23-0.07 0.9 0.33 1.31 1.23 1.23zm51.26 1.23v-1.229h-1.23c-0.08 0.9 0.33 1.31 1.23 1.23zm196.01-0.41c-10.123-1.21-18.923 3.147-28.295 2.461 6.434 14.069 13.993 27.013 20.504 41.006 5.083 0.792 10.036 0.231 14.762 0 1.549-14.354 1.278-24.769 2.871-38.136-9.599-1.982-20.775 1.855-30.755 0 1.333-1.563 3.473-1.516 5.33-1.64 4.584-0.307 9.704 0.391 14.763 0 5.187-0.401 10.105-0.735 14.353 0.409 2.507-1.414 6.37-0.662 9.841-0.819 3.892-0.177 8.458-1.697 10.252 0.41-1.966 2.773-7.327 1.473-11.481 1.64-2.839 0.114-5.393 0.413-6.972 0.41 2.289 6.38 4.229 13.327 6.151 20.093 1.42 4.999 3.024 9.795 4.511 14.763 2.113 7.064 2.714 14.629 5.741 21.323 0.587-4.616 2.19-8.948 0.409-13.122 3.064-8.001-0.021-21.793 6.972-28.294-1.796-2.032-1.914-5.792-2.871-9.021-0.804-2.713-3.682-6.303-0.409-8.201 2.386 2.863 3.411 7.847 4.511 11.481 0.393 1.298 0.553 3.284 1.64 4.101 3.299-4.164 3.89-13.521 2.051-19.272-14.98-1.15-31.36 1.91-43.87 0.41zm-256.7 1.23h1.23c0.115-0.935-0.099-1.541-0.82-1.64-0.13 0.56-0.59 0.78-0.41 1.64zm32.39-0.82c0.775-0.182 2.471 0.558 2.05-0.819-1.01-0.06-1.99-0.08-2.05 0.82zm-1.23-0.41c-0.85 0.244-2.694-0.507-2.87 0.41 0.88 1.58 2.24 1.12 2.87-0.41zm-5.74 1.23h0.82v-0.82h-0.82v0.82zm29.53 1.23c1.478 0.11 2.836 0.103 2.46-1.641-1.34 0.03-2.21 0.53-2.46 1.64zm-6.16 1.23h0.82v-0.82h-0.82v0.82zm287.05 2.05c1.855 0.469 2.506 2.143 4.511 2.461-0.977-1.757-1.734-3.733-3.28-4.921-0.57 0.67-1.45 1.01-1.23 2.46zm21.73 4.92c-1.028 0.338-3.53-0.797-3.28 0.82 1.521 2.078 6.35-0.646 8.201 1.64-0.232 1.682-2.445 1.383-2.87 2.871 2.434-0.192 4.357-0.426 6.971-1.23-2.752-4.023-7.258-11.683-12.712-11.481 0.94 2.75 4.83 2.55 3.69 7.38zm-20.09 0c2.511 1.937 5.164 4.713 7.791 5.331 0.721 0.169 2.246 2.621 2.461 0.41-4.939-2.442-8.103-6.661-13.122-9.021 0.35 1.83 1.61 2.31 2.87 3.28zm-127.12-1.23c0.601 2.004 2.111 5.259 4.101 4.511-1.576-0.475-0.509-3.593-0.82-5.331-1.6-0.24-2.38 0.36-3.28 0.82zm-1.23 1.23c-1.308 0.196-2.5 0.507-2.87 1.641 1.957 2.416 4.121 4.626 5.33 7.791 2.159 0.396 2.058 4.92 4.921 3.28-0.56-4.51-5.2-8.44-7.38-12.71zm60.69 2.46c0.555 0.13 0.783 0.584 1.64 0.41v-1.229c-0.93-0.11-1.54 0.1-1.64 0.82zm-66.84 1.64c1.649 3.682 4.497 6.165 6.972 9.021-0.276 2.45 1.79 4.326 3.69 3.28-1.412-3.782-4.191-6.196-6.151-9.432-0.122-2.2-1.219-3.428-2.46-4.511-1.4-0.17-1.23 1.23-2.05 1.64zm-2.87 2.46v1.23c1.371 0.898 2.344 2.321 3.28 3.69 1.804 2.639 2.638 6.562 6.151 7.382-0.352-4.598-5.885-7.492-6.972-12.712-1.01-0.05-1.98-0.06-2.46 0.41zm-3.28 2.47c-0.127 2.803 2.354 4.405 3.69 6.15 1.26 1.646 2.081 4.829 4.921 4.921-1.774-4.65-4.578-8.271-7.382-11.892-0.11 0.57-0.9 0.46-1.23 0.82zm-199.29 2.04c0.196 4.13 5.73 0.677 6.561-0.819-1.93 0.53-3.8 1.13-6.56 0.82zm196.42 2.88c3.452 2.289 3.974 7.508 8.202 9.021-1.544-4.608-4.538-7.765-7.792-10.662-0.13 0.55-0.58 0.78-0.41 1.64zm-2.87 2.46c2.736 3.142 4.391 7.364 7.791 9.842 0.021-4.021-4.572-6.883-5.74-11.072-0.775 0.093-0.905-0.462-1.641-0.409 0.03 0.71-0.09 1.27-0.41 1.64zm25.01 3.28v-1.229h-1.229c-0.07 0.89 0.34 1.3 1.23 1.23zm53.31 4.1c2.266-0.029 1.193-4.574 0-4.92-0.43 1.15-0.78 3.83 0 4.92zm-77.5-1.23c-0.509-1.269-1.012-2.543-2.051-3.281-1.16 1.55 1.16 2.47 2.05 3.28zm17.63-1.64c0.05 1.044 0.597 1.59 1.64 1.641-0.092-0.775 0.463-0.905 0.41-1.641-0.78-0.77-1.03-0.05-2.05 0zm-173.46 2.87c1.196 0.604 1.196-1.833 0-1.229v1.23zm370.7 2.46c7.994 7.452 17.039 13.852 27.475 18.862-3.332-3.382-7.73-5.584-11.893-8.201-5.396-3.393-10.899-7.806-14.762-11.892-0.091-0.319-0.344-0.477-0.82-0.41v1.64zm-126.71 7.79c-0.232-1.271 0.112-3.118-1.229-3.28 0.04 1.46 0.19 2.81 1.23 3.28zm133.27 9.02c0.069-1.162 0.752-1.709 0.82-2.87-3.724-2.975-7.081-6.314-11.071-9.021-0.005-0.414-0.719-0.516-0.82 0 3.68 3.97 5.9 9.41 11.07 11.89zm-387.1-10.66h1.23c0.053-0.735-0.407-0.959-1.23-0.819v0.82zm-13.12 1.64c0.022-0.705-0.316-1.052-0.82-1.23-0.59 0.6-0.6 1.59 0.82 1.23zm8.61 1.23c1.355 1.056 3.004-0.335 3.28-1.641-1.35-1.06-3.07 0.26-3.28 1.64zm244.81-0.41h-2.051c-0.52 2.15 2.31 1.19 2.05 0zm-249.73 2.05c0.706 0.022 1.051-0.315 1.23-0.819-0.64 0.04-1.42-0.06-1.23 0.82zm-14.76 11.89c1.146 0.51 2.575 2.871 3.28 2.46-0.728-0.776-0.299-2.708-0.41-4.101-3.374-1.138-3.058-5.964-6.151-7.381-1 3.53 3.6 4.82 3.28 9.02zm439.59-0.41c-1.225-0.029-2.286-2.33-3.69-0.82 0.97 0.28 2.76 1.86 3.69 0.82zm-198.47 18.86c-3.849 2.205-7.768 3.153-11.481 4.511-5.149 1.883-11.103 3.359-15.993 4.921-0.901 0.288-2.385 0.731-2.87 1.641 4.495 0.633 9.675-2.569 13.942-2.051 7.064-2.922 15.494-6.018 22.554-8.611 2.18-0.801 6.344-0.869 6.561-4.101-5.36-1.49-7.07 4.11-12.71 3.69zm-32.4 11.49c-0.597 0.224-2.12-0.479-2.051 0.41 0.6-0.23 2.12 0.48 2.05-0.41zm-11.89 3.28c1.271 0.041 2.274-0.186 2.871-0.82-0.93 0.29-3.2-0.74-2.87 0.82zm-6.56 1.64c1.466-0.175 2.188-1.093 4.101-0.82-0.33-1.71-4.48-0.84-4.1 0.82z"/>
	<path d="m52.173 385.66c0.436 2.076-1.212 2.068-1.64 3.281 0.204 4.168-2.952 4.977-6.561 5.33-0.472-0.484-0.464-1.449-0.41-2.46 1.715-0.824 3.183 0.367 4.511-0.41-0.419-1.346-1.244-1.808 0-2.87-1.289-0.008-2.288 1.354-3.28 0.41 1.181-2.26 5.006-3.53 7.38-3.28z"/>
	<path d="m88.258 374.58c0.663-0.115 0.706 0.388 1.23 0.41 1.803 4.882 5.212 10.238 7.381 15.172 0.658 1.496 0.764 3.444 0.41 5.741-1.119 0.299-0.825-0.814-1.64-0.82-0.795 0.572-0.611 2.122-1.23 2.871-0.857-0.236-1.17-1.018-2.46-0.82 1.834-1.213-0.623-3.593-0.82-5.331-1.229 0.964 0.926 4.866-2.05 5.741-1.285-4.718-2.829-9.279-4.511-13.532-1.167-2.95-3.653-5.621-2.871-9.021 3.867 3.241 4.827 9.389 7.381 13.942 0.303-4.021-3.751-9.336-3.69-13.122 2.078-0.425 1.85 2.03 2.46 3.28 0.715 1.465 1.776 2.967 2.46 4.511 0.583 1.314 0.133 3.707 2.05 4.101 0.095 2.092 1.149 3.226 2.05 4.511-0.661-5.36-5.636-12.11-6.15-17.63z"/>
</g>
<metadata><rdf:RDF><cc:Work><dc:format>image/svg+xml</dc:format><dc:type rdf:resource="http://purl.org/dc/dcmitype/StillImage"/><cc:license rdf:resource="http://creativecommons.org/licenses/publicdomain/"/><dc:publisher><cc:Agent rdf:about="http://openclipart.org/"><dc:title>Openclipart</dc:title></cc:Agent></dc:publisher><dc:title>spray painting a car</dc:title><dc:date>2008-03-06T04:35:00</dc:date><dc:description>Wide Road Ahead! The Building of an Automobile by Henry B. Lent New York THE MACMILLAN COMPANY 1934 archive.org states as PD</dc:description><dc:source>http://openclipart.org/detail/15509/spray-painting-a-car-by-johnny_automatic</dc:source><dc:creator><cc:Agent><dc:title>johnny_automatic</dc:title></cc:Agent></dc:creator><dc:subject><rdf:Bag><rdf:li>car</rdf:li><rdf:li>clip art</rdf:li><rdf:li>clipart</rdf:li><rdf:li>externalsource</rdf:li><rdf:li>factory</rdf:li><rdf:li>image</rdf:li><rdf:li>industry</rdf:li><rdf:li>media</rdf:li><rdf:li>painting</rdf:li><rdf:li>png</rdf:li><rdf:li>public domain</rdf:li><rdf:li>svg</rdf:li><rdf:li>transportation</rdf:li></rdf:Bag></dc:subject></cc:Work><cc:License rdf:about="http://creativecommons.org/licenses/publicdomain/"><cc:permits rdf:resource="http://creativecommons.org/ns#Reproduction"/><cc:permits rdf:resource="http://creativecommons.org/ns#Distribution"/><cc:permits rdf:resource="http://creativecommons.org/ns#DerivativeWorks"/></cc:License></rdf:RDF></metadata></svg>
