<svg id="spray_painting_a_car_Image" data-name="spray painting a car Image" xmlns="http://www.w3.org/2000/svg" viewBox="0 0 620.93 402.52"><defs><style>.cls-1{fill:#fff;fill-rule:evenodd;}</style></defs><path class="cls-1" d="M7.48,23.16C4.9,18.07,4,7.73,10.76,6.76c.69-.15.77.32.82.82C5.26,9.46,10.63,18.5,7.48,23.16Z" transform="translate(0 0)"/><path class="cls-1" d="M23.06,9.63c-.25,2-2.69,1.36-5.33,1.64-2.37.25-5,2.19-6.56,1.23C11.34,7.73,20,7.78,23.06,9.63Z" transform="translate(0 0)"/><path class="cls-1" d="M216.2,37.51c1.64.41,1.23-1.23,2.87-.82,1.64.06,3,1.24,4.51,1.64,5.2,1.37,11,1.35,16,2.87,2.52.77,4.27,2.87,7,2.46,5.69,3.19,11.45,5.31,16.41,9s8.24,8.25,12.3,12.71c1.83,3.24,3.17,7.81,4.92,12.72,1.24,3.49,3.54,8.67,4.51,13.53.87,4.38.42,6.86-1.64,9.43-7.16,1.42-17.7-.93-25.83-1.64-8.64-.75-17.48-.61-25.84-2.05,3.06-3.44,11.14-1.17,18-.82,6.55.33,13.67,1.78,20.1,2,4.07.17,7.31-.45,11.48,0,.8-6.51-1.21-13.88-4.51-20.09-.59-1.1-1.58-2.14-2.05-3.28-.65-1.58-.56-3.45-1.23-4.93-2.44-5.34-10.32-12.05-15.58-15.58A56.25,56.25,0,0,0,246.13,49c-1-.35-2.56-.06-3.69-.41s-1.93-1.39-2.87-1.64A102.07,102.07,0,0,0,224,44.48c.12,1.21,2.57,3.19,3.69,3.28A51.66,51.66,0,0,1,235.47,49c3.64.88,6.71,1.65,9.84,2.46,9,2.32,17.73,10.71,22.56,17.63,4.5,6.46,9.38,15.64,8.61,26.66-12,2-26.41-2.09-39-2,.85-2.9,5.39-4.11,4.51-7.38-1.61-.79-1.16,1-1.64,1.64-1.1,1.46-3.11,2.45-4.1,4.51-2.51.5-5.85.16-8.2.82-.07-2.39-2.32-2.6-4.92-2.46.79-3,3.43-4.23,4.92-6.56.94-6.32,6.89-12.33,3.69-20.1-.58-1.41-1.46-5.15-2.87-7-1.55-2-5.34-2.32-4.92-5.33.54-1.64,3.17-.08,4.1.41,4.11,2.19,7,7.61,9.84,11.48,1.16,5.48,1.89,11-.41,16,4.18-.59,3-8,2.46-11.08-.22-1.36.22-3,0-4.1-.47-2.39-2.52-4.52-3.69-7-.72-1.5-.59-2.75-1.23-3.69-2.45-3.62-7.05-4.31-10.66-5.74-1.69-3.5-6-4.42-10.25-5.33-.06-2.77.65-4.38-.41-6.15-1.16-1.95-3.64-1.66-5.33-3.28a19,19,0,0,0-4.1-9.43,26.59,26.59,0,0,0-6.15-5.33c-.43-.23-1.62-.06-2.46-.41-3.07-1.31-6.51.49-10.26-.41,1.29-1.88,6.11-2.54,9-2,8.06,1.35,14.62,9,16.41,16.81,1.87,1.55,4.73,2.11,5.34,4.92Z" transform="translate(0 0)"/><path class="cls-1" d="M35.36,28.9a35.93,35.93,0,0,1,9.84,1.23c2.06.46,4.65.72,6.15,1.23,2.11.71,4.08,2.52,6.15,3.69s4.75,1.74,6.56,2.87c2,1.23,4.06,3.64,5.75,5.33s3.9,3.58,4.1,5.74c-3.4-.84-4.9-3.57-7.8-4.92-3.43-.35-5.65,2.45-7.79,2,.17-3,4.5-2.94,6.56-2.87-.06-2.19-2.69-3.48-4.51-4.51C53.11,34.62,45,30.63,32.9,31c-.39-2.48-2.15-3.6-3.69-4.92-4.89-.9-9.34-1.62-13.94-.41-1.94.51-3.78,2.61-5.74,1.23-.19-1.79,1.66-2.15,3.28-2.87,5-2.22,15.64-1.88,20.5,1.23C33.69,26.74,35,27.36,35.36,28.9Z" transform="translate(0 0)"/><path class="cls-1" d="M7.07,24.39c.44.1.27.81.82.82C7.71,26.34,6.6,25.23,7.07,24.39Z" transform="translate(0 0)"/><path class="cls-1" d="M31.67,40a2.3,2.3,0,0,0,1.64.41c-.05,1.18.22,2.69-.41,3.28C30.47,44.16,30.4,40.84,31.67,40Z" transform="translate(0 0)"/><path class="cls-1" d="M50.12,41.61c-5.14.06-8.44,2-9.43,6.15-1.9-.5-.81-2.41-.82-4.1,1.67-.64,3.77-3.1,7-3.28C48.05,40.31,50.2,39.88,50.12,41.61Z" transform="translate(0 0)"/><path class="cls-1" d="M219.07,52.27c-1,3.87-6.15,2.68-9,1.23.75-2,.22-1.92.41-3.28,3.4-1.4,6.71.61,8.61,2.05Z" transform="translate(0 0)"/><path class="cls-1" d="M149.36,88.36c1-3.82,4.43-5.14,5.33-9-1.77-2.3.11-4.37,0-6.56-.26-5.08-4.2-10.47-8.2-13.53-3-2.27-7.09-2.88-9.84-4.93V53.09c.33-.07.41-.41.82-.41,11.21,3.22,22,13.18,19.27,28.3-.6,3.28-3.43,7.9-7.38,7.38Z" transform="translate(0 0)"/><path class="cls-1" d="M223.17,80.57c-.94-1.8.62-3.07,1.23-4.51-1.67-.34-1.41-.06-3.28,0-.48-4.17-.31-9-2.87-11.07.44-2.57.9-3,0-5.34,1.19-1.13,1.3-3.34,2.87-4.1,3.9,1.3,8.75,4.07,9.84,8.62.62,2.55.59,7.48-.41,9.84-.52,1.22-2,1.78-2.87,2.87s-1.08,4.71-4.51,3.69Z" transform="translate(0 0)"/><path class="cls-1" d="M59.55,77.29c-4.12-1.64-7-6.76-11.89-8.61-3.61-1.36-8.72-1.66-13.12-2.05a18.87,18.87,0,0,0-3.28,0c-3,.48-4.59,3.32-7.79,2.87.12-2.61,3.39-2.08,4.1-4.1a50.35,50.35,0,0,1,14.76,0c1.21.19,2.2.94,3.28,1.23,2,.51,4.31.29,6.15,1.23s3.54,2.9,4.92,4.1S61.1,75.06,59.55,77.29Z" transform="translate(0 0)"/><path class="cls-1" d="M100.15,77.29C97,77,97.32,73.84,95.23,72.37c-.82-.58-2.79-.52-4.92-1.23-1-.32-1.83-1.15-2.46-1.23-3.8-.52-11.33.49-14.76.41,1.91-2.66,6.31-2.7,9.84-2.46,4.35.29,8.78,2.26,12.3,2.46C96.92,72.37,101,74,100.15,77.29Z" transform="translate(0 0)"/><path class="cls-1" d="M64.47,92.05C60.33,89.16,56.77,82.2,50.53,81c-3.09-.61-6.59.78-9.43.82.78-2.35,4.41-2.89,6.15-2.87,5,0,9.86,3.64,13.12,6.56C62.57,87.45,65.59,89.79,64.47,92.05Z" transform="translate(0 0)"/><path class="cls-1" d="M161.25,79.34c5.46.45,8.95,5.58,11.89,10.25a38.94,38.94,0,0,1,5.33,21.73c-.33,4.64-2.09,12.62-7,12.3,1.17-4.62,4.3-8.75,4.51-14.35.37-9.54-3.79-18.7-8.2-24.19-2.72-1.38-5.37-2.83-6.56-5.74Z" transform="translate(0 0)"/><path class="cls-1" d="M117.78,93.28C111.31,88.41,105.26,83.11,94,83c-.7.15-.77-.32-.82-.82,7.6-1.47,12.53,1.67,17.63,4.51,3,1.65,7.26,2.92,7,6.56Z" transform="translate(0 0)"/><path class="cls-1" d="M212.1,87.54c.68,3-2.07,7.95-5.33,7,1.83-2.27,2.37-5.83,5.33-7Z" transform="translate(0 0)"/><path class="cls-1" d="M231,94.92c.13,2.18-1.77,2.33-3.69,2.46C227.09,95.15,228.71,94.72,231,94.92Z" transform="translate(0 0)"/><path class="cls-1" d="M123.11,123.62c-1.63-1.24-.29-4-.41-6.56-.37-7.55-4.08-14.43-9-17.63-.07-.48.09-.73.41-.82.33-.29,1.12-.64,1.23,0,5.27,2.56,10.23,12.77,9.84,20.5C125.1,120.4,125.37,123.34,123.11,123.62Z" transform="translate(0 0)"/><path class="cls-1" d="M418,100.25c3.37.67,6.27,8,1.23,9,.11-1.66,1.3-2.25.82-4.51-1.5,0-.6,2.41-2.46,2,.62-2.37-.06-4.85.41-6.56Z" transform="translate(0 0)"/><path class="cls-1" d="M226,100.66h1.23c2.75,7.14-5.06,9.76-3.69,14.35-1.08.13-1.06-.85-1.23-1.64-3.34,1.89-10.08,5-13.94,2.46.45-1.32,2.25-1.29,4.1-1.23,2.88-1.25,5.6-1.19,7.79-2.87,2-1.52,2.2-4,4.1-5.74-.4-2.72,1.28-3.37,1.64-5.33Z" transform="translate(0 0)"/><path class="cls-1" d="M415.9,101.07c2,1.45-.11,5.53-1.64,6.15-.83-1.8,0-5.44,1.64-6.15Z" transform="translate(0 0)"/><path class="cls-1" d="M68.57,124.86c17.35-.12,35-.12,52.9.82-3.38,1.55-8,.9-12.71.82-11.8-.19-26.3-.68-40.6-.41-1.44,1.43-1.38,4.36-2.87,5.74,1.61,4.81,3.46,10,2,14.76-.32,1.11-1.13,2.43-1.64,3.69-2,4.95-2.55,5.41-6.56,9-3.62,3.28-6.68,5.94-11.89,7.8-2.32.82-5.31,2.16-7.38.82-.39-2.72,2.69-2,4.92-2a40.13,40.13,0,0,0,18-12.72c.08-2.65,1.51-4,2.46-5.74.51-5.9.28-9.91-2.05-14.35.47-2.61,2.63-4.1,2.87-6.56.43-4.35-3.32-11.83-7.38-14.35-1.91-1.19-4.24-.54-5.33-2.46v-1.23c10.06-1.17,12.06,9.26,15.18,16.4Z" transform="translate(0 0)"/><path class="cls-1" d="M210.05,121.16c.77,4.44-8.07,6-8.2,1.23,1.43-1.23,2.18.85,4.1.41C208,122.93,207.51,120.54,210.05,121.16Z" transform="translate(0 0)"/><path class="cls-1" d="M399.5,124.44c1.07-.11,2.05-.14,1.64,1.23-1.08.12-1.77-.15-1.64-1.23Z" transform="translate(0 0)"/><path class="cls-1" d="M178.47,132.65c-.84,1.5-3.93.81-6.15.82-31,.17-66.08.7-96.37,0-1.7,0-4.3.74-5.74-.82,33.58.53,62.87-1.54,96,0,4.26.19,8.6-1,12.3,0Z" transform="translate(0 0)"/><path class="cls-1" d="M193.64,135.93C192,138,187.4,137,183.8,137.16c-12.11.53-25,2-36.91,1.64,1.32-2,4-1.18,5.74-1.23,6.84-.2,12.11-.41,17.64-.82,7.08-.52,15.08-1.89,23.38-.82Z" transform="translate(0 0)"/><path class="cls-1" d="M194.46,135.93c1.69,1.21,4.26-1,5.33.82-.61,2.62-3.27.68-5.33,1.64-.8-.77-.12-1.51,0-2.46Z" transform="translate(0 0)"/><path class="cls-1" d="M145.67,138c.66,2.17-2.57,2-2.46.41A3.46,3.46,0,0,1,145.67,138Z" transform="translate(0 0)"/><path class="cls-1" d="M142,138.39c-.93,2.25-5,1.18-7.38,1.23-1.85,0-4.91,1.64-5.33-.82a96.83,96.83,0,0,0,12.71-.41Z" transform="translate(0 0)"/><path class="cls-1" d="M128.44,140c-2.64-.1-5.06,1.2-7.79.41.39-1.7,6.71-2.52,7.79-.41Z" transform="translate(0 0)"/><path class="cls-1" d="M103,140.85c-.28,2.48-3.06.75-4.51.82-2.31.11-4.55.77-7,.41.41-1.2,2.2-1.11,3.28-1.23a70,70,0,0,1,8.2,0Z" transform="translate(0 0)"/><path class="cls-1" d="M165.35,140.85c-.16,2.31-4,1-6.15,1.23-2,.18-3.86,1-5.74,1.23-10.51,1.34-20.53,1.54-31.58,2.46-17.7,1.48-35.49,4.37-52.89,4.92,1.64-1.92,4.7-1.44,7-1.64,13.41-1.2,26.54-2.24,41.41-3.69,9-.87,19-1.54,30.35-2.87,5.75-.68,12-1.06,17.22-2.05.35-.08.39.16.41.41Z" transform="translate(0 0)"/><path class="cls-1" d="M87.44,141.67c-.9,2.06-3.25.23-5.33,1.23a1.91,1.91,0,0,1-.41-1.23A11.39,11.39,0,0,1,87.44,141.67Z" transform="translate(0 0)"/><path class="cls-1" d="M177.65,141.26h1.64c.15,2.3-3,2.08-4.51,2.46-4.66,1.19-11.58,1.77-15.17,4.51-17.64,2.51-33,6.39-49.62,10.25-8.93,2.08-17.91,4.72-27.48,7-4.43,1.05-9,2.38-13.53,2.87.48-2.77,4.29-2.46,6.15-2.87,16.43-3.58,34.29-8.09,50.44-11.89,1.54.31.9-1.56,2.05-1.64,18.21-2,33.83-6.63,50-10.66Z" transform="translate(0 0)"/><path class="cls-1" d="M118.19,151.1c-1.07,1.38-3.13,1.64-4.92,2.05-2.45.56-4.58.8-7.79,1.23-8.35,1.13-16.9,4.05-23.38,4.51.05-3,5.74-2.42,8.21-2.87,8.37-1.54,18.52-4.61,27.88-4.92Z" transform="translate(0 0)"/><path class="cls-1" d="M374.48,151.92c.17-.91,2.18-.32,2.46,0-.06,1.31-1.83.9-2.46,1.64-.7-.27-.26-.94.41-.82.07-.48-.09-.73-.41-.82Z" transform="translate(0 0)"/><path class="cls-1" d="M235.47,154h1.23c6.9,7.55,8.54,28.93-3.69,31.57-1.44,3.65-3.8,8.47-8.61,7.39.76-3.61,6.24-2.51,5.33-7.8,2.09-1.26,4.09-1.73,5.74-3.28,6.5-6.07,4.61-19.57,0-26.24-.68-.81,0-.52,0-1.64Z" transform="translate(0 0)"/><path class="cls-1" d="M97.28,183.49c.59-3.16,3.38-2.12,4.92-4.51,1.4-2.17,1.6-6.85,0-9.84-1-1.83-3.2-2.08-3.69-4.1-.07-.48.09-.73.41-.82,8.21.75,8.88,20.57-1.64,19.27Z" transform="translate(0 0)"/><path class="cls-1" d="M196.92,163.81c6.62,3.37,2.4,13.68-3.28,15.17-.58-4.27,4.2-4.94,4.51-8.2C198.41,168.12,195.15,166.47,196.92,163.81Z" transform="translate(0 0)"/><path class="cls-1" d="M56.68,169.55c.67-.12.71.39,1.23.41,4,6.48-.11,15.68-3.28,20.09H51.35c3.15-3.56,6.78-10,6.15-16.4C57.35,172.09,55.82,171.19,56.68,169.55Z" transform="translate(0 0)"/><path class="cls-1" d="M256,170.37h1.23a5.91,5.91,0,0,1-5.74,7.79c1.27-2.83,4.68-3.51,4.51-7.79Z" transform="translate(0 0)"/><path class="cls-1" d="M448.29,176.11c-.61,1.84-4.06,3.84-5.74,2,.09-2.34,4.07-2.62,5.74-2Z" transform="translate(0 0)"/><path class="cls-1" d="M114.91,237.62c8.86-2.35,17.6-4.81,21.73-11.89.3-1.26-.7-1.21-.41-2.46,2.17-1.94,3.36-4.85,5.74-6.56,3.56-6.79,5.2-19.69,2.05-28.3,1.35-.94,1.94,1.7,3.28,2.05,1.47,8.19,1.58,15.46-.82,22.14-1,2.78-2.69,5.11-4.1,7.8s-3.81,3.53-4.51,5.74a17.19,17.19,0,0,1-5.33,7.38c-2.54,1.78-5.39,1.21-7.79,4.1-3.57,0-8.24,3.93-9.84,0Z" transform="translate(0 0)"/><path class="cls-1" d="M242.85,188.42c1.74-.54,2.21,2.29.82,2.46S242.18,189.08,242.85,188.42Z" transform="translate(0 0)"/><path class="cls-1" d="M189.54,190.88c.66-.12.71.39,1.23.41-.21,1.16-1,1.74-1.23,2.87.4,6.69-3.15,9.42-5.33,13.53-5.38,2-10.14,9.27-17.22,5.74,1.43-2.22,4.21-.69,6.15-1.23,1.33-.36,4.58-2.72,6.56-4.1a26,26,0,0,0,4.51-3.69c3.22-4,1.91-9.64,5.33-13.53Z" transform="translate(0 0)"/><path class="cls-1" d="M233,195h.82c1.89.59,1.3,3.19,1.23,4.51-.32,6.15-4.12,10.26-7.79,13.94s-7.15,5.44-12.3,8.2c-5.95,3.19-13.09,5.44-21.74,3.28-1.79.67-2.83,2.09-4.1,3.28,2.92.33,3.3-1.89,5.74-2.05,1.08,4-2.77,5.76-7,5.74-1.05-.58-1.83-1.44-2.87-2-5,.77-11.73,5.69-15.58.41-1.26,1.44-6,2.15-6.15-.82,1.87-.64,4.45.62,5.33-1.64,2,.35,2.66,2,4.1,2.87,3.5,1,5.26-1.31,7.38-2.05,2.93-1,6.23-.58,8.61-2.46,1.4-.92,1.71-2.94,3.69-3.28.87,1.21,1.53.09,2.46,1.23a34.3,34.3,0,0,0,19.28-4.51c1-.58,1.85-1.48,2.87-2.05,2.45-1.37,5.87-2.63,7.79-4.51.57-.56,1.22-1.85,2.05-2.87,2.69-3.3,5.6-7.35,5.74-13.94-.12-.67.39-.71.41-1.23Z" transform="translate(0 0)"/><path class="cls-1" d="M250.64,196.21c.54.15.65.72,1.23.82-.06,2.61,0,9.33-2.05,12.71-.61,1-2.23,2.09-3.28,3.28-2.84,3.23-3.34,3.33-7,5.74-1.27.85-2.17,2.23-3.28,2.87-2.12,1.23-4.88,1.69-7.38,2.46-2.23.7-5,2.63-7,.82-.29-2.2,2.24-1.58,4.1-1.64,8.54-2.49,17.89-8.16,22.14-15.17,1.75-2.88.57-8.1,2.46-11.89Z" transform="translate(0 0)"/><path class="cls-1" d="M449.94,198.26c1.3-.07,2.48,0,2.87.82C452.61,201.31,448.36,200.14,449.94,198.26Z" transform="translate(0 0)"/><path class="cls-1" d="M167.4,200.72c1,5-3.3,10-6.56,12.71s-6,3.75-7.79,1.64c.15-2,3.41-.95,4.51-2a22.27,22.27,0,0,0,7-7.79c-.46-2.37.84-3,1.23-4.51Z" transform="translate(0 0)"/><path class="cls-1" d="M454.86,206.05a2.32,2.32,0,0,1-2.87,2c-1.18-1.66,1.21-3.34,2.87-2Z" transform="translate(0 0)"/><path class="cls-1" d="M194.06,209.33h1.23c1.52,3.92-2.62,5.53-3.69,8.2-2.74.44-7,3.61-7.79-.82,5.62,1.12,8.93-2.9,10.25-7.38Z" transform="translate(0 0)"/><path class="cls-1" d="M109.17,210.15c-.78,6.34-5.86,9.67-11.48,12.3-4.46,2.08-12,5.16-17.23,2.87-1.75,3.31-3.28,6.83-4.92,10.25,1.35,5.59-2.15,11.18-6.15,15.18a36.7,36.7,0,0,1-22.55,10.66,26.91,26.91,0,0,1-16.4-2.87c-2.1-1-5.61-2-5.74-4.51,4.27.86,7.38,4.91,13.12,5.74A35.85,35.85,0,0,0,62,254a48.13,48.13,0,0,0,6.15-5.74c2.78-2.83,6-7.1,4.51-12.72,1.39-4.55,4.89-7.56,4.51-12.71,4.42.35,8.57,2.1,13.95.41,1.16-.36,3.08-1.56,4.92-2.46,2.75-1.34,4.88-2.11,7-4.1a15,15,0,0,0,3.69-6.56Z" transform="translate(0 0)"/><path class="cls-1" d="M456.5,212.61c.13,2.43-2.79,3.62-4.92,2.46-1.2.16-.35,2.38-2.46,1.64-.54-2,1.26-1.74,1.23-3.28,2.75.44,3.83-.81,6.15-.82Z" transform="translate(0 0)"/><path class="cls-1" d="M156.33,222.86c1.41,3.62-7.15,8.43-9,3.69,3.49-.33,6.83-.83,7.79-3.69Z" transform="translate(0 0)"/><path class="cls-1" d="M244.49,227c.61.48,1.83.36,1.64,1.64a1.52,1.52,0,0,1-2,0c-.05-.73.5-.86.41-1.64Z" transform="translate(0 0)"/><path class="cls-1" d="M182.57,236c-.71,11.63-10.59,19.71-22.55,20.09-.92,1.27-2.76,1.62-4.92,1.64-.65-.55-2.47-.82-1.23-2-6.41,0-10.28-2.57-14-5.33.34-2.2-.68-3.5,0-4.92,4.26.35,8,1.22,12.31,1.64,7,.69,8.78-.53,15.17-3.28,3.65-1.57,8-2.75,9.84-4.92,1.09-1.32.56-3.72,2-4.51a22.81,22.81,0,0,1,3.28,1.64Z" transform="translate(0 0)"/><path class="cls-1" d="M163.3,236.8c2.11,3.29-3.63,6.37-7.38,5.74-2.08-.35-3.72-2.45-4.51-3.69,2.47-.44,5.31.68,8.61-.41,1.72.08,1.27-2,3.28-1.64Z" transform="translate(0 0)"/><path class="cls-1" d="M65.29,246.64c-3.24,4.82-7.42,6.34-15.58,7.38-5.16.66-12-.27-17.63-2.05-4.13-1.29-6.15-3.05-9.43-4.51-.24-1.55-1.39-2.16-2.46-2.87-.07-.48.09-.73.41-.82.36-.25.73-.5.82,0,3.52,1.2,6.18,4.51,9.84,6.15,4.7,2.11,13.3,2.88,20.91,1.64,2-.32,4.12.14,5.74-.41,2.82-1,3.89-5,7.38-4.51Z" transform="translate(0 0)"/><path class="cls-1" d="M132.14,247.87H133c3,2.2,5.31,5.08,9,6.56-.1,1-2.41.9-2.87.82-3-.49-6.93-3.75-7-7.38Z" transform="translate(0 0)"/><path class="cls-1" d="M88.26,250.74c1.33,2.9-4.84,8.34-6.15,3.69C85.79,254.83,84.83,250.59,88.26,250.74Z" transform="translate(0 0)"/><path class="cls-1" d="M345.78,254.44a2.7,2.7,0,0,1,2.05.41,1.48,1.48,0,0,1-2.05,1.23v-1.64Z" transform="translate(0 0)"/><path class="cls-1" d="M132.54,254.84c3.42-.14,3.86,2.7,5.33,4.51-2.72-.55-4.59-2-5.33-4.51Z" transform="translate(0 0)"/><path class="cls-1" d="M101,256.08c.41,3.71-5.26,4.89-6.15,1.64,2.51-.09,3.81-1.39,6.15-1.64Z" transform="translate(0 0)"/><path class="cls-1" d="M93.59,261h1.23c1.23,1.29.46,2.85-.41,4.1-.38,6.28-3,10.94-5.74,15.17-1,1.49-1.56,3.31-2.46,4.52-3.83,5.14-9.76,7.85-15.17,11.48-2.59-.4-3.28,1.1-5.74.82a35.75,35.75,0,0,1-14.77,8.61c1.48,2.63,3.25,5.37,4.92,8.2A92.86,92.86,0,0,1,60,322.1c-.26,1.51-2.43,1.11-3.69,1.64-1.71-4-4-7.46-5.74-11.48H47.66c.93,4.68,5,6.21,5.74,11.07-5.15.1-7.58-2.54-11.89-3.28-1.35-1.66-2.22-3.79-4.92-4.1.33,3.61,6.89,7,11.07,9,2.07,1,6,.78,8.2,2,2,4.12,2.78,8.7,4.1,13.12.47,1.56,1.47,2.91,2.06,4.51s.67,3.62,1.23,5.33c.34,1.06,1.22,1.79,1.64,2.87,2.09,5.47,3.13,11.26,5.33,16.41.7,1.65,1.82,3,2.46,4.51.71,1.73.88,4.07,1.64,5.74a12.94,12.94,0,0,0,3.28,4.92c.14-2.52-1.91-4.6-2.87-7-.19-.47.2-1.18,0-1.64-1.19-2.74-4-7.35-4.92-10.66-.19-.63.19-1.43,0-2.05-2.2-7.19-4.82-14.55-7.39-21.33-.33-6.44-3.69-10.14-4.51-15.17.6-.63,2.1-.36,3.28-.41,6.5,15.92,9.28,35.56,17.64,49.62-.44,2.22,1.11,2.44.82,4.51a33.12,33.12,0,0,1,7.79,18c-2.64.45-2.74-1.64-4.1-2.46.12,2-2.16,3.77-3.69,5.33a5.92,5.92,0,0,1-4.1-2.05,1.52,1.52,0,0,1,0-2.05c-13.33-19.48-20.35-45.26-32.81-65.61-2.78,1.79,0,4.62,1.23,7,2.2,4.17,3.62,9,6.56,12.3,1.27,4.79,2.62,9.33,4.1,13.54,3.65,10.39,10.84,17.87,15.59,27.06-1.56,1.86-2.06,4.78-4.93,5.33-3.49-1.16-4.14-5.15-7-7-2.79,2.07-2.22,9.41-7,8.2-.19-2.92,2.49-3,2.87-5.33,0-1.38-1.89-.84-2.46-1.64,1-1.06,1.47-2.63,2.46-3.69,1.48-.24,0,2.45,1.64,2.05,3.07-2.15-2.38-4.85-4.1-6.15a7.71,7.71,0,0,0-1.64-2.87c-1.27,2-4.62,1.94-6.15,3.69H41.1c-2.15,1.54-2.42,5-4.92,6.15-3.71.52-4.4-2.36-7.38-.41-.41-.82-1.81-.65-1.64-2.05-2.13.62-6.78,4.59-8.2.82.05-2.27,3.45-1.19,4.51-2.46.52-1.62-1.2-1-1.23-2.05-.14-2.19,2.21-1.89,2.46-3.69-4.65.84-7.17,7.3-9.84,11.48-.83-.46-2.39-1.25-1.23-2.46-2.59,1.51-5.12,3.09-9.84,2.46-1.38-1.54-2.61-2.53-2.46-4.51.1-1.47,1.13-1.1,2.05-2.46.56-.85.06-1.78.41-2.46a8.15,8.15,0,0,1,2.87-2.46c3.61-1,8.55,2.2,3.69,5.74-1.55-.78-.34-4.32-3.28-3.69,1.09,1.09,2.41,2.08.41,3.28,1.6.44,2,2.11,3.69,2.46,4-1.29,5.48-5.18,7.79-8.2,4.25.7,4.16-2.95,8.2-2.46.18,3.87-1.17,6.21-2.05,9,4.38-.31,3.21-8.22,8.2-6.56.77,2.76-3.37,3.94-4.1,6.56,2.42,2.55,3.08-3,5.74-2.87,1.31,1.82-1.23,2.69-1.23,4.51,3.18.45,3.4-2.07,4.92-3.28-.53-2.34-3.16-2.58-3.69-4.92,2-2.34,6.71-.95,6.56,2.46,3.37.23,4.79-1.5,6.56-2.87-.21-2.39-2-4.46-3.28-6.15-2.59-3.42-5.1-6.9-7.79-10.26-1.85-.85-3.3.3-4.51,0-5.24-1.27-3.9-9.18-7.79-12.3-3.21,1.17-3.88,4.87-6.15,7-6.5-2.63-.39-13.3-8.61-11.89-2.79.48-7,7.86-9.85,2-.43-14.68.76-27.18.41-38.95,2.87,1.09,6.55,1.38,8.61,3.28A27.77,27.77,0,0,0,21,309.8c4.3,1.19,8.65,4.43,14.35,2.87-1.29-2.72-6.61-.91-9.43-2.87-2.55-4.29-10.68-7.54-11.48-12.72-.13-.83.8-.94.82-1.23s-.77-1-.82-.82c.46-1.23,1.64-1.37,2.46-2.46,4.62,1.81,4.67,8.18,10.66,8.61a67.74,67.74,0,0,1-4.1-7.38c4.13,1.3,10.66,2.21,13.12-1.23,3.37-.19,5.92.38,8.2-.41,1.94-.67,2.48-2.78,4.51-2.87,2.32,3.64-2.19,6.2-3.69,8.61,3.26,1,7-4.74,9.84-2.87-2.62,3.29-8.06,3.12-13.12,4.92-1,.38-1.84,1.35-2.87,1.65-2.12.61-4.65-.09-6.15,1.23a23.58,23.58,0,0,0,9.84.81c.68-.12,1.77-.77,2.46-.81s1.37.5,2,.4,1.33-.74,2.05-.81,1.74.59,2.46.41c3.62-1,8.43-5.18,11.07-7.8h3.28c5.75-2.25,11.49-4.9,15.58-9.43A46.55,46.55,0,0,0,88.26,277c2.3-4.32,2.63-10.56,5.33-16ZM44,307.74c.59,1.46,1.87,2.24,2.87,3.28v-4.1A6.73,6.73,0,0,0,44,307.74Zm-4.51,73.81c.12-.94-.1-1.54-.82-1.64C38,380.52,38.18,381.75,39.46,381.55ZM82.93,395.5A2.35,2.35,0,0,0,81.7,393,2,2,0,0,0,82.93,395.5Z" transform="translate(0 0)"/><path class="cls-1" d="M478.23,265.92c-2.58,3.16-6.06,5.43-9.43,7.79-1.21,1.11-1.51,3.14-4.1,2.87-1.1-3.48,3.38-4.4,3.69-7.79,3.72-.21,6.64-4.79,9.84-2.87Z" transform="translate(0 0)"/><path class="cls-1" d="M84.16,266.33c1.12-.3.82.81,1.64.82-.35,1.15-.65,3-1.64,4.1-3.26,3.5-12.81,4.91-15.59.82,7.15,0,12.7-1.52,15.59-5.74Z" transform="translate(0 0)"/><path class="cls-1" d="M74.32,268.79c-1.45.82-4.61.38-4.92-1.23C70.64,266.93,74.17,267,74.32,268.79Z" transform="translate(0 0)"/><path class="cls-1" d="M30.85,285.19c-6.31.17-11.43-1.17-15.58-4.1,0-4.06.91-7.29,4.51-7.79,2.4,5.25,8.16,7.15,11.07,11.89Z" transform="translate(0 0)"/><path class="cls-1" d="M2.14,275.76c2.51,2.05,2.07,6,3.29,9,1.43,3.59,4.87,6.59,7,9.84-2.63,1.24-6.5-.07-8.21-1.23C-.46,290.22-.16,282.14.91,275.76Z" transform="translate(0 0)"/><path class="cls-1" d="M102.61,277h.82c3.79,3.94,7.19,11.15,16,9.43,1.52-.29,2.32-1.4,3.69-1.23.45,3.07-8.57,4.55-13.12,2.87-1.45-.53-5.14-4.09-5.74-5.74-.14-.39.37-.91.41-.82-1-1.94-2.34-2.82-2-4.51Z" transform="translate(0 0)"/><path class="cls-1" d="M40.28,279.45a3.75,3.75,0,0,1-1.64,2.05c-1.12.3-.83-.81-1.64-.82-.77-2.69,2.84-3.22,3.28-1.23Z" transform="translate(0 0)"/><path class="cls-1" d="M53.4,280.27c1,5.81-7.55,7.41-10.66,4.1,3.82-.69,8.09-.94,9-4.51.74-.05.87.5,1.64.41Z" transform="translate(0 0)"/><path class="cls-1" d="M479.87,281.5c.6.23,2.12-.48,2.05.41C482.23,283.47,479.26,282.8,479.87,281.5Z" transform="translate(0 0)"/><path class="cls-1" d="M15.27,282.32c3.52,2.54,6.08,4.65,11.07,4.51,1.65,0,3.7-1.4,5.33-1.23,2.91.31,4.59,3.16,6.15,4.92-2.67.2-4,1.77-5.74,2.87-8.4-.84-16.68-3.24-16.81-11.07Z" transform="translate(0 0)"/><path class="cls-1" d="M1.74,294.21c.66-.12.7.39,1.23.41A30.15,30.15,0,0,1,4.2,297.9c2,3.58,6.85,4.35,9.43,7.38-2.28-.5-2.49,1.06-3.69,1.64-5.33.69-5.69-3.6-9.43-4.51,1.1-2-.51-6.79,1.23-8.2Z" transform="translate(0 0)"/><path class="cls-1" d="M119,295c-.08,2.65-1.74,3.73-4.51,3.69.35-2.39,2.23-3.24,4.51-3.69Z" transform="translate(0 0)"/><path class="cls-1" d="M112.86,295.85c.5,3-1,3.89-2.46,4.92-1.2,1.12-1.61,3-4.1,2.87,1-3.43,4.54-4.2,5.33-7.79Z" transform="translate(0 0)"/><path class="cls-1" d="M130.5,299.13a6,6,0,0,1-4.1,4.92c.13,1.63-1,2.06-.82,3.69-4.57,4.71-10.09,9.8-20.09,10.25-4.22.19-9.2.49-13.13.41a31.32,31.32,0,0,1-14.76-4.1c-.59-.36-.92-1.22-1.64-1.64-2-1.19-5-2.12-4.1-5.33,2.34-.73,4.12,2.37,5.33,4.1,3.85,2.37,7.12,4.86,14.35,5.33,3.87.26,8.84-.62,13.13-.82,3-.13,5.38.15,7.38-.41,5.6-1.57,8.92-6.38,11.48-8.61.24-4.41,3.78-5.51,5.74-8.2.66-.11.7.39,1.23.41Z" transform="translate(0 0)"/><path class="cls-1" d="M446.24,300.77c1.12-.3.83.81,1.64.82-.44,1.33-1.42,2.13-1.64,3.69H444.6c-.81-1.43,1.12-3.1,1.64-4.51Z" transform="translate(0 0)"/><path class="cls-1" d="M95.64,302c1,4.92-6.75,3.7-9.43,1.64,1.58-1.83,6.6-.24,8.2-2.05a1.89,1.89,0,0,0,1.23.41Z" transform="translate(0 0)"/><path class="cls-1" d="M144.44,302.41c-1.53,1.95-4.06,4.88-7,4.1,1.67-1.8,4.74-4.2,7-4.1Z" transform="translate(0 0)"/><path class="cls-1" d="M303.54,303.23c-.61.65-2.34.6-2.05-.82.61-.65,2.34-.6,2.05.82Z" transform="translate(0 0)"/><path class="cls-1" d="M429,306.1h1.23c1.87,6.25,6.48,12.45,6.56,20.09-2.13-.92-1.49-3.3-2.05-4.92-1.59-4.62-4.86-8.74-5.74-13.94-.73-.3-.06-.74,0-1.23Z" transform="translate(0 0)"/><path class="cls-1" d="M437.63,307.33c1.22,1.27-1.33,1.08-1.23,2.46.17,1.61,2-.41,2.87.82-1.22,4.61,3.4,6.27,2.87,11.48-3.6-.77-2.34-6.41-4.51-8.61h-2.46c.44-2.08-1.21-2.07-1.64-3.28.34-2,2.26-2.38,4.1-2.87Z" transform="translate(0 0)"/><path class="cls-1" d="M402.37,308.15c.14,2.6-4.82.1-5.33,2.05-.84-1.56-2.72.34-4.1-.82v-1.23c2.56-.49,7,0,9.43,0Z" transform="translate(0 0)"/><path class="cls-1" d="M305.18,308.15c1.07-.11,1.76.15,1.64,1.23C305.75,309.5,304.77,309.52,305.18,308.15Z" transform="translate(0 0)"/><path class="cls-1" d="M112.86,313.07c-.31,1.74-3,1.08-4.92,1.23.48-1.34,4.12-2.81,4.92-1.23Z" transform="translate(0 0)"/><path class="cls-1" d="M392.94,314.3c-2.09-.45-3.65,1.12-4.51-.41.24-2.09,4.54-1.38,4.51.41Z" transform="translate(0 0)"/><path class="cls-1" d="M413.85,313.48c-3.17,3.23-11.42,1.45-15.58,1.64a1.89,1.89,0,0,1-.41-1.23c4.53-.93,10.78-.15,16-.41Z" transform="translate(0 0)"/><path class="cls-1" d="M433.53,322.1a13.08,13.08,0,0,1-4.1-.82c-.22-2,1.63-1.92,2.05-3.28,1.5.55,1.3,2.8,2,4.1Z" transform="translate(0 0)"/><path class="cls-1" d="M408.52,321.68c-2,2.83-7.33.57-11.48,1.23-1.32.36-.85-1.06-1.64-1.23-1.47.11-3.19,1.43-4.51.41,2.27-2.9,7-.64,11.07-.41,2.4.14,4.44-.3,6.56,0Z" transform="translate(0 0)"/><path class="cls-1" d="M150.59,334c-5.3-1.68-8.63-7.48-9.43-12.3,4,1.25,4.46,5.69,7.79,8.2a28.47,28.47,0,0,1,1.64,4.1Z" transform="translate(0 0)"/><path class="cls-1" d="M116.55,324.56c-.39,1.45-2.28,3-4.1,4.51-2.27,1.9-5.85,5.2-9.43,5.74-2.08.31-3.74-.59-5.74-.82-3-.34-8.62.93-8.61-3.28,1.29-1.09,2.27.76,3.28,1.23,5-.26,8.29,1.27,11.89.41,5.12-1.23,7.5-6.82,12.71-7.79Z" transform="translate(0 0)"/><path class="cls-1" d="M436.81,328.66c2.3.12,3.06,3.63,2.46,5.33A3.66,3.66,0,0,1,436.81,328.66Z" transform="translate(0 0)"/><path class="cls-1" d="M400.32,330.71c2.65.22,6.22-.48,8.2.41-1.42,2.36-5.6,2.08-8.2,1.23Z" transform="translate(0 0)"/><path class="cls-1" d="M144.85,332.76c.19,1.28-.88,1.31-2,1.23v-1.23A1.52,1.52,0,0,1,144.85,332.76Z" transform="translate(0 0)"/><path class="cls-1" d="M437.63,334a3.63,3.63,0,0,1-.82,3.28c-1,.06-1.27-.64-2.05-.82-.33-2.57.9-3.19,2.87-2.46Z" transform="translate(0 0)"/><path class="cls-1" d="M410.57,335.22c-.31,2-4.47,3.68-6.15,1.64.48-2.11,3.76-1.44,6.15-1.64Z" transform="translate(0 0)"/><path class="cls-1" d="M481.1,336.45a7.28,7.28,0,0,1,3.28,3.69h-2.05c-.24-1.4-1.13-2.16-1.23-3.69Z" transform="translate(0 0)"/><path class="cls-1" d="M531.13,343.42c-6.5,10.05-21.45,13.49-36.09,11.89-2-.21-4.21-.64-5.74-2.05,1.18-1.48,3.1-.37,4.52-.41,9.61-.22,21.58-.53,29.52-4.92,2.52-1.39,4.33-3.45,6.56-4.92.67-.12.71.39,1.24.41Z" transform="translate(0 0)"/><path class="cls-1" d="M513.08,349.16h1.23v1.23h-1.23Z" transform="translate(0 0)"/><path class="cls-1" d="M134.19,350.39H135c1.87,1.55,2.82,4,3.28,7-2.38-1.19-4.68-4.14-4.1-7Z" transform="translate(0 0)"/><path class="cls-1" d="M140.34,352c2.33,1.22,3.5,3.61,4.1,6.56-2.42-.93-4.16-4.51-4.1-6.56Z" transform="translate(0 0)"/><path class="cls-1" d="M120.65,366.79c.66-.12.71.39,1.23.41,2.84,4.65,6.36,12.64,9.43,18.45,1.87,3.53,5.93,6.81,2.87,11.07-1.85-.06-2.17-1.49-2.87-2.87-2.12-4.16-2.33-11.53-6.15-14.76-.6-4.59-2.79-7.6-4.92-10.66-.17-.85.28-1.08.41-1.64Z" transform="translate(0 0)"/><path class="cls-1" d="M109.58,367.61c.66-.12.71.39,1.23.41,1.23,1.92,2.55,4.07,3.69,6.15,1.56,2.83,2.63,4.93,4.1,8.2,1.71,3.79,6.36,8,4.1,12.71-2.8-.11-2.91-3.27-3.28-4.51-1-3.39-3.54-6.77-5.33-10.66-.83-1.8-1.17-4-2-5.74s-2.14-3.32-2.87-4.92c0-.73.5-.86.41-1.64Z" transform="translate(0 0)"/><path class="cls-1" d="M116.55,391c-.45,1.47-1.23,2.6-1.64,4.1-2.75.48-1.58-1.76-2-2.87-3.14-7.32-7.07-15.18-10.25-22.55-.07-.48.09-.73.41-.82a2.3,2.3,0,0,1,1.64-.41c4.06,7.42,7.32,15.63,11.89,22.55Z" transform="translate(0 0)"/><path class="cls-1" d="M98.92,370.89h1.23c2.68,6,7.84,13.39,9.84,20.91.46,1.71,2.29,5.13-1.23,5.33-1.85-.19-.93-1.93-.82-3.28a197.51,197.51,0,0,1-9-23Z" transform="translate(0 0)"/><path class="cls-1" d="M117.78,371.3a1.91,1.91,0,0,0,1.23.41c1.15,2.64,2,5.23,3.28,7.79,1.86,3.79,5.75,7.12,4.92,11.89-3.1-.31-3.4-3.43-3.69-6.56-1.1-2.59-4-3.37-3.69-7.38-.77-1.78-3.15-3.83-2-6.15Z" transform="translate(0 0)"/><path class="cls-1" d="M91.13,372.94h1.23c2.68,6.07,5.51,12,8.2,18,1.5-1-.36-3.43-1.23-4.51a68.75,68.75,0,0,0-3.69-9.84c-.47-1.08-1.89-2-1.23-3.28,3.29.68,2.59,5.34,5.33,6.56a71.67,71.67,0,0,0,3.69,8.61c1.46,2.88,3.8,4.59.82,7.79-1.82-.78-1.34-3.85-2.46-5.33-.3,1.82.33,3.45-.41,5.33-1.26.31-.79-1.12-2-.82-1.64-7-5-12.21-7-18.86-.28-.95-1.36-1.1-1.64-2.05s.28-1.08.41-1.64Z" transform="translate(0 0)"/><path class="cls-1" d="M600,359.41c2.16-.07,4.39,1.58,7,2,3.24.59,7.82-1.12,7,3.69-5.47-1.63-12.7-1.51-16-5.33-.68.56-2.39-.33-4.1,0,1.12,0,1.15,1.86,2,2.46,1.11.74,3.24.53,4.92,1.23,2.77,1.15,5.27,3.15,7.38,3.69,1.91.49,4.23-.56,5.74,1.23v3.28c-7.94-.53-12.9-4-20.09-5.33-.1,2.28,1.77,2.6,2,4.51-1.57,1.44-1.93,4.09-4.1,4.92a43,43,0,0,0,7,4.1c.85.4,2.12.46,2.87.82,1.12.55,2.2,2,3.28,2.46,2.38,1,6,.15,8.61,2.46-.06,1.18-1.71.75-2.87.82,2.62,3.12,9.06,2.43,10.25,7A25.07,25.07,0,0,1,602.48,391c-1.1,1.64-1.43,4-2.46,5.75-8.9,1.16-15.49.17-24.19-1.24-4.15,4-12.75,3-17.64.41a8.4,8.4,0,0,1-1.23-2.45c-2.28.23-3.36-.74-4.51-1.65-3.69,2.7-4.45,9.77-9.43,10.67-2.31.41-3.88-1.52-7-.41-.83-1.36-2.09-2.29-2-4.51,2-.42,3.48.61,5.74,0,2.56-.7,6.32-4.79,7-7,.95-3.17-.46-6.13-2.05-9-6.64,6.21-13.94,11.76-23.78,14.77a31,31,0,0,0-2.87,2.05c-1.45-.74-3.52-.86-4.1-2.46,1.07-6.55,8.85-7.21,14.76-9.85A68.71,68.71,0,0,0,545.48,375c1.31-.35,1.27.65,2,.82,4.05-2.24,4.73-7.84,7-11.89,1.75-.24,2.72.29,4.1.41-1.59-4.23-5.48-6.79-8.2-10.25-.39-.51-.33-1.48-.82-2.05-1.09-1.28-2.94-2-4.1-3.28-.94-1.05-1.23-2.68-2.05-3.69-.6-.75-1.79-1.33-2.46-2.05-3.14-3.38-6.32-7.82-9.43-11.9-1.27-1.66-2-3.91-3.28-5.33-1-1.1-2.68-1.51-3.69-2.46-.56-.52-.81-1.53-1.23-2.05-1.68-2-3.79-3.38-5.33-5.33-2-.54-1.75,1.26-3.28,1.23,0,1.54,2.9.11,2.87,1.64-1.16,1.91-4.65,2.68-6.56,2.87-9.43.93-21.12-4.4-27.48-8.2-1.2.58-1.26,2.29-1.23,4.1,1,.89,3.29.54,4.1,1.64.29,1.93-1.76,1.52-2.05,2.87,1.76,2.89,7.06,2.24,9.84,4.1-.91,2.32-3.15,1.69-5.74,1.65,2.22,2.83,9.67.44,12.72,2.46-1.24,2.31-5.42,1.69-7.79,2.87,1.72,3.74,10.93,0,11.48,4.92-1.24,1-2.45-.45-3.69.41-.51,1.84,1.6,2.44.82,4.1-4.09-2.61-9.06-4.34-13.54-6.56-.1,3.38,3.45,3.11,3.69,6.15-2.25.93-3.24-1.68-4.92-2.87-2.29-1.64-4.82-4.55-7.38-6.15-1.54,1.34-.8,3.25-1.23,4.92-1.4,5.5-5,10.29-5.74,16.4,4.46,4.65,11.15,9,18.45,9.43-1.47,3-7.2,1.09-9.84.41,1.84,2.23,8.29,4.58,13.12,2.87-1.69,4.39-8.09,1.55-11.07,4.51,2.72,1.65,4.79.55,7.79-.41,1.11-.35,2.41-.43,3.28-.82,3.27-1.45,6.15-5.14,9.85-4.1-.38,2.86-4.1,4.81-7,6.56-4.19,2.55-9.48,3.38-14.36,5.33-5,.78-7.23-1.24-11.48-1.23-.11,1.62,1.43,2.37,2.46,3.28,2.53,2.24,7.71,4,12.71,3.69,1.94-.1,3.51-1.1,5.33-1.23,2.32-.15,4.23.21,7-.82,1.13-.42,2-1.52,3.28-2,1.07-.45,2.66-.34,3.69-.82,3.36-1.54,5.62-5.52,9-4.51.23,2.62-2.33,3.72-3.69,4.92s-3,2.8-4.51,4.11c4.72-.07,7.94-5.18,11.48-7.8,1.64-2.18,2.32-5.33,5.74-5.74.65,3.85-3.95,5.86-4.92,9.44,5.53-1.85,9.18-5.59,12.71-9.44a2.3,2.3,0,0,0,1.64.41,61.65,61.65,0,0,0,8.61-7.38c1.48-1.52,3.53-3.7,6.15-3.28.33,2.92-3.14,5.79-5.33,7.79-7,6.45-16.79,11.52-25,16.82-4.31-.14-7.5,2.91-11.48,3.69-.78.15-1.7-.19-2.47,0-3.75.92-7.51,2.89-11.48,2.87-1.28,0-2.82-.56-4.1-.41-2.79.31-5.57,1.95-8.61,2.05-2.34.07-4.47-.52-7-.82-.63.59-.36,2.1-.41,3.28-5.64,4.87-16.12,2.74-25,2.87-1.46.22-1-1.45-2.46-1.23a5.9,5.9,0,0,0-3.69,1.23c-1.06-.32-2.33-.41-2.88-1.23-4.53,1.22-9.25.86-13.94,1.23-4.37.34-8.86,1.35-13.12,1.23-5.46-.17-10.66-1.39-16-1.23-4.31.13-8.48.29-12.3.41-1.2.1-1.42-.77-2.05-1.23a38,38,0,0,1-8.2,1.64c.14-.54.72-.65.81-1.23-2.46.93-8,.91-11.48,1.23-3.15.28-5.84-.22-9-.41a30.54,30.54,0,0,0-5.74,0c-2.79.44-8,1.24-11.48,0a.42.42,0,0,0,0,.82c-1.46-.37-6.82,1.31-9-.41,2.14-3.33,7.72-3.22,11.07-5.33-7.1-1.06-12,3.29-18.86,4.1-4.07.47-8.41-.4-13.53-.41-4.51,0-9.11.74-14,.82-17.9.29-37.58-.58-56.17-1.64a238.69,238.69,0,0,0-25.43-.41c-14.08.64-28.63-.9-39.77.82-1.38-.81-2.06-2.32-2.87-3.69-1.47-1.17-1.38,2-2.46,2.46-2.27-.61-1.66-4.09-3.29-5.33-.53,1.68.48,4.77-1.23,6.15-1.57-.2-1.58-2-2.87-2.46-1.05.58-.61,2.66-2.05,2.87h-2c-1.39-1.07-1.7-3.22-2.87-4.51-1,1.42-.57,4.35-2.87,4.51-.49-1.29-1.38-2.17-1.64-3.69-2.33.4-2.32,3.14-3.69,4.51-2.46-.82-2.53-3.57-3.69-5.33-2.4-3.66-6.24-6.77-6.56-12.3-2-3.29-5-7.81-5.33-11.49,2.17,2.16,2.85,5.23,4.51,7.8a42.59,42.59,0,0,0,5.33,6.56c-.77-4.76-3-8.9-4.92-12.72s-4.91-7.45-4.92-11.89c2.14,1.25,3,3.95,4.1,6.15,3.05,6.26,6.16,13.71,9.84,20.1.75-.62,1-1.77,1.64-2.46-2.9-5.78-5-13.54-8.2-19.69-1-1.82-3-3.56-2.46-5.74,2,.59,3.18,3.17,4.1,4.92,2.84,5.43,5.44,12,8.61,17.64.38-3.75-1.65-7.14-2.87-10.67s-3.13-6.83-3.69-10.66c3.28,1.23,2.77,6.26,5.33,8.2,2.54,8.81,7.46,15.24,11.89,22.15-.33-5-2.35-8.33-4.1-12.71-1.15-2.91-3.17-5.52-4.1-8.21-.16-.48.19-1.16,0-1.64-.63-1.58-2.6-3.28-1.64-5.33,2.65,1.45,3.14,4.6,4.51,7,2.9,5,6.63,9.85,8.61,15.59,1.23-1.88-1-5.08-2-7.38-1.62-3.66-3.89-8.15-5.74-11.49.29-1.79-.69-2.31-.41-4.1-2.85-2.55-4.92-6.29-6.56-10.66.23-1.64,1.44-2.75.41-4.51-.16-1.52,2-.76,2.05-2-1.53-.66-3.61-2.94-3.28-4.1.1-2,1.46.31,2.46,0,.53-2.19-1.26-1.78-.41-3.28,3,1.1,3.84,4.36,5.33,7,1.39.93,2.24,2.41,3.69,3.28,1.34-.74.11-1.5.41-3.28,1.05-.59,2.89-.39,3.69-1.23-.95-1.51-1.3-3.62-2.87-4.51-2.32.71,0,3.48-1.23,5.33A10,10,0,0,1,151,336c1.25-.3,1.5.42,2.46.41a1.82,1.82,0,0,1,.82-1.64c-.6-2.82-2.09-4.74-5.33-4.92-.33-5.83-4.44-7.87-6.56-11.89-5.06,4.64-10.56,8.85-20.5,8.61.29-3.88,4.52-2.43,7-2.87a21.55,21.55,0,0,0,13.12-8.2c.3-1.68-2.66-.08-2-2.06,2.69-1.49,6.75-3.81,4.92-7.38.8-.84,1.28-2,2.87-2.05-1.09-2.41.36-4.84,0-7.79-1.69-1.75-5.23-1.81-7.79-3.28a31.14,31.14,0,0,1-3.28-2.46c-1-.82-2.89-1.55-2.46-3.28,4.15,2.68,7.8,5.87,13.53,7,1.38-3.34.72-7.84,0-11.07-.15-.68-.77-1.46-.82-2.05s.57-1.87.41-2.46c-1.7-6.1-9.4-8.81-10.25-15.17.36-.18.73-.36.82-.82,1.56-1.25,4.87,2.76,5.33-.82-.62-1.71-3.22-1.43-4.92-2.05,3.8-.85,7.05,1.08,11.07.82,4.31-.29,8.2-2.38,12.3-1.64,1.73-.19,2.07-1.76,4.51-1.23,1-1.87,3.32-1.6,4.93-2.46,1.24-.67,2.48-2.33,4.1-3.28,1-.6,2-.65,2.87-1.23,3.88-2.77,5.84-5.8,6.56-11.9,2.09.45,1.25-2,2.05-2.87,1-.34,1.53.19,2-1.23,5.37.38,9.32-3.28,14.35-4.51,1.09-.82,1.25-2.58,3.28-2.46,4.84,9-3,14.34-8.61,18.46,2,1.9,6.73-1.52,8.2-3.28,2.27-2.74,5-8.47,4.92-10.67s-2.09-3.12-2.05-5.33c1.31.06,1.81.93,3.28.82a16.64,16.64,0,0,1-1.64,13.53c3-.57,4.16-2.94,6.56-4.1,2.53.83,9.53-.49,12.31,1.23,2.63,1.64,2.18-2.77,4.92-4.1,1.38,0,.83,1.9,1.64,2.46,2.06,1.08,4.23,2,6.15,3.28.29,1.42-1.44,1.47-2,.82,2.43,1.26-1.74,3.26,2.46,3.69.16-1.13-.46-2.14,1.23-3.28,1-.06,1.27.65,2,.82.51,2.66-3.06,2.16-1.64,4.51,2.45.13,1.82-2.82,4.1-2.87,1.84.62,2.34,2.58,4.92,2.46,2.14-4.25-6.22-4.57-7.38-8.2a2.33,2.33,0,0,1,2.87,2.05c2.57-.24,3,1.69,5.33,1.64,3.15-6.19,0-15.57-.82-21.73,3.46.33,4.39,7.31,4.51,11.48.14,4.66-1.48,9.89-.82,13.53a81.27,81.27,0,0,1,16.81,13.13c1.6,1.59,3.75,3.34,4.1,5.74-3.19,1.4-5.9-2.55-8.61-4.51s-4.88-3.21-7-4.52c.31,2.71,5.19,4.38,6.56,7.39,3.58,2,7.37,3.84,9.43,7.38-3.7-.4-3.84-4.36-7-5.33.61,2,1.41,4.66,3.28,6.56,1.5,1.51,5.35,1.87,4.93,4.92-1.76.11-2-1.25-4.11-.82.29,2.72,4,2.06,3.69,5.33-1.79.15-2.1-1.17-3.69-1.23-.92.89.34,1.4,0,2.87-3.23.36-3.56-2.18-7-1.64-.86.5-.26,2.47-1.23,2.87-1.68,1-1.74-1-3.69-.82-1.93.8-5,.43-6.56,1.64,2.77,4.75,3.23,11.81,8.61,13.94,1.09-1.11-1.41-2.12-.82-4.1,2.77.78,3.19,3.92,5.74,4.92.47-3.23-5.23-5.92-4.51-9.43,6,3.58,8.48,10.65,13.54,15.17-1.47-5.52-6.4-9.71-7-14.76,4.53,2.17,6,7.37,9,11.07,2.14-3.49,2-7.47,3.28-11.07,1.22-3.43,3.32-6.76,5.33-10.25,2.65-4.61,5.88-9.76,9-14.35-1.21-3.92.42-6.45,1.64-10.26,1.72-5.36,3.18-10.34,5.74-14.76.36-.62,1.23-.67,1.64-1.23,1.57-2.14,2.37-5.4,3.69-7.79,1-1.87,2.17-3.09,3.28-5.33,2.19-4.41,5.73-8.65,8.2-13.53-1.63-5.3-5.45-8.61-8.2-13.53-.6-1.07-1.08-2.32-1.64-3.28-1.21-2.11-3.14-3.61-4.1-5.75-.81-1.79-.54-3.88-2.05-5.33-3.89.25-6.75-.5-9.84,0-.69-.81,0-.52,0-1.64-.42-.9-1.41,1-2.87.41.19-1.29-.59-1.6-.82-2.46-1.14-.17-.39,1.53-1.23,1.64-1.64-.68-3.26-1.39-4.1-2.87-1.73-.19-3.44-.39-3.69-2-1.54,0-1.24,1.77-3.28,1.23-1.18-.74-.6-3.23-1.23-4.51-2.15.54-3.11-.19-4.92.41-.63-1.83-2.69-2.23-2.46-4.92-6.44,1.44-11.38-2-14.36-5.33-.34-1.16.58-1.06.41-2.05-2-2.9-1.22-6.34-2.87-9.84.66-.57.44-2,1.23-2.46-3.4-3.12-4-7.39-4.51-12.71-9.42.78-23,2.57-34.44,2.46-3.94,0-7.91-.64-10.67-4.11,3.89-5.52,16.58-4.77,25.84-6.15,6.68-1,14.06,0,19.27-1.23,1.8-.42,3.14-1.75,4.92-2,3.2-.52,7.86-.31,9.43,1.23,7.05-.93,14.51-1,20.92-1.64,1.22,0,.52-1.93,1.23-2.46,4.14.48,9.55-1.95,11.07,1.64,1.67-.65,5.13-.82,5.74.82,1.44.08,1.35-1.38,2.46-1.64,1.32-.36.85,1.07,1.64,1.23a56.78,56.78,0,0,1,21.32,7c1.3-1.59-1-2.3-1.23-3.69-1.74-7.44-2.69-15.28-4.51-23-.19-.83-1-1.6-1.23-2.46-.75-2.55-.5-5.52-1.23-7.79-.64-2-1.58-5.42-2.46-8.61-.55-2-1.62-3.86-2-5.74-.19-.87.24-1.65,0-2.46-1.74-6-5.11-11.1-8.61-15.59-.83-6.13-5.56-8.38-7.79-13.12-5.26-2.94-9.09-7.31-13.94-10.66-1.4-.31-.52,1.67-2.05,1.23a15.21,15.21,0,0,0-5.74-5.74c-1.33-.51-.32,1.33-1.64.82-4.15-1.86-7.67-4.36-11.48-6.56-1.69-.32-.78,2-2.46,1.64-2.73-1.27-5.5-5.67-8.21-3.28a13.82,13.82,0,0,1-4.1-4.1c-3.24-.17-5.34-1.49-8.2-2.05-1.31-.36-.56,1.35-1.64,1.23-4-1.31-7.21-3.45-11.89-4.1,1.4,1.47,3.63,2.11,5.33,3.28-1.25,1.83-3.71.06-5.33-.41-3.4-1-6.89-3.56-9.84-4.92-1.62.13.3,1.27-.82,1.64-7,0-10-3.92-16-4.92.19,2.13,3.47,1.17,3.69,3.28-5.13.2-7.39-2.46-10.66-4.1-6.27,1.49-10.15-1-15.18-2.05-1.25,1.45,2.27.77,2.05,2.46-4.74.34-9.16-3.12-15.17-2.87.17,2.28,3.3,1.62,4.51,2.87-.94,1.66-4.68.13-7-.82s-4.34-3.3-7-2.87c.58,2,3.37,1.82,4.51,3.28-.36,1.54-2.8.59-3.69.41-3.42-.7-7.22-3.33-10.66-4.1.78,1.82,3.42,1.76,4.51,3.28-3.12.92-6.61-1.32-9.43-2,3.27,4.25,9.11,5.92,12.3,10.25,7.79-.93,12,5.48,15.17,11.07,1.19,2.07,2.56,4.25,2.87,6.15-5.06-2.41-5.83-8.71-9.84-12.3-1.72-1.55-3.87-2-5.74-3.69h-4.1c-2.09-.37-2.16-2.76-4.51-2.87-2.25-4.86-8.51-5.71-12.3-9-3.37.22-5.23-1.07-7.38-2.05-7-.09-13.42.13-18.87,0-7.53-.19-12,4.36-17.63,6.56A18.65,18.65,0,0,1,91.55,10c-8.31-3.73-18.43-.53-27.06,2.05-3.87,1.15-7.33,3-9,5.33-5.2.7-7.13,6.79-11.9,6.56-.15-2.18,2.32-2.68,3.69-3.69,1.65-1.21,2.91-3,4.51-4.1s4.1-1.22,4.93-3.28c11-4.22,29.67-11.33,40.18-2.05,6.2-5.09,19-6.3,29.12-4.92-1.43-1.57-5-2-7.8-2.46a79.83,79.83,0,0,0-9-1.23c-2.68-.16-5.68.8-7.79-.41.3-2.58,4.15-1.72,6.15-1.64,2.17.08,4.62.28,6.56.41,2.68.17,5.3.48,6.56,1.23,2.69-1.46,7.91-.92,10.26.41,1.47.1,1.5-1.23,2.87-1.23,7.51.8,15.25-.14,22.55-.41,5.23-.2,13.83,1,18.86.41.6-.08,1.43-.82,2.05-.82,2.84,0,5.95.54,9,.82,7,.63,14.74,2.21,22.56,3.28a236.36,236.36,0,0,1,31.57,6.15c5.91,1.67,11.48,5.13,17.64,4.92,6.59,3.11,12.75,6.65,19.27,9.84a10.71,10.71,0,0,0,1.23,2.05c4.31,1.7,7.09,4.94,11.48,6.56,5,5.26,11.05,9.46,16,14.76,2.62,4.75,6.71,9.39,9.84,14.36.45.7.36,1.71.82,2.46s1.32,1,1.64,1.64a78.73,78.73,0,0,1,2.88,7.79,265.33,265.33,0,0,1,11.89,48.38c.53,3.66,2.52,7.09-.41,9.44,10.24,5.56,18.1,15.4,18.86,29.11,1.86,1.15,5.07,1,5.33,3.69,1-.12.76-1.42,2.05-1.23,2,1.11,3.36,2.93,5.74,3.69-.15,2.25,2.15,4.37,2.87,7a11.3,11.3,0,0,1,4.1,0,55.65,55.65,0,0,1-3.28-9c-.85-3.07-2.4-6-2.46-9-.16-9.4-.58-21.92,3.69-29.93.4-7.53,3.65-12.22,7.38-16.41,0-1.25-1.47-1-1.23-2.46.8-1.39,1.36-3,2.46-4.1,3.88.57,5.16-2.56,7-4.51,3.3-3.55,7.45-6.27,11.07-9-1.9-5.09-3.58-12.14-2.05-19.68,3.89-1.58,5.13-5.81,9-7.38,0-2.41.72-3.36-.41-4.93,2.31-4,3.29-8.7,7.38-11.07,1.22-.7,3.06-.68,4.51-1.23,3.32-1.26,6.7-2.57,9-4.92,2.3.84,4.41-.93,6.56-1.23,9.53-1.33,19.69,2.06,27.07,4.92,7.66,5.46,12.57,13.68,22.14,17.23.32.91.24,2.22,1.23,2.46,2.11-.9,2.1-3.91,4.92-4.1,1.77,1.3,1.37,4.08,2.05,6.15.52,1.55,1.84,2.52,1.64,4.1-1.68,2.51-7.13,1.71-10.25,1.64.88,2.07,3.57,2.06,5.33,2.87s3.43,2.61,5.74,2.46c2.31,2.47,6.81,2.76,9,5.33-2.7,4.24-9.35,3.63-15.17,3.28-2.47.68-1.09,5.19-4.1,5.33.82,4.24,3.95,6.16,5.33,9.84a10,10,0,0,0,5.33.82c12,4.8,16,17.6,29.94,20.51,1.82,2.62,5.51,3.45,7.79,6.15,1.43,1.7,2.71,4.43,4.1,6.56,2,3,3.94,4.87,4.51,8.61.3,2-.31,4.1,0,6.15.12.8.89,1.51,1.23,2.46.49,1.39.24,2.74.82,3.69,1.86,3.07,6,3.36,8.61,5.74,2.13,4.94,2.9,8.81,4.51,13.12,2,5.37,6,9.81,9.84,14.36,4.8,5.63,9.09,9.21,10.66,16.81,1.26,6-.28,9.54-3.28,14.35-1.72,2.77-4.5,5.6-4.51,8.2,0,2.94,5.38,8.69,7.38,12.71,2.88,5.78,3.34,11.1,4.92,17.23.32,1.23,1.38,3,1.65,4.1.45,1.92.2,3.62.82,5.33,1.52,4.22,4.65,7.47,6.56,11.07,2.08,3.93,3.44,7.73,5.74,11.89,7.34-.66,14.43-1.42,21.73.41-.34,2.53,1.18,3.2,1.23,5.33-5.62,2.18-14,1.57-21.73,1.64-.47,1.79-.94,4.61-.41,6.15,3.07,2.62,8.15.63,12.3,1.23,2.78.41,7.47.78,9.84,2,.84,2.86.22,7.16.41,10.67-2.43,1.14-5,3.29-9.84,2.87-.6-.06-1.33-.76-2.05-.82,0,0-3.46,1.22-2-.41-4.6,1.32-11.08-.39-14.76,0-1.77,1.51-1.94,4.63-2.87,7,2,1.65,5.29.61,7.79.82,4.63.39,10.89-.64,15.58-.82,2-.08,4.26.09,5.74,1.23-.86,1.47-4.57,1.93-7.79,2.46-3,.5-6.83.22-9,1.64,5.09,4.6,10.38,9,9,17.22-.38,2.27-2.14,4-3.28,6.15,0,0-.56,2.64-1.62,3.28ZM454.86,46.53a55.93,55.93,0,0,0-16-4.1c-9-.72-14.41,2.81-20.51,5.33-4.67,1.93-8.17,1.57-9.43,6.15,1.73-.18,2.21-1.61,4.51-1.23.22,1.45-1.45,1-1.23,2.46,2.42.08,4.72-2.1,6.56-1.23,1.29,1.59-2,1.29-2,2.87,2.23.16,4.54-1.74,6.57-.41.2,2-2.37,1.19-2.46,2.87,2.1.08,5.43-1.45,6.15.82-.89.62-2.55.46-2.87,1.64,1.51.26,4.08-.53,4.92.41-.37,1.54-2.13,1.7-4.1,1.64,1.57,2.53,5.85,2.35,9,3.28.49,1.19-2.46,1.87-.41,2a10.66,10.66,0,0,1,3.28-1.23c4.32-.68,10.79.94,13.12-.41-1.53-1.47-5.17-.85-5.74-3.28,1.22-.59,2.5,1.44,2.46-.41-2.27,0-3.61-1-5.33-2.46-1.25,0-3.34,1.28-3.28-.82,2.41-2.23,4.74,0,6.15.41.86.24,2-.19,2.87,0,2.53.55,4.19,3.1,6.15,3.69,2.61.79,5.69.12,8.2.41,3,.35,5.39,1.78,8.2,1.23a10.57,10.57,0,0,0,7,2.05c.11-1.8.66-3.17.41-5.33-10.17-2.44-14-12.6-22.14-16.4ZM424.1,79.33c1.11,3.26,0,8,.41,11.08,4.41-1.61,7.21-4.82,11.48-6.56,1.44-.24,1.35,1.93,2.46.82,4.49-2.8,8.86-5.7,14.35-7.38,2.24-.69,5-.6,7.38-1.23,2.59-.7,5.24-1.74,7.8-2.46s6.09-1.14,7-3.7a60.09,60.09,0,0,0-10.25-.41c-2.51,0-5.18-.91-7.8-.82-2.87.1-6,1-9,1.23-3.29.21-6.53-.25-9.43,0-1.64.15-2.95.88-4.51.82-5.82-.21-10.27-3.32-14.76-4.92-.32.1-.81,0-.82.41,4.77,1.89,11.41,8.07,5.74,13.13Zm55.36-9.43c2.28-.35,5,.56,6.15,0-.44-1.33-1.42-2.13-1.64-3.69-2.23.51-3.39,2.08-4.51,3.69ZM420,83c1.25.29,1.21-.71,2.46-.42.48-3.72-1.85-5.15-1.64-8.61-2.28-1.68-3.69-4.24-7.79-4.1,2.73,4,6.77,6.63,7,13.13Zm-21.73-3.28c1.16.33,1.06-.58,2.05-.42-.33-2.93.33-5.5-1.23-7.79h-1.23c-.32,3.19.62,5.12.41,8.2Zm83.65,2.87c-2.56-.43-4.9-1.91-7.38-2.46-1-.23-2.24.2-3.28,0-3.28-.65-6.55-5.38-9.43-2,1.7.11,1.59-.54,2.87,0,7.78,4.39,19.72,8.15,29.52,4.92-3.86-.74-8.09.29-12.3-.42Zm-64.79,9.84c2.08-3.46-.93-7.14.41-10.66-1.15-.63-1.68.13-3.28-.41a1.82,1.82,0,0,1-.82,1.64c-.14,3.14,3.76,4.43,2.46,7.38-4.69-1.19-3.51-8.25-6.56-11.08-.55,6,2,12.14,7.79,13.13Zm31.57-7.79c-1.42.19-.23-2.23-1.23-2.46-6.55,5.47-16.3,7.75-24.19,11.89-.56-.13-.79-.59-1.64-.41-1.08,1.09-3.58,2.29-4.92.82-1.33-.51-.32,1.32-1.64.82-2.1-2.32-6.88-3.07-10.67-2.46.31,1.8-1.32,1.68-1.64,2.87-5,2.5-8.9,6.13-13.53,9,1.08,1.87,3.16,3.48,5.33,2,2.35.8,2.27,4,4.92,4.51a6.52,6.52,0,0,0-.82-3.69c-.34-.88-2.61.15-2.87-.82v-1.64c4-.17,5.36,2.3,6.15,5.33,7.5-.64,18.13-1.66,20.51,4.1,5.38,1.86,8.57,5.91,14.35,7.38.7-1.07,1.19-2.36,3.28-2,0,.41.33.49.41.82.33,2.12-1.71,1.85-1.64,3.69.84.12.8,1.11,1.64,1.23,2.23-.51,2.36-5.28,5.33-3.69.64,2.38-2.77,4-2.87,7,4.36.81,1.84-5.26,5.33-5.33,2,1.54-.34,4.88-1.23,6.15-.21,8.13-6.16,10.51-13.94,11.07-1,.3-1.69-1.8-2.46-.41.72,0-.66,1.94.41,2.46,1.29.21,1.45-.73,2.87-.41a2,2,0,0,1,0,2.46c3.67,1.63,4.89-1.69,7.79,0,.14,1.93-3.57,2.16-2.46,3.7.53-.34,2.3-1.48,2.46-.82a7.33,7.33,0,0,0,2.87,4.92,25.91,25.91,0,0,0,.82-8.2c1.77-1.08,1-3.06,1.64-4.52.75-1.66,2.36-3.19,3.28-4.92,1.15-2.15,2.38-4.85,3.28-6.15,2.46-3.52,3.74-6.26,6.15-9,.74-.85,1.29-2,2.05-2.87,1.09-1.27,2.76-1.69,3.69-2.46.6-.5.45-1.4.82-1.64.56-.37,1.2,0,1.64-.41.75-.72,1.12-2.24,2.46-4.1,2.78-3.84,7.6-7.23,5.33-13.12-3.49,5-7.19,9.75-12.71,12.71-.13-1-1.27-.92-1.64-1.64-1.42.08-1.56,1.45-2.87,1.64-1.83-3.11,2.26-6.53,3.69-9,.33-1.37-.27-2.79,1.64-3.28,1.4,0,.24,2.49,1.64,2.46.15-3,2.19-4.11,2.46-7,3-.21,1.09,4.06,2,4.92.76-1.3,1.39-2.71,3.28-2.87.71-3.13,3-4.65,4.92-6.56-3.38,1.12-8.08.65-11.48-.41-2.32,2.5-6.05,2.76-10.66,2.46,0-1,.71-1.21.41-2.46-1.09,0-2.41.22-2.46-.82.53-1.66,2.07-2.31,2.46-4.11-4.1-.41-4.65,2.73-7.79,3.29Zm27.89,20.91c1.57.33,1.59-.88,2.05-1.64-.52,0-.57-.53-1.23-.41-.18.78-.89,1-.82,2ZM522.1,126.5c-3.1.12-4.67-1.52-6.15-2.46-.42-.27-.54-1.06-.82-1.23-.66-.41-2.11-.43-2.87-.82-2.32-1.2-4.35-3.4-7.38-3.69-.61-1.59-1.41-3-3.28-3.28a2.68,2.68,0,0,0-.41-2c-4.36-4.81-11.15-7.17-18-9.43h-.82c-1.43,3.49-4.85,5-8.62,6.15-1.51,3.27-5.47,4.09-7.38,7,2.55-.11,7.31-3.45,9-.41-3,2.66-10.79,2.56-11.07,6.56,4.86-1.65,13.48-4.73,18.05-1.64a32.31,32.31,0,0,1,10.25-.82c2.88.31,4.76,1.77,7.38,2.87,3.77,1.58,8.83,2.07,9.43,5.74-1.87,1.08-2.71-.67-4.1-1.23-4.51-.25-9.6-3.31-15.17-3.69-1.17-.08-2.4.4-3.69.41-4,0-8.41-.92-11.9-.41-1.75.25-5.16,1.49-7.38,2-3.62.91-4.84,10.32-6.15,13.53-2,4.86-.11,7.61.41,13.53a104.8,104.8,0,0,0,11.89,12.31c3.19-.18,4.92,3.27,7,2.87-1-.12-1-1.11,0-1.23,3.87,1,6,6,9.84,5.74-.69-.44-2.78-1.56-1.64-2.46,3-.46,7,3.55,9.84,3.28,1-.88-2.36-1.17-.82-2.87,4.85,1,8.62,4.68,13.94,2.87-.28,2.11,1.13,3.51-.82,4.1-1.29.2-1.45-.74-2.87-.41-1.62.7-2.39,2.26-3.69,3.28-5.13.5-11.73,1.81-17.63.82-2.7-.45-4.73-2.78-7.38-2,.55,1.62,2,2.61,3.28,4.1s2.07,3.45,3.28,4.51c2.47,2.18,4.89,2,7.38,1.64s5.68.12,8.2-1.23c1.29-.47,1,.65,1.64.82,2.05-.76,3.79-3.75,6.15-2.87.66,2.71-2.21,1.89-2.46,3.69,3.82-.54,4-2.93,7.38-3.28v2.05c-1.12.3-.82-.81-1.64-.82.11,2.7-2.91,2.29-3.69,4.1,0,1.77,2,1.51,2.05,3.28-2.28,10.61,6.26,12.5,11.07,17.22,1.94-.25,2.52-1.85,4.51-2.05,1.67-3.25,4.8-5,7-7.79-1.13.21-3.43,1.83-4.1,0,.35-2.57,4.71-3.24,6.15-1.23,6.59-5.94,16.85-3.66,20.92,3.69-2.63,2-6.34,3-8.61,5.33-2.13-.39-6.88.65-9.85,0-4.7,4.95-12.31,10.64-20.91,9.85,1.78,2.25,5.22,3.1,8.2,3.28a43.6,43.6,0,0,0,7-.41c4.75-.63,9.74-3.39,13.95-3.69.56-.05.75.64,1.64.41,1.48-.4,2.33-1.64,4.1-2.05a3.86,3.86,0,0,0,1.64.41c3.14-.26,6.87-1.84,8.2.82.16,1.93-.87,2.69.41,3.69-2.43,1.52-6.57,3.1-9.43,2.87-4.76,2.62-9.65,5.11-16,6.15.13,2.59-1.84,3.07-2.46,4.92,6.89,1.89,10.87-4.92,17.23-6.15,1-1.19,4.12-3.73,5.33-2a4,4,0,0,0-2,3.69c-.56.13-.79.58-1.64.41-2.65,5.29-8.91,12.4-15.18,12.3-4.33-.07-7.54-3.58-12.3-2.46-.48-1.13-1.64-.52-2.46-.82-4-1.48-7.33-5-11.07-4.92,4,3.48,9.3,5.73,13.94,8.61,1.25.26,3.53-.53,4.1.41-.89,3.46-5.14,2.93-8.2,3.28a12.51,12.51,0,0,0,8.61,2.46c6.09,3.89,17.9.9,22.56-2.87a10.61,10.61,0,0,1,2-3.28c-.24-1.33.28-1.91.41-2.87,4.35-5.77,6.2-14.09,9.84-19.69,1.84-2.83,5-6.51,5.33-9.84,1.36-12.26-10-17.4-15.58-25-1.54-2.12-2.27-4.78-3.69-7-1.07-1.66-2.94-3.07-4.1-4.51-3-3.73-4.52-7.55-7.39-11.08-4.71-.54-9.69-4.44-15.58-5.33-1.81-.27-3.77.14-5.74,0-3.34-.22-6.59-1.85-9.43-2.05-1.86-.13-3.86,1.68-5.33,0,1.27-3.92,7.57-2.82,9.84-5.74-5.52-1.69-10.77,1.51-15.58.41.09-3.78,4.31-2.33,7.79-2.87a24.24,24.24,0,0,1,7.79,0c1.74.18,4-.73,4.92.82.12,1.08-1.59.32-1.23,1.64,3.7-.94,7.31,1.32,11.07,1.64-2-7.39-7.9-14.18-13.12-18,.24-2.21-2.14-4.34.41-5.33,4.38,2.73,8.06,6.15,12.3,9,0-2.43-1.84-3.08-3.28-4.1a2.28,2.28,0,0,0-.41-1.64,44.93,44.93,0,0,1-4.1-3.69c-.66-1.51-4.07-2-3.28-3.69a27.08,27.08,0,0,1,9.84,7c1.25,1.33,2,3.54,3.69,3.69-1.78-4.51-5.28-7.3-8.2-10.66ZM385.56,107.22c1.77,3.84,6.6,4.6,8.2,8.61a9.11,9.11,0,0,0-8.2-8.61Zm-3.29,7.38c1.87-.18,3.32,1.61,4.1,1.23-1-1.36-1.87-2.77-3.69-3.28a2.7,2.7,0,0,0-.41,2Zm20.1-1.64c-1.54,1.48-4.35,1.31-6.15,2.46a43.08,43.08,0,0,0-4.92,4.51c-2.69,3.38-5,13.89-5.74,18.86-1.35,9.58.56,19.35,3.69,25.43,2.61-1.84,3.16-5.27,4.92-7.8s4.19-4.09,6.15-6.15c1.56-8,1.3-15.85,5.74-20.5,3.66-3.84,8.81-5,12.71-8.61-2.67-5.36-9.17-8.72-16.4-8.2Zm-20.51,7.38c2,.63,3,2.18,4.92,2.87.74-2.34-1.68-4.81-4.1-5.33.44,1.54-1,1.17-.82,2.46Zm-2.46,4.52c-.18.9,2.46,1,1.23,1.64-2.35.19-5.87-1.73-5.74,1.64.79.85,3.42-.14,3.28,1.64-.53,1.74-2,0-3.69.41a10.51,10.51,0,0,0-2.05,5.74c1.16,1.16,5.3-.65,5.33,1.64-1.94.93-5.89-.15-7,1.64v2.46c1.35.77,4.42-1.09,4.51,1.64-1.08,1-4.38-.28-4.51,1.64v1.23c.77.48,3.87-.78,3.69,1.64-1.35,1-5.62.79-4.1,3.28.44,1.06,3.4-.39,2.87,1.64-.74,1.44-3.72.66-2.87,3.69,2.24,1.81,4.35-1.8,6.15-.41-.94,2.62-5.2,1.91-6.15,4.51,2.12,2.49,5.74-1.21,7.79,0-.3,3.12-5.19,1.65-6.15,4.1-.18,5,6.3.85,8.61.82-1,2.71-3.6,3.78-7,4.1-.26,1.91.74,2.54,1.64,3.28,3.12.39,4.9-2.73,7.38-1.64-.86,2.83-5.15,2.24-6.56,4.51-.07,1.16,1.23,1,1.23,2.05,4.22.82,5.93-4.82,9-2.46-1.79,2.18-4.43,3.5-7.38,4.52-.2,1.29.58,1.6.82,2.46,4,.57,5.84-4.92,8.61-2.88-1.49,2.75-4.76,3.72-7,5.75,3.89,3.82,7.78-3.37,9.84-.41-1.24.24-2,1.28-2.87,2.05s-2.34,1.51-2.46,2.87c2.55,3.13,4-2,7-2.05,0,.41.33.48.41.82-.47,2.54-3.31,2.7-3.69,5.33,3.1,2.61,4-2.81,6.56-3.28,1.06,2.79-2.4,4.36-2.87,7,.32.09.48.34.41.82,4.52,2.14,3.29-4.5,7-4.51.49,3.56-3.13,5-2.46,7.38,4.4,2,3-5.19,6.56-5.33,1.69,3.07-2.66,5.39-1.64,7.79,3.61-.36,1.77-6.16,4.92-7,1.88,2.81-.68,5.79-1.64,8.2a9.74,9.74,0,0,0,2.46.82c1.95-1.47.51-6.33,3.28-7,2.49,2-.91,6,0,7.79,3.63.62,1.09-4.93,3.69-5.33,1.62-.12.12,2.89,1.23,3.28,1.56-4-1.29-6.86-2.05-9.84a109.26,109.26,0,0,1-14.76-7.8c-2.43-5.36-8.55-7-9.84-13.53-2.34-2.3-5.14-8.1-6.15-11.07-1.13-3.28-.9-8.15-1.64-11.89a32.57,32.57,0,0,1,.41-13.12c.9-4.14,1.91-7.62,2.46-11.08-1.14-2.25-4.64-4.87-6.15-1.23Zm-81.6,2c-1.22-2-4.46-.94-6.56-.41.51,2.53-.68,3.4,0,6.56a5.83,5.83,0,0,1-2.05,2c-5.82-.67-11.29.93-16.4,1.23-3.27.19-7.31.11-9.84-1.64-.56-2.94.07-4.26-.41-6.15h-3.69c-3.62,2.6-1.47,11.14-1.64,15.17.48,1.29,2.28,1.27,2.87,2.46.13,1.08-1.48,3.89.41,4.1,1.28-.28.53-1.09.41-2.05,2.29.24,1.94-2.16,3.69-2.46,2.94-.14,5.92.4,8.61-.41,1.7-.51,3.07-2.69,5.33-4.1,3.8-2.37,9.45-2.77,12.3-5.33,5.09-1.24,9.69-2.26,15.17-.82.26,1,.56,1.91,1.64,2.05a6.07,6.07,0,0,1,.41-4.51c-3.45-.45-5.55.46-7.79,1.23-2.06-1.07-2.77-3.51-2.46-7Zm5.33,4.93c.83-1.94-1-3.31.41-5.33h-3.28c-.82,2.25,0,5.47,2.87,5.33ZM349.47,170c.38-5.75-1.34-10.89-1.64-16.81C341,139,329.46,131,311.74,128.54c0,.53-.52.57-.41,1.23s-.46.91-.41,1.64a9.92,9.92,0,0,1,5.75,0c6.46,1.67,15.27,6.87,18.86,10.25,3.92,3.7,8,11.4,9.43,16.81,2.53,9.79-.66,19.88-3.69,27.07-5.46,13-13.78,25.9-20.09,36.9-.35.61-2.53,2.12-.82,3.28,10.55-10.09,16.84-24.44,23.78-38.13,1.67,4.53-2.45,7.85-4.1,11.89-1.31,3.2-1.42,7.07-2.87,10.25-.56,1.23-1.79,2.41-2.46,3.69-5.17,10-11,19.7-17.63,27.48-.6,2.4-1.29,4.73-3.29,5.74.26,2.17-1.44,2.38-1.23,4.51-2.55,3.27-4.74,7.65-7.79,11.89-7.52,10.47-19.09,24.34-19.27,39.78a31.73,31.73,0,0,0,.82,8.2c1.43,4.71,9.34,12.85,13.94,15.17,4.43,2.23,15.59,3.61,18.46.41-4.49.47-6.63-1-10.26-.41-6.06-2.48-11.06-3.82-14.76-8.61-.54-.7-.64-2.09-1.23-2.87-.75-1-1.69-1.36-2.05-2a22.72,22.72,0,0,1-1.64-5.74c-.88-6.37,2-11.61,2.46-17.23,2.66-3.21,3.53-7.42,5.33-11.07s4.95-6.51,5.74-10.66c6.61-5.83,10.11-14.77,16.82-20.5,1.49-4.52,5.55-6.47,6.56-11.48,3-2.15,4-5.59,5.74-9,1.05-2.13,1.78-4.44,2.87-6.57,2.15-4.17,5.45-8.12,7-11.89.58-1.44.29-3,.82-4.51,2-5.54,5.72-8.87,7.38-14.76a44.53,44.53,0,0,0,1.64-13.53c-2.5,1.05-1,6.09-3.69,7-1.57-4.25,1.76-8.21,2.06-12.71Zm-84.06-39.77a3.91,3.91,0,0,0,2,3.69c1.61-3.25,9.06.58,9.43-4.51-4,.14-8,1.35-11.48.82Zm-16.82,0a182.24,182.24,0,0,1-20.09,1.64c-2.06,0-4.56.75-7,.82-2.67.07-7.3-1.44-6.56,2.87a82.93,82.93,0,0,1,9-1.23c6.42-.32,14.14.25,20.09-.82,1.41-.25,5.6-1.75,5.33-3.28Zm55,7c-5.27-.63-8.19,1.1-12.71,1.23-1.75,3.58-.45,10.21-5.74,10.25-.58-1.44,1.15-2.63,0-3.28-.93,1.8-3.1,2.36-3.69,4.51,1.69,2.21,5.23,4.56,8.2,2,2.48-2.44,1-8.88,4.51-10.25,1.93,2,1.6,5.11,1.23,8.61,2.93-1,3.86-4.07,6.56-5.33.05,2.37,1.82.58,2.46,2.05-.39,3-2.58,2.91-2.46,5.33.18,3.61,6.57,5.38,7.38,9,1.4.31.52-1.67,2.05-1.23,1.13,1,2.86.83,4.51.41.81.78.2,1.94,0,2.87,2.27-1.21,2.63-5.35,2.87-7.79.62-6.33-5.22-7.75-7-11.07a4.59,4.59,0,0,1-3.28-.82c0-3.85-3.64-4-4.92-6.56ZM322.4,151.1a17.52,17.52,0,0,0,10.66,5.33c2.13-4.34-3.44-5.28-2.46-8.61-5.3-4.41-12-7.38-20.5-8.61,3.28,4.78,10.51,5.61,12.3,11.89Zm-57.81-2c-.29,3.41.76,5.23,1.23,7.38.24,1.1-.72,3.44,1.23,3.28.42-1.29-.2-3.39.41-5.33,1.83-2.27,5.65-2.56,5.74-6.56-1.76,0-6.47.3-8.61,1.23Zm147.62,11.07c1.07-1.13,4.42-2.13,3.69-3.69-3.79,0-6.82,3.69-10.66,4.92.89,2.66,3.33,3.77,4.1,6.56,4.8,1.91,9.4,4.54,15.17,2.46.72.37.68,1.51,1.64,1.64.72-.65,2.19-.55,3.28-.82-.29,1.49-1.93,1.89-.82,3.69,2.77.58,3.1-1.28,4.51-2,4.59-3.68,12.76-4.33,18.05-6.15,0-4.21-3.25-11.15.41-13.94.81,0,.52,1.12,1.64.82-.37-2.06,1.14-3.79,0-5.33-2.51-.32-2.78,1.59-4.51,2.05a65.66,65.66,0,0,0,.82,14.35c-.88.62-1.23,1.78-2.87,1.64.29-2.25,2.09-4.16.41-6.15-.79,7.33-7.07,5.53-12.31,6.56-2.2.43-3.72,2.35-5.74.82-.2-2.66,4-.95,4.1-3.28-5.1-.87-8.4,5.21-11.89,2.05,1-1.82,4.36-1.39,5.33-3.28-2.78-.92-4.55,2.49-7.79,2.46-.1-.59-.67-.69-.82-1.23.4-1.65,3.2-.9,3.69-2.46-1.85-.79-4.58,3-7.38,1.23,0-3.12,5-1.3,4.92-4.51-3-.2-4.45,5.07-7,1.64Zm-114.82-8.2c.86.65,3.83-1.76,2.87-2.87a12.81,12.81,0,0,1-2.87,2.87Zm-25.83,4.51c.67,4.64,6.94,1.26,7.38-2.05-2.16-4.86-7.86-1.27-7.38,2.05Zm145.16-1.23a1.89,1.89,0,0,1,1.23.41c.13-.56.58-.79.41-1.64h-1.23a1.91,1.91,0,0,1-.41,1.23Zm27.06,1.64c.35-1.28,1.2-1.77,0-2.87,0,.73-1.1,2.39,0,2.87Zm-155.41-1.23c-3.81.72-10.21,4.16-10.25,6.56,0,1.39,1.52,1.64,2.46,2.87.32.42-.27,1.59.82,1.23,1.3-4.44,5.75-5.73,9.84-7.38-.94-1.11-2.37-1.73-2.87-3.28Zm44.29,26.65c1.87-1-2-3.52-1.23-4.92-.8-.41-2.06-2.44-.41-2.87,2.46,1.64,3.55,4.64,5.74,6.56.81-8.13-3.54-14.44-4.92-21.74-3.21-1-6.65-1.83-9.43-3.28.32,3,1.51,6.23.41,9.44-2.7.31-2.76,3.25-4.51,4.51.32,3.87-2.79,4.31-4.1,6.56,4.87.59,6.41,4.52,9.43,7,.36-2.3-3.83-3.41-1.64-4.92,2.58,1.79,4.16,6.76,7,7-.68-2.19-3.39-4.53-2.87-6.56,2.41.32,2.25,3.22,4.51,3.69.42-2.2-1.51-2-1.23-4.1,1,1.35,3.26,1.38,3.28,3.69Zm-31.17-24.6c-1.31-.78-1.72.1-3.28-.41C297.7,159.12,301.78,159.66,301.49,157.66Zm157.06,2.46v-1.64h-1.23C457.2,159.55,457.18,160.53,458.55,160.12Zm-174.28,5.74c0,1.77,2,1.51,2.05,3.28.51,1.27-1.57,3.12.41,3.28.07-1.28,1.52-1.92,2-3.28.22-.56-.3-1.54,0-2,1.23-2.11,3.42-2.52,4.51-4.51.4-.29-1-2.28-1.64-2.87-1.29,3.22-6.6,2.43-7.38,6.15Zm12.3-3.28c2.95.74,3.46,3.92,5.33,5.74-.93,3.86-4.43,7.32-4.51,10.66,2.45-4,8-3,13.12-2A75.44,75.44,0,0,0,304,163c-2.66,1.91-3.32-2.9-7.38-2.05v1.64Zm-3.69,4.51c.15-1.1,2.8-1.82,1.64-2.87-.54.72-3,1.65-1.64,2.87Zm251-1.64c.41,0,.49.33.82.41,0-.65.06-1.42-.82-1.23v.82Zm-190.68,1.23a1.54,1.54,0,0,0-1.64-1.64C351.33,166.32,351.88,166.87,353.16,166.68Zm-59.46,7.79a12.33,12.33,0,0,0,2.87-4.51c.3-.66,2,.09,1.64-1.23-.53-1.11-.75-2.54-2-2.87-1.74,1.78-7.26,6.6-2.46,8.61Zm251-7.38c.41,0,.49.33.82.41,0-.65.06-1.43-.82-1.23v.82Zm-233.33,4.1c.46.25,3.5.46,3.28-1.23-2.34-.08.23-2.64-1.64-2.87-.43,1.49-1.92,1.9-1.64,4.1Zm125.07,2.46c-1.27,3.17.49,9.81.82,15.58.08,1.45-.19,3,0,4.1.25,1.51,1.24,2.79,1.23,4.1s-.94,2.62-.82,3.69c.47,4.37,5.13,8.38,7,12.71,1.39,3.27,1.43,6,3.69,8.21-.13,1-.65,1.53-.41,2.87,3.53,6,3.82,15.31,9.84,18.86,2.61-1,4.79-.26,7.38-.82.58-2.49-2.09-1.74-1.64-4.1-1.92.15-3.38-.17-3.69-1.64.16-2.72,2-3.78,2.05-6.56,6.33-2.36,3-5.46,1.23-11.49-.55-1.91-.36-4.21-.82-5.74-.51-1.71-2.06-3.4-2.46-4.92s0-3.05-.41-4.51c-1.52-5.83-5.47-10.33-4.51-15.17a21.94,21.94,0,0,1-2.05-9.43c-1.65-1.79-2.07-6-1.23-9-5.92-1.39-10.89,1.66-15.17,3.28Zm-20.09,5.74c3.52-.58,5.69-2.52,7.79-4.51-1.65-.12.27-1.82-1.64-2-1.94,2.3-5.34,3.13-6.15,6.56Zm83.24-2a1.91,1.91,0,0,0,.41,1.23c1.25-.4,4.16.88,4.1-.82-1.12-.46-3.57-1.05-4.51-.41Zm-70.12,2.87c-.56-1.42,1.84-1.94.41-2.87-.44.76-2,2.54-.41,2.87ZM363,192.1c.84,2.1.76,5,2.87,5.74A15.91,15.91,0,0,0,361,186.36c.15,2.73,1.39,4.09,2.05,5.74Zm-9.84-2c.95-.42,1.91-.83,2-2.05-.36-.6-.32-1.59-1.64-1.23-.37.9-.91,2.72-.41,3.28Zm68.48,1.22c-1.49-2.37-2.2-3.81-4.51-2.87a36.69,36.69,0,0,1,5.74,11.48C426.18,196.92,423.28,193.88,421.64,191.28Zm7.79,6.16c.09-.46.46-.64.82-.82,0-1.36-1.17-1.57-2.46-1.64-.84,1.5.5,1.87,1.64,2.46ZM329,196.62c-.06,1-.08,2,.82,2,.4-1.11.9-2.1,1.23-3.28h-1.23c.49,1.13.44,2.17-.82,1.23Zm159.51,1.64c1-1.83-1.28-2.1-2.46-2.87-.81,1.21,1.36,2.27,2.46,2.87Zm17.63,1.64c1-1,.16-2.58-1.64-2.05-.1,1.33.49,2,1.64,2.05Zm-185.35,0c.13-.56.58-.79.41-1.64h-1.23C319.83,199.19,320,199.8,320.76,199.9Zm110.31,2c-.38-.72-1.28-.91-2.46-.82C427.72,202.87,431.18,203.6,431.07,202Zm116.46,2.87a1.8,1.8,0,0,0-1.64-.82c-1.68,1.37,1.83,3.24,1.64.82ZM428.2,208.1c1.05-.32,2.32-.41,2.87-1.23-1.27,0-1.17-1.29-2.87-.82Zm41,4.51c1.87-.76,2.18-2.24,1.64-4.51a13.53,13.53,0,0,0-4.51-2c-1.8,2.17.85,5.61,2.87,6.56Zm-37.73-1.23c.66-1.15-1.77-1.14-1.64-.41.56.13.78.58,1.64.41Zm-95.13,16.4c-2.75,2.47-3.25,5.82-5.33,9-.45.68-1.57,1-2,1.64-1.15,1.57-2,3.59-3.28,5.33-2.14,2.79-4.71,5.52-6.56,7.79a44.77,44.77,0,0,0-3.28,5.33c-.32.51-.51,1.58-.82,2.05-1.88,2.83-5.63,5.1-6.56,7.79a19.55,19.55,0,0,0-.41,3.69,71.44,71.44,0,0,0,.41,10.66c.57,4.78,3.14,8.67,4.1,12.72,6.8,6.69,11,14.8,22.55,13.53,1.25-.14,2.68-1,4.1-1.23a90.57,90.57,0,0,0,10.66-2.46,18.9,18.9,0,0,1,5.33-5.74c4.71-3.65,9.16-7.12,13.54-11.07,6.66-6,14-11.93,22.55-15.59a71.33,71.33,0,0,1,19.27-9.43,65.33,65.33,0,0,1,7.79-2.05c3.59-.66,5.36-1.75,8.2-2.46,4-1,8.43-.46,12.72-1.23,0-3.56-3.24-3.87-4.92-5.74-4.93,0-7.07-2.77-11.9-2.87-8-5.36-6.42-20.37-11.89-28.29-3.45,2.91-6,4.07-10.25,6.15a23.16,23.16,0,0,1-6.56,2.46,37.73,37.73,0,0,1-11.48-.82c-1.15-.33-2-1.54-3.28-2.05-2.22-.9-5.14-.81-7.38-1.64-6.33-2.36-11.65-8.83-18.87-6.16,5.08,21.21,9.64,46.38,17.23,66.44a58.17,58.17,0,0,0-9,8.2,7.66,7.66,0,0,1-.81-4.51c-3.18-3.88-1.68-9.37-4.11-12.72a1.86,1.86,0,0,1,.41-2.46c-1-.75-2.31-1.24-2.87-2.46,1.52-6-8-6.45-6.56-12.3a21.72,21.72,0,0,0,3.28,2.87c1,.64,3.19,2.79,4.1.82.83-1.66-3.18-2-4.1-3.28.32-.91,2.54.08,2-1.64-.06-1.44-2.51-.5-2.46-2,.72-.12,2.2,1.31,2.05-.41-1.45-1.28-3.51-2-4.92-3.28-.17-1.89-1-4.2.82-4.92,1.49.56,2.65,3.18,4.51,2.05-.29-3.12-3.8-3-5.33-4.92,1.52-.57-.43-2,1.23-2.46.83,1.25,1,3.79,3.69,2.46.5-3-2.44-2.48-2.46-4.92.78-.19,2.47.56,2-.82-.27-2.05-2.32-2.33-1.64-5.33-.71-1.07-3.38-.17-3.28-2.05.54-.74,2.61.9,2.46-1.23.1-2.42-3.44-1.21-3.28-3.69,2-.36,2.11,1.17,4.1.82,0-4.38-5.94-4.95-4.92-9,2.59-.13,4.2.94,5.74-.41a27.49,27.49,0,0,0-7.38-2.88c-1.66,5.57-5.8,8.68-7,14.75Zm100-10.66c-2.19-1-3.35-2.94-6.56-2.87.45,2.43,4.75,3.17,6.56,2.87Zm34,2.87c2.15.08.81-2.41-.41-2.46-.3,1.25.71,1.21.41,2.46Zm80.78,2.46c1.54,1,4-.61,5.74-.82a1.12,1.12,0,0,0-.82-1.23c-1.06,1.51-4.72.8-4.92,2Zm-111.54,3.69c.19-1.29-.36-1.83-1.64-1.64C437.76,225.88,438.73,226,439.68,226.14Zm29.12,4.51c.46.08.64.45.82.82,1.34.1,2-.49,2.05-1.64-1.23-.57-2.51-.48-2.87.82Zm6.56,0c.05.5.12,1,.82.82,4,.29,11.36,3.84,13.94.41-5.09,0-11.09-1.17-14.76-1.23Zm-11.89,2.87c1.34.6,4.27-.24,4.1-2.46-2.26-1.52-3.22,1.3-4.1,2.46Zm40.18,15.58c-.63-.89-2.79-3.17-.82-4.1,2.24.49,2.32,3.14,4.92,3.28-2-3.66-4.45-7.28-6.15-10.67-.61-1.22-.88-2.84-2.05-3.69-8.05,5.35-16,14.38-25.83,19.28-4.21-2.4-11.06,1.1-16.41.41-.3,2.13-2.26,4.43-1.23,6.56,1.84.49,3.38-1.88,4.1,0-.19,2-2.6,1.77-3.28,3.28,2,.41,3-.62,3.28,1.23-1.28-.45-1.15-.27-1.64.82.94-.12,1.55.1,1.64.82a61.53,61.53,0,0,0-12.3,11.07c-.28,4.51-5.35,6.12,0,7.79,1.15-1.72,3.77-2,4.92-3.69-1.68-1.95-1.93-7,1.64-7a6.2,6.2,0,0,1,2.05,4.1c2,1,3.72-.28,5.75-.41,1.16,2,3.49,2.7,5.33,4.1,1.08.83,1.83,2.88,2.46,3.28a25.24,25.24,0,0,0,5.33,1.64c3.88,0,8.18-3.14,10.66-6.15a15.24,15.24,0,0,1-6.56-2.46c-2.3,1-3.35,5.39-6.56,4.1.82-2.31,3.44-2.84,3.69-5.74,1.84-1.29,4-2.27,4.1-5.33-3.82.56-4.74,4-8.2,4.92,1,1.67-2.72,3.28-3.69,2.87.27-2,1.81-2.83,3.28-3.69,1.26-2,5.43-4.68,7.79-7,1.16-.34,1.06.58,2.05.41-.85-3.6-9-11-2.46-12.71,1.27,1.74,3.56,2.45,5.33,3.69.3-1.67-1.32-1.41-.82-3.28,1.5-.27,1.57.89,2.87.82.23-.72-.5-2.41.41-2.46,1.95-.32,1.82,1.46,3.69,1.23-.1-2-3-2.85-2.05-4.51,2.65,1.18,4.63,3,7,4.51-.12-1.94-3.26-3-2.46-4.51,2.63.24,3.25,2.49,5.74,2.87-.94-2.89-4.25-3.4-4.92-6.56,5.49,1.06,6.57,6.54,11.89,7.79-1.54-4.88-9.09-5.95-9.43-10.66,3,.32,4.46,4.29,7,3.69Zm79.55,68.07c.2-2.67,1.63-4.11,2.87-5.74,1.41-5.23,2.44-14,.41-18.87-1.59-3.81-3.63-9.92-4.92-11.89-.63-1-1.76-1.59-2.46-2.46-1.85-2.29-4.07-5.13-4.92-8.2-1.19-4.3-.7-8.93-1.64-13.53a29.83,29.83,0,0,0-2-4.92c-2.37-5.24-4.79-9.52-7-14.35h-1.22a15.62,15.62,0,0,0-3.29,8.2c2,.25,2.18-1.39,4.52-.82,1.83,1.93,1.48,6.62-1.23,7.38a3.49,3.49,0,0,1-2.87-3.28c-2.32.41-3.38,2.08-4.52,3.69,5.75,5.19,7.47,14.4,9.85,23-3.15,4.59-6.29-1.56-6.15-5.33-2.84-2.77-7.07-4.14-7-9.84-1.77.46-2.43,2-4.1,2.87-4.88,2.57-12.06,2.53-17.63,4.51.29,6.27,4.43,8.69,6.56,13.12-1.87.4-3.53-.77-2.46-2.05-5.46-.4-6.65-6.85-7-11.07A89.22,89.22,0,0,0,512.26,270c-5.35,1.31-11.57,1.42-14.35,5.33,3.11,1.44,5.93,4.75,9.43,4.51,1.8,1,3.31,4.23,5.33,3.69.31-1.79-2.06-2.24-.82-3.69,3.7-.69,4.55,1.47,6.56,2.46-.36-2.32-3.07-4.19-2-6.56,2.29-1.43,2,1.73,4.1,1.64,0-2.75-1.13-3.66-.41-6.15,1.34,0,1.57-1.17,3.28-.82,2.57,11.88,10.92,18.6,21.73,21.73,1.46.43,3.49-.73,4.1,1.64-1.36,4.15-6.17.29-9.43.41-1.27.05-2.14.87-3.28.82-2.11-.09-3.89-1.18-5.74-1.23-1.17,1.29-4.19.73-5.33,2,16.9,11.94,27.44,30.25,44.7,41.83,8.08-3.13,6.61-15.8,13.11-20.51Zm-349-78.73c1.76.83,3.08,2.12,5.33,2.46-.83-1.44-3.9-4.25-5.33-2.46ZM185.85,245c2,1.34,5.89,2.77,9,1.64.39-2.85-3.16-1.76-4.92-2.46-1.27-1.19-1.95-3-3.69-3.69.24,1.87-.72,2.56-.41,4.51ZM229.73,243c.18-.79,1.17-.75.82-2-.55-.13-.78-.59-1.64-.41,0,1.09-.23,2.42.82,2.46Zm-1.23,4.1a2.7,2.7,0,0,0,.41-2.05C227.4,244.61,227.28,247,228.5,247.05Zm25.83,1.23c2.42.31,3.18,2.28,5.74,2.46a2.28,2.28,0,0,1,.41-1.64c-2.51,0-5-5.48-6.15-.82Zm-28.7,3.28h2.46c0-1.09.16-2.35-.41-2.87h-1.23c-.68.55-.14,2.33-.82,2.87Zm27.47-1.64c1,.05,1.28.78,1.64-.41-.54,0-.37-.72-.82-.82,0,.65-1,.33-.82,1.23Zm261.21,3.28c-1.61-.44-1.63-2.48-3.69-2.46C511.08,252.08,513.21,253.88,514.31,253.2Zm-256.69-.41h.82c.64-1-1.39-1.21-1.23-.41C257.46,252.41,257.69,252.45,257.62,252.79Zm-32,1.65V252.8H224c-.19,1.28.36,1.82,1.64,1.64Zm326,3.28c3.13.29,2.3,4.53,4.92,5.33a15.36,15.36,0,0,0-5.33-9A8.75,8.75,0,0,0,551.63,257.72Zm-276,4.92c-1-1.37-2.44-2.21-3.69-3.28C272.4,261,274.41,263.18,275.66,262.64Zm-29.53.82c.13-1,1.42-.77,1.23-2-1.16-.31-2.42,1.34-1.23,2Zm184.94.41c-.44.71-2,.5-3.69.82a58.72,58.72,0,0,0-11.89,3.69c-3,1.37-6.07,2.52-9,3.69-.29.11-.52,1.08-.82,1.23-.77.36-2.06.44-2.87.82-5.2,2.4-9.2,4.67-13.53,7-.84.26-.28,1.92-1.23,2.05-16.69,11.47-31.2,25.12-56.59,27.88-6-1.6-11.31-3.18-15.18-6.15-4-5.37-8.77-10.77-10.25-18.45-.54-2.79.38-5.8-1.23-8.61a23.09,23.09,0,0,0,0,12.71,22.25,22.25,0,0,0,3.28,7c1.12,1.8,1.88,4.09,2.46,4.92,1.21,1.71,3.3,2.35,5.33,3.69,5,3.32,8.35,6.33,16.82,5.74l6.15-.41c2.14-.14,4.15-1.5,6.15-2.05,3.76-1,7.57-1.57,11.07-2.87,3.87-1.43,6.62-3.48,9.43-4.51a4.47,4.47,0,0,1,2.05-2.87,67.38,67.38,0,0,1,7-4.51c7.36-4.69,14.59-8.89,21.73-13.53a107.45,107.45,0,0,1,29.94-13.53,25.29,25.29,0,0,1,2.46-.82c2.47-.46,7.46.95,8.2-2.46-1.09-.95-3.94-.15-5.73-.41Zm-252.6,1.64c.53-1.52-2.43-1.63-2.87-.82a3.14,3.14,0,0,0,2.87.82Zm3.69,2.87c.73-.1,2.05.41,1.64-.82h-1.64Zm239.07,4.92a58.13,58.13,0,0,0-8.61,3.69c-4,1.91-6.66,3.69-9.84,5.33-1.72.88-3.33,1.54-4.92,2.46-3.22,1.86-6.62,3.24-9,5.74,14.78-.4,36.88-1.43,54.12-1.64-1.95-1.87-5.45-4.4-4.92-7.79.34-2.13,2.4-2,3.28-4.1-.9-.6-3.05.05-3.28-1.23.22-1.84,1.24-2.87.82-5.33-6.91-1.09-13.07,1.4-17.64,2.87Zm-238.66-1.23c.32.09.48.34.41.82a2.68,2.68,0,0,0,2.05-.41C185.49,270.11,182.9,270.88,182.57,272.07Zm29.12,1.23h1.23v-1.23h-1.23v1.23Zm-50.85,1.64c-1.91.33-2.62-.27-3.69.41.49.37,3.88,1.15,3.69-.41Zm7.79.41c-1,0-1.21-.71-2.46-.41C166.13,276.45,168.22,276.35,168.63,275.35Zm40.19.41h1.23c0-.74-.41-1-1.23-.82Zm272.28,0V277c2.18.55,3.75,1.71,6.56,1.64-1-2-4.54-3.28-6.56-2.87ZM500,290.11c1.72-.31,2.92,1.48,4.1,2.46a128.86,128.86,0,0,1,18,18.86c2.2,2.75,4.71,5.4,6.56,8.2.42.63.48,1.49.82,2.05,2.9,4.69,7.08,8.76,9.44,13.53.84.4,1.62.84,2.46,1.23,2.86,4.55,6.84,8.24,10.25,12.31,7,8.28,14.76,16.4,23.37,22.55,4.5,3.21,9.46,5.57,13.94,9a55.64,55.64,0,0,1,7.8,1.64c2,.71,4.15,3.23,5.74,1.64-4.76-1-7.22-3.21-10.67-5.33-1.94-1.2-4.27-2-6.15-3.28a1.77,1.77,0,0,1-.82-1.64c-.2-.2-1,.16-1.23,0-2.92-2-5.72-3.73-8.2-5.74-8.13-6.59-17.34-13.41-22.55-22.14-7.13-7-12.45-15.49-18-23.79a184.76,184.76,0,0,0-23-27.47c-4.5-4.46-9.11-9-14.76-11.89-.3-2-2.42-4-4.1-3.28-2.52,5.52,5.5,6.88,7,11.07Zm-273.51-5.33c1.08.12,1.35-.57,1.23-1.64-1.7-.11-1.65.49-1.23,1.64Zm82,36.08c.31-1.54-1.57-.9-1.64-2.05.4-5.19-5-6.74-4.51-10.66,3,2.82,5.19,6.8,7.38,9.84,1.14,1.59,2.06,4.43,4.51,3.28-.23-5-4.51-5.88-5.74-9.84-.43-.71-2.4-.51-1.23-1.64,2.42,1,3.23,3.6,6.15,4.1a31.08,31.08,0,0,0,5.33,7.38c5.77-.41,11.6-1.43,14.35-4.1-4.21.58-6.84-1.41-9.43-2.46-1-.42-2.14-.37-3.28-.82a59.71,59.71,0,0,1-9-4.51c-4.28-3-6.83-8-9.84-11.49-1.35-4.25-3.72-7.49-2.87-13.94-1.29.27-1.19,1.85-1.64,2.87-2.47,5.59-4.51,11.7-2.87,18.05,1.46,5.62,5.56,11.37,9.43,13.94-2.27-3.88-6.41-8.08-6.56-12.71,4.9,3.85,6.38,11.12,11.48,14.76ZM444.6,287.24a1,1,0,0,0,1.64-.82c-.93-.12-1.54.1-1.64.82ZM149.77,305.69c4.56-3.38,8.38-11.37,6.56-18.46.06,8.38-3.61,12.34-6.56,18.45Zm299.75-16.81c-.32,1.27,2.91,2.46,2.87.82C451.48,289.33,450.5,288,449.52,288.88Zm5.34,4.1c-.06-.55,1.67-1.24.41-1.64.06.55-1.67,1.24-.41,1.64Zm46.33,4.92c-.67-1.93-2.23-3-3.69-4.1-1.88,1.88,1.93,3.33,3.69,4.1Zm-342,.41q.12-1.35-1.23-1.23C157.9,298,158.3,298.39,159.2,298.31Zm51.26,1.23v-1.23h-1.23q-.12,1.35,1.23,1.23Zm196-.41c-10.12-1.21-18.92,3.14-28.29,2.46,6.43,14.07,14,27,20.5,41,5.08.8,10,.24,14.76,0,1.55-14.35,1.28-24.76,2.87-38.13-9.6-2-20.77,1.85-30.75,0,1.33-1.56,3.47-1.52,5.33-1.64,4.58-.31,9.7.39,14.76,0s10.11-.74,14.35.41c2.51-1.42,6.37-.66,9.84-.82,3.9-.18,8.46-1.7,10.26.41-2,2.77-7.33,1.47-11.48,1.64-2.84.11-5.4.41-7,.41,2.29,6.38,4.23,13.33,6.15,20.09,1.42,5,3,9.8,4.52,14.76,2.11,7.07,2.71,14.63,5.74,21.33.58-4.62,2.19-8.95.41-13.12,3.06-8,0-21.8,7-28.3-1.8-2-1.92-5.79-2.87-9-.81-2.71-3.69-6.3-.41-8.2,2.38,2.86,3.41,7.85,4.51,11.48.39,1.3.55,3.28,1.64,4.1,3.3-4.16,3.89-13.52,2.05-19.27-15-1.15-31.36,1.91-43.87.41Zm-256.7,1.23H151c.12-.94-.1-1.54-.82-1.64-.13.56-.59.78-.41,1.64Zm32.39-.82c.78-.18,2.47.56,2.05-.82-1-.06-2-.08-2.05.82Zm-1.23-.41c-.85.24-2.69-.51-2.87.41C178.94,301.12,180.3,300.66,180.93,299.13Zm-5.74,1.23H176v-.82h-.82Zm29.53,1.23c1.48.11,2.84.1,2.46-1.64-1.34,0-2.21.53-2.46,1.64Zm-6.16,1.23h.82V302h-.82Zm287.05,2.05c1.86.47,2.51,2.14,4.51,2.46-1-1.76-1.73-3.73-3.28-4.92-.57.67-1.45,1-1.23,2.46Zm21.73,4.92c-1,.34-3.53-.8-3.28.82,1.52,2.08,6.35-.65,8.2,1.64-.23,1.68-2.44,1.38-2.87,2.87a29.32,29.32,0,0,0,7-1.23c-2.75-4-7.26-11.68-12.71-11.48.94,2.75,4.83,2.55,3.69,7.38Zm-20.09,0c2.51,1.93,5.16,4.71,7.79,5.33.72.17,2.25,2.62,2.46.41-4.94-2.44-8.1-6.66-13.12-9,.35,1.83,1.61,2.31,2.87,3.28Zm-127.12-1.23c.6,2,2.11,5.26,4.1,4.51-1.57-.48-.51-3.59-.82-5.33a4.59,4.59,0,0,0-3.28.82Zm-1.23,1.23c-1.31.19-2.5.5-2.87,1.64,2,2.41,4.12,4.62,5.33,7.79,2.16.4,2.06,4.92,4.92,3.28-.56-4.51-5.2-8.44-7.38-12.71Zm60.69,2.46c.56.13.78.58,1.64.41v-1.23c-.93-.11-1.54.1-1.64.82Zm-66.84,1.64c1.65,3.68,4.5,6.16,7,9-.27,2.45,1.79,4.32,3.69,3.28-1.41-3.78-4.19-6.2-6.15-9.43a6.05,6.05,0,0,0-2.46-4.51c-1.4-.17-1.23,1.23-2.05,1.64Zm-2.87,2.46v1.23a12.94,12.94,0,0,1,3.28,3.69c1.8,2.64,2.64,6.56,6.15,7.38-.35-4.6-5.88-7.49-7-12.71a3.51,3.51,0,0,0-2.46.41Zm-3.28,2.47c-.13,2.8,2.35,4.4,3.69,6.15s2.08,4.83,4.92,4.92c-1.77-4.65-4.58-8.27-7.38-11.89-.11.57-.9.46-1.23.82Zm-199.29,2c.2,4.13,5.73.67,6.56-.82a15.63,15.63,0,0,1-6.56.82Zm196.42,2.88c3.45,2.29,4,7.51,8.2,9-1.54-4.61-4.54-7.77-7.79-10.66-.13.55-.58.78-.41,1.64Zm-2.87,2.46c2.74,3.14,4.39,7.36,7.79,9.84,0-4-4.57-6.88-5.74-11.07-.77.09-.9-.46-1.64-.41a2.31,2.31,0,0,1-.41,1.64Zm25,3.28v-1.23h-1.23q-.11,1.33,1.23,1.23Zm53.31,4.1c2.27,0,1.19-4.58,0-4.92C418.75,329.81,418.4,332.49,419.18,333.58Zm-77.5-1.23a6.91,6.91,0,0,0-2.05-3.28c-1.16,1.55,1.16,2.47,2.05,3.28Zm17.63-1.64a1.54,1.54,0,0,0,1.64,1.64c-.09-.78.46-.91.41-1.64-.78-.77-1,0-2.05,0Zm-173.46,2.87c1.2.6,1.2-1.84,0-1.23v1.23ZM556.55,336A109.58,109.58,0,0,0,584,354.9c-3.34-3.38-7.73-5.58-11.9-8.2a80.19,80.19,0,0,1-14.76-11.89c-.09-.32-.34-.48-.82-.41V336Zm-126.71,7.79c-.23-1.27.11-3.12-1.23-3.28,0,1.46.19,2.81,1.23,3.28Zm133.27,9c.07-1.16.75-1.71.82-2.87-3.72-3-7.08-6.32-11.07-9a.41.41,0,0,0-.82,0c3.68,4,5.9,9.41,11.07,11.89ZM176,342.19h1.23c0-.74-.41-1-1.23-.82v.82Zm-13.12,1.64a1.13,1.13,0,0,0-.82-1.23C161.48,343.2,161.47,344.19,162.89,343.83Zm8.61,1.23c1.36,1.05,3-.34,3.28-1.64-1.35-1.06-3.07.26-3.28,1.64Zm244.81-.41h-2.05c-.52,2.15,2.31,1.19,2.05,0ZM166.58,346.7a1.13,1.13,0,0,0,1.23-.82c-.64,0-1.42-.06-1.23.82Zm-14.76,11.89c1.15.51,2.58,2.87,3.28,2.46-.73-.78-.3-2.71-.41-4.1-3.37-1.14-3.06-6-6.15-7.38-1,3.53,3.6,4.82,3.28,9Zm439.59-.41c-1.22,0-2.29-2.33-3.69-.82C588.69,357.64,590.48,359.22,591.41,358.18ZM392.94,377c-3.85,2.2-7.77,3.15-11.48,4.51-5.15,1.88-11.1,3.36-16,4.92-.9.29-2.39.73-2.87,1.64,4.49.63,9.67-2.57,13.94-2.05,7.06-2.92,15.49-6,22.55-8.61,2.18-.8,6.35-.87,6.56-4.1-5.36-1.49-7.07,4.11-12.71,3.69Zm-32.4,11.49c-.6.22-2.12-.48-2.05.41.6-.23,2.12.48,2.05-.41Zm-11.89,3.28a3.7,3.7,0,0,0,2.87-.82c-.93.29-3.2-.74-2.87.82Zm-6.56,1.64c1.47-.18,2.19-1.1,4.1-.82-.33-1.71-4.48-.84-4.1.82Z" transform="translate(0 0)"/><path class="cls-1" d="M52.17,385.66c.44,2.08-1.21,2.07-1.64,3.28.21,4.17-3,5-6.56,5.33a3.51,3.51,0,0,1-.41-2.46c1.72-.82,3.18.37,4.51-.41-.42-1.35-1.24-1.81,0-2.87-1.29,0-2.28,1.36-3.28.41,1.18-2.26,5-3.53,7.38-3.28Z" transform="translate(0 0)"/><path class="cls-1" d="M88.26,374.58c.66-.12.7.39,1.23.41,1.8,4.88,5.21,10.24,7.38,15.17a10.49,10.49,0,0,1,.41,5.74c-1.12.3-.83-.81-1.64-.82-.8.57-.61,2.12-1.23,2.87-.86-.23-1.17-1-2.46-.82,1.83-1.21-.62-3.59-.82-5.33-1.23,1,.93,4.87-2,5.74A131.6,131.6,0,0,0,84.57,384c-1.17-2.95-3.65-5.62-2.87-9,3.86,3.24,4.82,9.39,7.38,13.94.3-4-3.75-9.33-3.69-13.12,2.08-.42,1.85,2,2.46,3.28.71,1.47,1.77,3,2.46,4.51.58,1.32.13,3.71,2,4.1.09,2.09,1.15,3.23,2,4.51-.66-5.36-5.64-12.11-6.15-17.63Z" transform="translate(0 0)"/></svg>