<svg id="Calque_1" data-name="Calque 1" xmlns="http://www.w3.org/2000/svg" viewBox="0 0 460.2 457.63"><defs><style>.cls-1{fill:#fff;}</style></defs><path class="cls-1" d="M180.1,32V55H148.82L138.15,183h18.07l4.05-48.69,39.24,25.12L156.78,183h9.32v22.74L199.47,223,166.1,236.31V247h21.73l38.22-15.29L227.32,247h18.06l-16-192H198.1V32ZM166.21,73h46.61l1,11.9ZM372.1,87v64h16.46l79.54-26.51V368h18V87ZM163.88,91l37.28,9.32L161.4,120.82,163.88,91ZM326.1,105v46h30V105Zm84.73,0H468.1v.51l-37.67,12.56Zm-20.73,7.82,18.7,12.46-18.7,6.23Zm-174,0,3.16,37.9-34.2-21.88,31-16Zm4.62,55.44,4,47.48-46.5-24Zm89.34.74v46h110V169Zm-240,32v46h78V201Zm15,14h32v18h-32Zm257,18v14h46V233Zm-304,32v46h398V265Zm2.5,64,43.5,58V357l-21-28Zm61.5,0V455.58a76.39,76.39,0,0,0-9-.58c-13.18,0-29.27,4.29-42.85,8.39s-24.35,8.2-24.35,8.2l6.4,16.82s10.23-3.89,23.16-7.8S84.29,473,93.1,473s24.72,3.71,37.65,7.61,23.15,7.8,23.15,7.8l3.2,1.22,3.2-1.22s10.23-3.89,23.16-7.8S212.29,473,221.1,473s24.72,3.71,37.65,7.61,23.15,7.8,23.15,7.8l3.2,1.22,3.2-1.22s10.24-3.89,23.16-7.8S340.29,473,349.1,473s24.72,3.71,37.65,7.61,23.15,7.8,23.15,7.8l2.64,1,66.75-16.69-4.37-17.46L413.58,470.6c-3.1-1.15-10.66-3.9-21.63-7.22-11.26-3.39-24.23-6.91-35.85-8V329h-30V458.05c-6.79,1.53-13.59,3.44-19.85,5.33-10.51,3.18-17.69,5.77-21.15,7.05-3.45-1.27-10.64-3.87-21.15-7.05-13.58-4.1-29.67-8.38-42.85-8.38a108.1,108.1,0,0,0-23,3.05V329h-18V462.84l-1.85.55c-10.51,3.17-17.69,5.76-21.15,7-3.45-1.27-10.64-3.87-21.15-7l-3.85-1.14V329Zm162.5,0,43.5,58V357l-21-28Zm130.5,0-21,28v30l43.5-58Z" transform="translate(-25.9 -32)"/></svg>