<svg id="Calque_1" data-name="Calque 1" xmlns="http://www.w3.org/2000/svg" viewBox="0 0 570.15 553.99"><defs><style>.cls-1{fill:#fff;}</style></defs><path class="cls-1" d="M110.42,552.51c-9.47-3-17.66-9-22.6-16.64-3.71-5.72-4.25-5.8-22.32-3.38-6,.81-13.62,1.48-16.82,1.49s-6.7.49-7.78,1.07c-1.7.91-2.15.59-3.4-2.39-.79-1.89-6.06-9-11.72-15.85s-12.7-15.4-15.66-19.06S3.8,491,2.62,490.8L.5,490.5l.37-62c.2-34.1.65-83.6,1-110l.63-48,43.25-.26c45.75-.27,45-.18,41.23-5-6.89-8.76-5.53-34.51,2.33-44.1.85-1,.69-1.67-.65-2.65-5.74-4.2-2.35-30.56,4.13-32.14a16.7,16.7,0,0,0,4.68-2c2.47-1.69,5.21-1.73,5.87-.1.28.69.54.27.58-.94a3.59,3.59,0,0,0-.92-2.81c-2.07-1.28,1.89-20.25,5.61-26.91,2.78-5,7.89-9.32,15.14-12.89,5.1-2.51,5.13-2.72,1-7.86-11.11-13.83,3.91-36.95,23-35.4a48.62,48.62,0,0,0,13.86-.55c7.69-1.72,9.18-.28,6.84,6.6a15.58,15.58,0,0,0-.92,7.92,43.62,43.62,0,0,1,.62,8.3,25.43,25.43,0,0,0,1.25,8.4c1.22,2.91,1.11,3.63-1.28,8.32-1.44,2.83-3.24,6.63-4,8.46a8.68,8.68,0,0,1-4.75,4.73c-1.85.78-3.36,1.74-3.34,2.15.05,1.12,3.68,5.23,4.63,5.24.46,0,3.31,2.31,6.34,5.12s7.85,6.9,10.71,9.08,5.49,4.85,5.83,5.92c.9,2.84,8.14,7.27,12.34,7.56,2,.14,14.52.48,27.84.74,27.92.56,29.75,1,30.52,7.29.69,5.64,0,6.59-4.05,5.93a9.3,9.3,0,0,0-6.1.93c-1.42.82-5.71,2.75-9.53,4.29s-7.1,3.25-7.29,3.83c-.72,2.16,3.62,2,9.27-.42,14-5.88,21.43-3.45,22.93,7.48,1.39,10.14,5.15,9.55,4.68-.74-.28-6-.08-7,1.69-7.93,5.05-2.7,9,3.4,7.12,11.09-1.4,5.84-1.09,6.28,5.53,7.65s6.8.81,5.95-10.33c-.38-4.95-1-26.1-1.31-47l-.63-38-2.45-4.13-2.45-4.13,1.95-5.8c3.05-9.07,3.83-9.67,13.23-10.22,9.13-.53,9.31-.7,8.16-7.73-1.48-9-1.13-17,.81-18.76,1.56-1.41,1.68-3,1.11-14.4s-1.19-38.86-.95-42.1c.16-2.18,33.27-10.59,47.09-12a27.64,27.64,0,0,0,7.5-1.62A30.11,30.11,0,0,1,364,6.87c6.38-.84,20.52-4.43,23.64-6C389.16.1,414.47,0,475.08.65l85.28.87.47,7c.9,13.33-.31,102.82-1.41,104.6-.22.35-.44,14.75-.5,32-.12,37.53.83,34.85-12.35,35-5,0-10,.46-11.09.93-4.09,1.76,25.83.38,30.5-1.41,2.87-1.1,3.93,1,4.49,8.72.63,8.78-.35,11.69-4,11.69-2.06,0-2.45.54-2.72,3.75l-.31,3.75-12.5.7c-6.87.38-18.57.95-26,1.27A177.7,177.7,0,0,0,507,211c-5.59,1.14-20.17,2.05-34,2.13-5.77,0-20.62.74-33,1.57-59.59,4-51.88,3.77-67.29,2.22-15.12-1.52-13.87-4.48-12.7,30.16,3.51,103.42,3.86,108.25,8.1,113.58a11.28,11.28,0,0,1,2.89,7.51c0,3.61.2,3.87,3,3.87,5.17,0,6.54,9.19,2.94,19.83-2.63,7.8-9.2,13.61-14.34,12.7-2.46-.44-2.64-.36-1,.38,2.85,1.24,3.25,4.14,2.89,21.09-.22,10.42.12,16.29,1.21,20.86a53.32,53.32,0,0,1-1,25.14c-.8,2.47-2.71,8.77-4.25,14-10.81,36.7-50.68,47.79-76.23,21.2L279,501.75l-7.31.47a35.88,35.88,0,0,0-13.1,3.13c-4.44,2-9.1,3-19.95,4.22C219,511.75,210.7,512.75,202,514c-21.27,3-28,3.45-32.24,2.33-5.12-1.37-6.47-.52-7.3,4.57-3.74,22.89-29.72,38.71-52,31.66Zm24-17c23.38-11.44,20.36-50.67-4.1-53.19-16.35-1.69-29.29,14.76-28.22,35.89.89,17.64,15.56,25.5,32.32,17.3Zm-18-4.43C99.7,520.7,106.3,491,125.42,491a20.8,20.8,0,0,1,19.16,29.13c-4.22,10-19.79,16.15-28.08,11ZM132.43,526a3.52,3.52,0,0,0,2.56-3c0-3,2.11-7,4.1-7.6,3.15-1,3.43-4.47.55-6.84a7.82,7.82,0,0,1-2.86-5.95c-.42-5.51-4.46-8-8.9-5.43-3.62,2.08-5.22,2.18-8,.5-3-1.79-7.85,3.53-5.63,6.12,2.83,3.31,2.79,4.11-.35,7.18-5.59,5.47-2.3,13.51,5,12.34,3.22-.52,4.07-.27,5.17,1.5,1.43,2.29,4.23,2.67,8.28,1.14Zm-71.05-.09C85.73,523.06,88,521.81,88,511.25c0-50.63,70.21-61.55,83.52-13,.71,2.61,1.09,5.55.83,6.53-1.33,5.09,1.31,7.5,7.42,6.78,10.38-1.23,57.56-7.47,66-8.73l8.3-1.24,4.78-9.54c2.64-5.25,5.4-11.11,6.15-13a54,54,0,0,1,3.62-7.15c1.24-2,4.37-9.21,6.95-16,8.28-21.81,25.26-44.85,33-44.85a28.65,28.65,0,0,0,5.29-2.9c5.17-3.27,6.37-3.44,41.59-5.62,14.39-.89,15.17-1.48,19.08-14.36,3.17-10.47,1.33-12.81-8.82-11.17-3.44.56-16.83,1.72-29.76,2.58-30.1,2-34.85,2.39-38.5,3.09-1.65.32-17,1.1-34.17,1.73-36.77,1.36-32.38-1.19-32.8,19-.42,20,.68,18.18-11.2,18.39-5.41.1-13.88.66-18.83,1.25s-18.67,1.93-30.5,3-30.5,2.83-41.5,4-27.2,2.74-36,3.58c-26,2.48-28.5,2.92-28.5,5A1.44,1.44,0,0,1,62.63,440c-1.8,0-2.54-4.94-2.11-14.1.72-15.22,1.21-110.73.61-118.9l-.63-8.5-5.5-.26c-3-.14-6.13.15-6.89.65C46.42,300,45.48,328.82,44.47,411c-.62,50.62-.88,66.91-1.41,87.5-.11,4.4-.17,12.61-.13,18.25L43,527h4.64c2.55,0,8.74-.49,13.75-1.08ZM38.11,511.75c.06-4,.25-14,.43-22.25s.46-47.81.63-87.91l.32-72.91-3.36-1.13c-4-1.35-6.14-4-6.14-7.54,0-13.85-9.31-9.29-9.64,4.72-1.3,55-1.62,57.52-6.67,53.83-6.09-4.44-5.8-5.44-6.35,22.11-.27,13.1-.8,36.2-1.2,51.32-.79,30.17-.72,30.72,4.78,36.5,2.09,2.2,6,6.93,8.69,10.51,16.59,22.08,18.34,23.29,18.51,12.74Zm292.58-10.19c11.15-5.2,17.72-13.26,19.42-23.83a37.34,37.34,0,0,1,1.64-7.15c5.26-8.52-3.22-31.93-12.83-35.41-23.7-8.57-37.35-.94-44.34,24.82-8.54,31.42,10.6,53.44,36.11,41.57ZM314.42,485.5c-13.14-5.64-11-32.51,2.59-32.51,3.05,0,4.44,2.69,2.05,4a4.15,4.15,0,0,0-2.07,3.39,7.87,7.87,0,0,1-2.5,4.64c-2.64,2.48-3.24,5.86-1.38,7.72a16.54,16.54,0,0,1,2.3,3.45c1.2,2.35,1.8,2.45,9.08,1.47,6.66-.9,11.06-7,10.36-14.32-.41-4.33,1.45-5.09,2.71-1.12.6,1.91-.13,11.39-1.16,15-1.55,5.36-16.08,10.89-22,8.35Zm5.83-13.64c-2-2-1.53-4.87.75-4.87,1.1,0,2,.45,2,1s.67,1,1.5,1,1.5-.94,1.5-2.5q0-4.1,2.8-1.3a3.9,3.9,0,0,1-.15,5.67c-2.19,1.82-7,2.39-8.4,1ZM270,497.91c5.24-1.12,5.8-2,4.11-6.12a34.53,34.53,0,0,1-1.55-6c-.84-5.23-2.22-4.69-5.08,2-1.35,3.16-2.92,6.55-3.48,7.54-.89,1.56-.57,3.71.56,3.71.21,0,2.66-.49,5.44-1.09ZM80,429.54c6.87-.8,21.71-2.38,33-3.51s24.78-2.52,30-3.08c10.55-1.13,22.11-2.3,44.5-4.49,30.69-3,35.09-3.84,35.91-6.77.34-1.21.88-13.67,1.19-27.7s.88-39.22,1.26-56,.44-32.07.14-34l-.54-3.5-7.48.16c-15.27.3-60.87,2.42-72.48,3.36-20.73,1.68-46.51,3-65.67,3.3-12.52.22-12.3.07-12.37,8-.46,53.44-1.92,122.57-2.62,123.92-1.13,2.18-1,2.18,15.17.3ZM74,322.19c0-2.19,2-2.36,66.5-5.77,26.4-1.4,54.3-2.9,62-3.33,13.11-.74,17.33-.25,16,1.86-.25.41-10,1-21.74,1.4S169,317.47,161,318s-28.68,1.68-46,2.52-33.64,1.79-36.25,2.12c-3.06.38-4.75.22-4.75-.47Zm-.38-6C72,313.56,73,313.47,142,310c10.73-.54,26.7-1.42,35.5-2,35.8-2.16,38.5-2.25,38.5-1.19,0,1.79-1.05,1.94-17.5,2.59-8.8.35-18.47.85-21.5,1.12s-19,1.16-35.5,2c-32.66,1.66-52.85,3-61.61,4-3.57.43-5.86.29-6.27-.38Zm-1-6c-1-1.63.31-1.9,12.41-2.56,6.33-.35,18.7-1.07,27.5-1.6s29.5-1.66,46-2.5,35.49-2,42.19-2.5c11.85-.95,15.31-.7,15.31,1.1,0,1.42-3.46,1.76-24,2.4-10.72.33-25.57,1-33,1.53s-27.67,1.62-45,2.46-33.59,1.77-36.14,2.09c-2.7.34-4.9.17-5.27-.42Zm287.93,101c-.46-1.2-2-1.36-8.21-.83-9.46.8-9.6.95-4.75,4.92,5.39,4.4,9.33,8.78,10.09,11.2a5.77,5.77,0,0,0,1.74,2.74c1.2.77,2.21-15.24,1.13-18ZM240.85,380.36c7.73-.81,7.69-1.37-.4-5.23-8.82-4.22-9.45-4.13-9.45,1.37,0,5.07-.37,4.92,9.86,3.85ZM297,378.05l28.5-2.16c19-1.44,18.61-1.26,17.94-9.17-1.23-14.59-2.66-27-4.41-38.22-1-6.6-2.42-16.05-3.1-21s-1.8-9.67-2.49-10.5c-1.62-1.94-7.44-13.45-7.44-14.72,0-.53-3.28-7.45-7.28-15.38s-9.39-19-12-24.65S301.57,232,300.92,232c-2.75,0-15.35,5.23-18.62,7.73l-3.56,2.72.68,11c.38,6.07.85,12.61,1,14.53s.87,14.3,1.5,27.5,2,35.93,2.93,50.5c1.91,28.54,1.86,29-3.29,29-3.33,0-8,2.58-7.13,3.95.28.45,2.42.66,4.77.47s10.34-.81,17.76-1.37Zm-25.58-3c10.7-4.92,10.09-2.79,8.67-30.37-1.6-31-1.86-34.78-4.13-59.4-1.08-11.67-2-24.72-2-29-.07-12.87-2.42-15.69-14.7-17.74-5.43-.9-5.47-1.33,1.6,15.8,12.51,30.33,12.46,30.19,12.37,40.67-.17,20.88-2.71,25.71-16.86,32.06-8.46,3.8-8.94,6.48-3.94,22,3.94,12.21,4.14,13.67,2.19,16.23-2.78,3.66-2.86,3.49-9-18.86-1.38-5-3.23-7.39-5.73-7.39-1,0-1.88-.56-1.89-1.25s-1.12-1.77-2.49-2.4c-2.38-1.11-2.46-1-1.74,1.5.41,1.46.67,8.79.57,16.29l-.17,13.64,10.17,4.66,13.17,6.05c4.25,2,4.38,1.94,13.92-2.45Zm91.83-2c6.5-.31-.84-9.74-8-10.23-6.93-.48-7.63.09-6.61,5.45s2.07,6,8.28,5.38c3.05-.31,5.89-.58,6.3-.6Zm-5.06-15.29c.22-.69.08-8.9-.32-18.25s-1-27.13-1.31-39.5-.82-25.2-1.1-28.5-.68-14.55-.9-25-.88-27.78-1.47-38.5c-2.62-48-3.12-59.2-3.11-69.75L350,127h-5.41c-8.87,0-8.58-.46-8.58,13.49,0,10.92,1,42.56,2.44,74,.27,6,1,28.78,1.55,50.5s1.75,45.13,2.58,52,1.7,15,1.93,18c.38,4.91,1.9,15.61,3.1,21.75.5,2.6,9.79,3.47,10.59,1ZM238.13,329.58c3.53-1.49,5.54-3.24,9-7.87,1.14-1.54,5.1-4.31,8.78-6.17,10.66-5.37,12.22-8.84,3-6.72A46.66,46.66,0,0,1,250.5,310a10.64,10.64,0,0,0-6.17,2.3c-4.25,3.45-8.09,5.71-9.69,5.71-1.92,0-2.64,2.2-2.64,8.08,0,5.47.6,5.82,6.13,3.5Zm24.7-24c4.18-.83,6.17-1.66,6.17-2.59,0-1.86-6.08-16.12-8.53-20s-5.1-4.76-3.82-1.43c.36.93-2.1,4.21-6.63,8.89-7.68,7.92-7.93,8.74-4.3,14.47,1.51,2.39,7.25,2.61,17.11.66Zm-17.52-16.86a41.17,41.17,0,0,1,7-5c1.83-.66.47-4.69-1.58-4.69-1.82,0-7.53,5.24-8.08,7.42-.4,1.62-1.55,2.52-3.75,3-4,.8-5.86,2.33-5.86,4.76,0,2.72,5.48.3,12.31-5.45ZM52,293.12c0-1.38-2.12-2.8-7-4.69-5.43-2.11-17.43-9-19.07-11-1.34-1.63-10.93-2-10.93-.43,0,.54,4.16,3.07,9.25,5.62s10.45,5.48,11.91,6.51A11.55,11.55,0,0,0,41.78,291,6.2,6.2,0,0,1,46,292.5c1.33,1.6,6,2.08,6,.62ZM108.5,292c7.7-.51,19.18-1.23,25.5-1.58s13-.77,14.89-.94c2.75-.24,28.48-1.18,52.11-1.9,19.65-.6,20.17-.81,10-4.1-5-1.62-7.9-1.71-32-1-59.54,1.87-77.42.76-78.22-4.85-.48-3.36-66.81-3.95-66.81-.59,0,.55.79,1.29,1.75,1.65A83.62,83.62,0,0,1,43.47,283c3.28,2,9.58,5.22,14,7.24l8,3.68L80,293.4c8-.25,20.8-.89,28.5-1.4Zm120.32-8.86c2.86-1.81,4.32-18,2.14-23.74l-1-2.74-3.49,5.17c-6.41,9.52-8.27,6.68-2.84-4.32a48.22,48.22,0,0,0,4.25-12.64c.72-5.81,3.08-7.44,4.16-2.86.33,1.38,1,2.5,1.54,2.5,2,0,1.3-3.31-2.29-10.5l-3.75-7.5-16,.31c-8.8.17-18.92.74-22.5,1.27s-10.77,1.46-16,2.06c-10.33,1.19-10.49,1.28-11.42,7.11-.74,4.6-3.18,9.75-4.63,9.75-.55,0-.29-1.38.58-3.06,2.46-4.76,3.05-12.22,1.09-13.85a4.33,4.33,0,0,1-1.62-2.61c0-3.15-8.4-3.3-20.67-.39-7.81,1.86-9.64,2-15.83.94-3.85-.63-8.35-1.24-10-1.34l-3-.2-.29,8.2c-.35,9.83-1.12,9.19,14.79,12.23,19.05,3.63,21.23,4,28.19,4.49a70.77,70.77,0,0,1,14.2,3c8.32,2.79,7.19,3,20.6-3.13,5.3-2.41,16.47-9.56,26.21-16.77,2.59-1.92,5-3.08,5.27-2.58.77,1.24-8.9,11-14.47,14.62a61.6,61.6,0,0,0-5.67,4,18.07,18.07,0,0,1-4.25,2.37c-7.23,3-2.36,3.13,5.23.14,3.78-1.48,4.74-1.39,4.05.4-1.3,3.39,3.6,1.23,8.79-3.88,10.14-10,19.19-11.72,9.68-1.87-6.35,6.58-6.77,7.62-5.32,13.11.67,2.55,2,8.24,3,12.64q3.3,14.69,11.29,9.63Zm-115.25-45c-.41-.67.08-1.11,1.23-1.11s4.12-.29,6.81-.63c3.45-.45,4.6-.32,3.89.44-1.5,1.6-11.1,2.65-11.93,1.3Zm25.2-2.68c-2.08-2.08,4-6.44,8.93-6.43,3.43,0,9.6,3.6,9.05,5.28-.43,1.29-16.79,2.34-18,1.15ZM216,279.61c0-2.28-2.58-7.7-3.31-7-.88.88-.89,6.81,0,7.68,1.18,1.18,3.33.71,3.33-.72ZM242.43,278c5.71-3.86,5.78-4,3.95-7.52-.84-1.61-3.28-7-5.42-11.93s-3.93-8.78-4-8.5c-.53,2.3-.3,31,.23,31a27.78,27.78,0,0,0,5.23-3.05ZM263,274.57a2.54,2.54,0,0,0-.89-2c-.48-.3-1.91-3.7-3.18-7.56-2.33-7.13-3.3-7.95-7-6-2.54,1.37-2.44,3,.57,9s10.5,10.68,10.5,6.56Zm-65.18-2.31c-.32-2.74-.36-2.75-8.07-2.75-9.27,0-10.25,1.3-2.75,3.65,8.56,2.68,11.21,2.46,10.82-.9Zm-35-.89C174.28,270.17,168,269,150,269c-16.25,0-20.16.5-18.31,2.36.83.83,23.2.83,31.13,0ZM121,266.51c1-1.22,1-1.5-.19-1.5-3.71,0-19.42-14.57-17.8-16.51,1.33-1.61,2-15.07,1-19.62l-.75-3.37-3.9,8c-6.33,13-5.47,25.13,2.12,30.1,6.39,4.19,17.09,5.78,19.48,2.9Zm213-5.76c0-5.76-2.85-64-3.44-70.24-.26-2.75-.77-12.88-1.13-22.5s-.74-19.65-.84-22.27c-.22-5.32-2.93-9.42-4.54-6.82a3.49,3.49,0,0,0-.48,2.5c.21.6.84,13.24,1.39,28.09,1.35,36,3.88,86.29,4.53,89.9,1.16,6.45,4.51,7.44,4.51,1.34Zm-82-8.2c1.5-1.8.54-3.54-2-3.54-2.25,0-3.39,1.54-2.62,3.55.71,1.86,3,1.86,4.58,0ZM94.41,232.09c2.93-8.39,3.22-10.49,1-7.59-2.77,3.66-5.44,14.43-5.3,21.37l.13,6.64L91,246a79.5,79.5,0,0,1,3.37-13.93Zm230.2-20.58c-.87-16.5-1.82-35.18-2.11-41.5-1.09-23.22-1.74-33.52-2.17-34.25-.77-1.33-2.22-.8-3.29,1.2s2.19,74.78,3.91,85.22a51.08,51.08,0,0,1,.38,11.08,16,16,0,0,0,1.76,10.33l2.32,4.92.39-3.5c.21-1.93-.33-17-1.19-33.5Zm-7,23.62c-1.73-11.56-4.49-62.64-5-92.12-.11-7-.28-7.53-2.37-7.82-2.71-.39-2.72-.12-1.27,33.82.54,12.37,1.21,28.8,1.5,36.5s.8,16.36,1.14,19.25c.64,5.54-1.74,8-2.95,3-.88-3.6-3.58-60.64-4-85.25l-.13-7h-6l-.06,11c-.09,14.53,1.22,57.21,2,65.73.68,7.36-.8,15.16-2.77,14.49-.74-.25-1.24-2.85-1.33-6.81-.2-9.7-2.13-55.78-2.91-69.63-.71-12.55-2.25-17.56-4.39-14.29-1,1.51-.53,45.71.79,76.41l.65,15,3.5.85c9.37,2.3,11.33,3.22,13.12,6.16,3.73,6.13,11.36,6.62,10.47.68Zm-74.17,3.27c2.45-.94,1.87-3.28-1-4-3.29-.83-5.25.91-3.46,3.07,1.4,1.69,2.09,1.84,4.45.93Zm22.34-6.4c.46-6.14-7.75-10.08-8.59-4.13a3.58,3.58,0,0,1-2.29,2.88c-3.09.81-1.63,2.59,3.2,3.89,6.39,1.72,7.38,1.38,7.68-2.64Zm13.72,1.87c7.73-2.54,8-3.06,2-4.65-7.14-1.91-9.39-1.6-10.55,1.46-2.16,5.66-.68,6.21,8.54,3.19ZM250,230c.81-1.52.59-2.83-1-5.74a18.57,18.57,0,0,1-2-4.93c0-2.43-3.19-2.17-9.47.77-7.13,3.33-7.07,3.25-5.08,6.86,1,1.87,2.74,2.79,6.72,3.64,7.89,1.68,9.64,1.59,10.81-.61Zm-118.56-4.65c4.4-1.69-2.05-6.39-8.76-6.39-2,0-3.82-.45-4.16-1-1.1-1.78,10.78-1.19,13.44.67,3.28,2.3,22.84,3.28,24.15,1.21,2.17-3.43,1.09-6.08-2.19-5.36-3.1.68-3.1.68-1.12-1.3,2.31-2.32,2-5.81-1-10.93-2.12-3.6-2.75-3.89-4.54-2.09s-1.54,4.87.3,4.16c2-.77,1.89.27-.51,4.14s-11.44,4.67-21,1.66c-6.09-1.91-9.11-6.16-3.36-4.71C136.29,208.88,144,208.36,144,204c0-1.8-.44-2-3.9-1.41-3.91.62-11.1-1-11.1-2.57,0-.45-1.18-1.11-2.62-1.47-3.37-.85-2.92-1.15,2.87-2,3.12-.45,4.75-.32,4.75.38s-.7,1.06-1.56,1.06-1.28.45-.94,1c1,1.64,4.75,1.11,8.92-1.27,5-2.85,5.42-4.24,1.63-5.57-3.11-1.08-4.25-4.16-1.54-4.16,2,0,1.88-1.53-.42-4.79-5.2-7.35-3.37-7.48,5.4-.39a119.87,119.87,0,0,0,15.85,10.78,117,117,0,0,1,11.07,6.58,20.84,20.84,0,0,0,4.65,2.82,105.54,105.54,0,0,1,10.1,4.34,173.3,173.3,0,0,0,18.34,7.07c4.95,1.51,10,3.25,11.32,3.87,3.47,1.69,6.78-4.64,4.11-7.86-3.64-4.38-21.5-14.85-25.18-14.76-2.56.06-3.75-.34-3.75-1.28s-1.11-1.37-2.88-1.37c-2,0-3-.59-3.36-1.85s-1.8-2-5.78-2.47c-5.63-.67-14.14-4.36-14.75-6.41-.28-.91.85-.85,4.45.26,8.17,2.52,9.33,2.72,9.33,1.66,0-1.94-8.75-11.28-13.2-14.11a41.54,41.54,0,0,1-8.2-7.39c-4.08-5-4.85-5.06-10.29-1-6.06,4.48-7.43,2.06-1.76-3.13,4.52-4.14,4-7.5-1.69-11.1-13.67-8.63-29.68,2.13-32.87,22.09a43.83,43.83,0,0,1-3,10.42c-1.88,3.69-1.88,3.7.38,6.64,5.53,7.17,6.64,32.43,1.42,32.43-3.87,0,.51,4,4.5,4.06a22.28,22.28,0,0,1,5.67,1.38c3.86,1.46,9,1.89,11.41,1Zm40.08-.83c2.75-.33,8.15-1.26,12-2.05s9.58-1.72,12.75-2.06c7.8-.81,7.32-1.47-4-5.38-5.37-1.85-12.84-4.65-16.61-6.22-9.28-3.86-9-4-12.21,5.57-2.94,8.85-2.5,12.26,1.46,11.18.88-.24,3.86-.71,6.61-1Zm99.16-11.39c.5-4.24.33-5.17-.92-5.17-2.47,0-3.73,6.26-2.11,10.48,1,2.67,2.37.31,3-5.31Zm-29.57,2.66c3.34-1.74,4.51-1.94,6-1,2.87,1.79,3.65,1.44,4.84-2.18,1.78-5.37.59-7-4.6-6.18-6.62,1-13,4.15-13.71,6.77-1.47,5.48.56,6.19,7.46,2.59Zm-145-6.4c.38-1.61,1-4.62,1.34-6.68,1.34-7.83,7.32-4.42,8.26,4.72.66,6.43,2.61,7,3.12.95,1.43-16.86-6.22-27.47-13.14-18.21-2.52,3.38-4,23.38-1.63,22.6.74-.24,1.66-1.77,2.05-3.38Zm347.89-4c12.37-.78,29-1.9,37-2.48s22.6-1.48,32.5-2c56.9-3,52.5-2.24,52.48-9.29,0-8.08-.07-8.11-13.14-7.34-6.24.37-19.22,1.11-28.84,1.64s-23.35,1.47-30.5,2.07-16.38,1.28-20.5,1.48-14.48.86-23,1.45c-64.56,4.5-60,3.68-60,10.81,0,7.3-1.61,7.19,54,3.66ZM230,196c0-.55-.68-1-1.5-1-7.6,0,.13-2.79,9.15-3.3,14.23-.81,16.2-2.7,2.8-2.69-15.89,0-24.37,3.27-18.4,7.05,1.95,1.23,7.94,1.19,7.94-.06Zm149-1.6c0-1-1.41-1.39-5.12-1.39-4.35,0-4.95.21-3.93,1.44,2.19,2.63,9.05,2.6,9.05,0ZM210.62,193c6.36,0,9.22-1.68,6.77-4-1.28-1.2-23.38-2.42-23.38-1.29,0,1.5,7.38,6.31,8.83,5.75a40.62,40.62,0,0,1,7.78-.51Zm194.88-2.07c9.34-.6,17.2-1.3,17.47-1.56,1.35-1.35-2.72-1.84-10.15-1.22-4.57.38-11.77.72-16,.77s-8.84.51-10.25,1c-3.2,1.22-3.48,3.51-.32,2.65,1.24-.34,9.9-1.1,19.25-1.69Zm57-3.44c5.52-.43,44.26-3.21,57.25-4.11,4.54-.31,8-1,7.71-1.44-.58-.95-7.53-.73-31,1-8.25.6-26.2,1.73-39.88,2.51-16.33.92-25.27,1.82-26,2.61-1.06,1.13,13.48.87,31.88-.56Zm-84.93-16c.1-24.22-1.76-73.9-2.83-75.25-5.64-7.17-6.65,8.76-4.29,67.75.9,22.62,1,23.19,4.36,22.81l2.69-.31.06-15Zm14.19,13.67c1.63-1,.75-52.85-.93-54.88a3.52,3.52,0,0,0-5.76.57c-.55,1-.78,2.1-.51,2.37s.69,6.74.92,14.38c1.15,37.5,1.65,40.5,6.28,37.56Zm-23.95-13.47c-.28-8.21-.64-10.2-1.83-10.2-1.64,0-2.15,18-.62,22,1.62,4.21,2.8-1.44,2.45-11.8ZM409,183.53c1.21-1.46.78-39.45-.57-50.27l-.53-4.25h-6.47c-6.95,0-11,45.17-4.91,55,1,1.61,11.07,1.22,12.48-.48Zm18.67-.57c1.39-1.39.57-52-.87-53.7-.62-.76-3.51-1.25-7.37-1.25-9.42,0-8.86-3.41-6.85,41.94.62,13.77,8,20.12,15.09,13Zm17.52-26c-.39-31.48.21-29.17-7.51-28.8l-6.17.3-.11,25c-.12,30.57-.36,29.69,7.85,29.3l6.25-.3Zm17.88,24c2.11-1.13,1.91-50.19-.23-52.46-1-1-10.73-1.14-13.34-.14s-1.51,49.48,1.24,52.22c1.65,1.65,9.5,1.9,12.33.38Zm20.05-1.68c.7-.7,1.13-5.86,1.15-13.95,0-7.06.44-13.36.93-14s.49-1.42-.14-1.81S484,145,484,139.53c0-13.27-1.35-14.41-14-11.87l-3.28.66.64,24.7c.73,28.38,5.59,36.47,15.79,26.27Zm18.21-1.21c.57-.57.59-10.5.06-25.75l-.87-24.83h-13l-.27,25.43c-.21,19.68,0,25.61,1,26.21,1.61,1,11.86.17,13.09-1.07Zm17.43-.71c2.62-.7,2.73-3.07,1.59-33l-.65-17.17-6.5-.33c-10-.51-9.58-1.75-8.89,24.8.74,28.42,1.22,29.29,14.45,25.74Zm17-1,2.22-.6-.12-23.89c-.14-26.69.11-25.83-7.37-25.49-8.06.36-7.66-1-7.39,25.46.29,27.73.33,27.82,12.66,24.52Zm16.43-3.87c.44-1.65.92-12.67,1.07-24.5l.27-21.51-3.9-.32a23.73,23.73,0,0,0-6.25.27L541,127v23.28c0,25.9,0,26,6.42,25.48,3.43-.26,4.05-.69,4.74-3.29ZM366.8,149.4c-.22-4.44-.67-5.9-1.8-5.9-1.94,0-2.68,10-.89,12.12,2,2.42,3,.07,2.7-6.22Zm-205.57-5.75a7.58,7.58,0,0,0,.56-3.72,10.65,10.65,0,0,1,2-5.65c2.94-4.13,2.8-5.29-1-8.55L159.5,123l2.86-2.36c1.75-1.45,2.44-2.62,1.78-3-1.84-1.13-7.13,2.34-8.76,5.74a13,13,0,0,1-4.46,4.91c-1.6.92-2.92,2.26-2.93,3s-1.8,2.05-4,3c-5.39,2.27-5,4,1.76,8.17,5.95,3.7,13.56,4.34,15.48,1.31Zm204.54-19.39c-.3-16.06-.41-16.32-6.35-14.83-3.66.92-3.61,12,.08,16.39a10.12,10.12,0,0,1,2.5,7.41c0,4.7.5,5.77,2.69,5.77,1.1,0,1.31-2.84,1.08-14.74Zm-228.36-1.51c11-16.92,11.94-25.5,2.31-21.37-11.35,4.87-19.29,29.62-9.5,29.62,1.18,0,3.71-2.9,7.19-8.25Zm190.71,1.67c26.94-.58,26.14-.38,25.7-6.53l-.31-4.39-5,.07c-2.75.05-11.53.37-19.5.72-46.18,2-45,1.9-46.91,5.53-2.24,4.19,3.39,6.36,14.53,5.6,3.91-.27,18.09-.72,31.5-1Zm61.8-.83c3.24-3.9.08-58.59-3.39-58.59-5.45,0-78.09,15.14-79.53,16.58-1.85,1.86-1.75,19.81.14,22.08,4,4.87,5.78-7.57,2.13-15.24C306.6,82.83,312.18,80,325.86,80c3.23,0,6.29-.54,7-1.24s4.61-1.33,9.74-1.47c5.7-.15,9.22-.73,10.68-1.76A12.28,12.28,0,0,1,359.19,74a32.07,32.07,0,0,0,8.53-1.65c6.44-2.22,17-2.45,16.28-.35-.63,1.89-.17,38.37.59,46.75.59,6.51,2.51,8.25,5.33,4.84Zm17-.21c1.39-.43.94-55.24-.47-57.52-.3-.48-3.44-.87-7-.87H393l-.1,6.75c-.22,16.11.25,47.94.75,50,.71,2.87,6.94,3.67,13.24,1.7Zm36-.82c1.23-.76,1.43-50.18.21-54.57-.73-2.65-6.44-3.88-11.78-2.54L429,66l.11,17.73c.15,25.23,1.07,38.1,2.8,39.17,1.56,1,9.25.7,11-.38Zm19-.89c1.69-2,1.24-52.1-.5-54.91-.83-1.34-14.09-.9-14.62.48-.77,2,.71,53.13,1.59,54.5,1.09,1.73,12.08,1.67,13.53-.07Zm21.24-1.42c1-2.67.32-51.76-.75-53.5-.85-1.37-16.09-.88-16.63.53-1.15,3,.6,52.76,1.94,55,1.47,2.4,14.4.73,15.44-2Zm15.33-.18,2.8-2.92-.74-24.59c-.79-26.51-.57-25.67-6.86-26.2-8.19-.69-7.76-2-7.58,23.47.2,27.06.62,31.91,2.84,32.5,4.28,1.15,6.86.53,9.54-2.26Zm54.35,1.68c1.06-1.3,2.31-53.68,1.28-53.84-14.62-2.31-14.37-2.78-13.95,27,.41,28.7.07,26.91,5.25,27.38,2.28.21,4.65.46,5.27.55a2.74,2.74,0,0,0,2.15-1.07Zm-126.28-27c-.79-33.13.16-29.91-8.74-29.55l-7.27.3.1,26.65c.13,32.33-.61,29.85,8.94,29.85h7.61Zm110.25,25.5c1.49-3.84.79-51.3-.78-52.29-3.12-2-11.8-1.14-13.08,1.25s-.65,49.75.63,51.82c1.14,1.84,12.46,1.17,13.23-.78ZM519.52,119c1-1.64.55-46.67-.51-49.46s-11.45-3.79-14.89-1.61c-1.1.7-1.22,43.41-.15,51.85.1.81,15,.06,15.55-.78ZM157,114.28c7.45-5.18,12-16,6.22-14.72-7.05,1.54-7.9,2.29-9.23,8.25-.7,3.13-1.49,6.25-1.75,6.94-.69,1.79,1.87,1.54,4.76-.47ZM152.2,101.8c-1.37-1.38-2.81,1.51-3.57,7.2l-.6,4.5,2.6-5.34c1.75-3.62,2.26-5.67,1.57-6.36Zm164.61,9.7c10.14-.5,11.38-.85,10.56-3-.44-1.16-3-1.33-14.2-.93-24.52.87-28.16,1.32-28.16,3.47s-.29,2,31.8.45Zm29.56-2.5c1.89-1.82-.79-3-6.72-3-5.65,0-8.64,1.08-8.64,3.13,0,1.89,13.37,1.79,15.36-.13Zm19.15-5c.34-.56.17-2.48-.4-4.25S364,92.23,363.8,87c-.26-8.36-.52-9.53-2.18-9.85-3.79-.73-5.06,11.07-2.09,19.34a24.61,24.61,0,0,1,1.46,6.25,2.47,2.47,0,0,0,4.53,1.23ZM356,101.1c0-3.7-1.07-4-9-2.95-9.58,1.32-12.54-3.49-6.35-10.32,4-4.45-3.77-9.13-8.05-4.84-4.64,4.64,3.45,19.2,10,18.05,3.91-.67,10.08.39,11.81,2,1.41,1.35,1.55,1.18,1.55-2Zm-38-.61a5.9,5.9,0,0,1,4-1.5c4.16,0,6-1,6-3.25,0-1.87-.43-2-5.5-1.38-5.9.69-7.76-1.1-3.5-3.37,3.95-2.12,1.85-5-3.65-5-2.13,0-2.38.32-1.75,2.25a16.47,16.47,0,0,1,.54,5.21c-.47,6.73,1.36,10,3.86,7Zm35.31-7.7c3.09-1.6,1.28-3.32-3.27-3.1-4.28.2-9,2.49-9,4.36,0,1.17,9.47.2,12.31-1.26Zm24.15-5.15c1-.74,1.42-1.6.91-1.92-1.44-.89-7.67.68-8.13,2-.56,1.69,4.87,1.6,7.22-.12Zm-24.66-2.85c1.7-1.7,1.5-2.57-.87-3.84-2.87-1.53-5.32.45-3.88,3.14,1.16,2.17,3,2.44,4.75.7ZM377,80.54c1.67-2,.34-5.55-2.09-5.55-4.36,0-7.6,3.94-5.2,6.33,1.21,1.22,6.07.69,7.29-.78Zm-54.5-6.47C333.8,71.69,335,70.42,335,60.94c0-8.9,1.63-9.91,1.88-1.16.27,9.33.65,10.22,4.44,10.17,10.15-.11,22.05-5.17,16.76-7.13C348.23,59.18,352.27,17,362.48,17c.87,0,1.19,6,1.22,23.06C363.75,67.82,362.69,66,377,63c14-2.94,15.32-8.2,11.6-45-.35-3.45-1.82-11-2.14-11-2.09,0-29.61,6.15-42.48,9.49-3,.79-10.9,2.66-17.5,4.16-12.27,2.8-16.5,5-16.5,8.55,0,1.5.67,1.82,3.5,1.63,5.06-.35,5.13-.05,4.54,19.67l-.54,18-3.25-.25C311.08,68,311,68.08,311,72c0,4.67-.44,4.58,11.46,2.08Zm3.65-6c-2.27-1.4-4.15-31.66-2.48-40,.72-3.6,2.13-4.55,8.12-5.47L336,22v6.54c0,4.89-.38,6.69-1.5,7.12a2.44,2.44,0,0,0-1.5,2.09c0,1.23.28,1.28,1.5.27s1.49-.65,1.43,3.13c-.05,3.94-.16,4.12-1.06,1.87-1.88-4.7-3.19.35-2.63,10.16.54,9.49-.24,11.58-2.66,7.12l-1.51-2.78,0,3.14c0,1.89.56,3.37,1.45,3.71,1.65.64,1.06,3.23-.9,4a3.15,3.15,0,0,1-2.47-.26Zm1.62-31.36c-.2-2.87-.36-.26-.36,5.79s.17,8.39.37,5.21a98.34,98.34,0,0,0,0-11ZM341,62.42c-4.5-11.83.1-46.28,5.72-42.81,2.19,1.35,2.15,43.2,0,44.61a3.59,3.59,0,0,1-5.67-1.8Zm4.93-33.68C346,27.23,345.56,26,345,26s-.94,3.16-.86,7.75c.13,7.75,1.49,3.93,1.78-5ZM368,59.41c-3.76-9.9-1.91-43.42,2.41-43.42,1.43,0,3.36,39.91,2.1,43.21-1.1,2.85-3.46,3-4.51.21ZM380,57c-4.46-2.76-3.69-39.69.86-41.44,2.88-1.1,3.38,1.27,3.93,18.76C385.41,55.77,384.56,59.8,380,57Zm156.12,4.37c.46-.46.91-10.28,1-21.83l.17-21-12.79,0c-2,10.17-2.88,36.07-1.7,44,.2,1.33,12.19,0,13.32-1.11Zm17.74.41c.63-.77,1.08-8.88,1.15-20.85.13-22.36.37-21.69-8.23-22.58l-5.42-.56-.64,3.87c-.82,4.94-.86,37.7,0,39.8s11.58,2.26,13.19.32Zm-36.53-1c1.42-1.08,1.69-4.09,1.94-21.75l.29-20.5-7.61-.29-7.6-.29-.64,5.29c-1.2,10-.77,37.57.6,38.13,2.54,1,11.42.62,13-.59Zm-92.84-1.32c1.32-1.32,1.57-4.67,1.57-21V19H410l.27,20.25.27,20.25,5,.59,6.18.75a4.34,4.34,0,0,0,2.75-1.41Zm18.06-.18c.38-1,.91-10.41,1.17-21L444.14,19H429v19.8c0,14.07.35,20.15,1.2,21,2,2,11.45,1.54,12.29-.55ZM460,59c2.12-2.12,2.06-1.5,2.13-23.5.05-18.64,1-16.5-7.63-16.5H447l-.13,10.25c-.06,5.64-.2,14.52-.3,19.75C446.35,61.09,453,66,460,59Zm21,0c1.86-1.86,2-3.33,2-20.89,0-21.55.83-20-10-19.34l-7.54.43-.14,19.63c-.1,12.48.23,20.1.9,20.9C468,61.88,478.64,61.36,481,59Zm19.21-18.51c.35-24.71,1-22.49-7.14-22.49h-6.77l-.63,11.75c-.59,11.08-.15,27.25.83,30,.29.83,2.64,1.25,6.93,1.25h6.49ZM406.71,56.57c.44-.79.57-9.45.3-19.25l-.5-17.83-6.13-.3c-7.64-.36-7.58-.53-7.43,20.16.13,17.32,8.1,27.29,13.76,17.22ZM357.88,28.49c-.41-1.1-.71,2-.66,7l.1,9,.65-7C358.33,33.64,358.29,29.59,357.88,28.49ZM406,9.49V5H392V8.82c0,5,.23,5.17,7.67,5.17H406Zm18.25,3.86C425.55,13,426,11.81,426,8.92V5H409v8.75l6.75,0a51.67,51.67,0,0,0,8.5-.44ZM444,9.56V5H429v8.5l7.5.32,7.5.32Zm18-.07V5H447v9h15Zm18.75,3.56c1.89-.05,2.25-.62,2.25-3.56V6h-5.88a58.87,58.87,0,0,1-9-.63L465,4.74v9.09l6.75-.36c3.71-.2,7.76-.39,9-.42Zm74.47-4-.45-3h-13.9l.31,3.25c.31,3.2.4,3.26,6.31,3.76,7.15.6,8.31,0,7.72-4Zm-54.41.23L501.14,6H486v7.09l7.25-.3,7.25-.29ZM514.26,12c4.61,0,4.75-.1,4.75-3V6H504V8.82c0,3.51.86,4.44,3.47,3.74a36.5,36.5,0,0,1,6.78-.56ZM538,9.49V6H522V8.91c0,3.57.75,3.9,9.25,4L538,13Z" transform="translate(-0.5 -0.23)"/></svg>